SplineFontDB: 3.0
FontName: Mina-Regular
FullName: Mina
FamilyName: Mina
Weight: Regular
Copyright: Copyright (c) 2015, SAI
UComments: "2015-7-16: Created with FontForge (http://fontforge.org)"
Version: 001.000
ItalicAngle: 0
UnderlinePosition: -24
UnderlineWidth: 24
Ascent: 800
Descent: 200
InvalidEm: 0
LayerCount: 2
Layer: 0 0 "Back" 1
Layer: 1 0 "Fore" 0
XUID: [1021 37 -475828938 8093]
FSType: 0
OS2Version: 4
OS2_WeightWidthSlopeOnly: 0
OS2_UseTypoMetrics: 0
CreationTime: 1437065704
ModificationTime: 1450443161
PfmFamily: 17
TTFWeight: 400
TTFWidth: 5
LineGap: 0
VLineGap: 0
OS2TypoAscent: 917
OS2TypoAOffset: 0
OS2TypoDescent: -408
OS2TypoDOffset: 0
OS2TypoLinegap: 0
OS2WinAscent: 917
OS2WinAOffset: 0
OS2WinDescent: 408
OS2WinDOffset: 0
HheadAscent: 917
HheadAOffset: 0
HheadDescent: -408
HheadDOffset: 0
OS2SubXSize: 700
OS2SubYSize: 650
OS2SubXOff: 0
OS2SubYOff: 93
OS2SupXSize: 700
OS2SupYSize: 650
OS2SupXOff: 0
OS2SupYOff: 313
OS2StrikeYSize: 50
OS2StrikeYPos: 313
OS2CapHeight: 1274
OS2XHeight: 1274
OS2Vendor: 'PfEd'
OS2CodePages: 00000001.00000000
OS2UnicodeRanges: 80018003.80002042.00000000.00000000
Lookup: 4 0 0 "'half' Half Forms lookup 5" { "'half' Half Forms lookup 5 subtable"  } ['half' ('DFLT' <'dflt' > 'beng' <'dflt' > 'latn' <'dflt' > ) ]
Lookup: 4 0 0 "'blwf' Below Base Forms lookup 4" { "'blwf' Below Base Forms lookup 4 subtable"  } ['blwf' ('DFLT' <'dflt' > 'beng' <'dflt' > 'latn' <'dflt' > ) ]
Lookup: 4 0 0 "'rphf' Reph Form lookup 3" { "'rphf' Reph Form lookup 3 subtable"  } ['rphf' ('DFLT' <'dflt' > 'beng' <'dflt' > 'latn' <'dflt' > ) ]
Lookup: 4 0 0 "'akhn' Akhand lookup 2" { "'akhn' Akhand lookup 2 subtable"  } ['akhn' ('DFLT' <'dflt' > 'beng' <'dflt' > 'latn' <'dflt' > ) ]
Lookup: 4 0 0 "'nukt' Nukta Forms lookup 1" { "'nukt' Nukta Forms lookup 1 subtable"  } ['nukt' ('DFLT' <'dflt' > 'beng' <'dflt' > 'latn' <'dflt' > ) ]
MarkAttachClasses: 1
DEI: 91125
LangName: 1033
Encoding: Custom
UnicodeInterp: none
NameList: AGL For New Fonts

StartChar: BNGa
Encoding: 99 2437 0
Width: 960
VWidth: 0
GlyphClass: 2
Flags: HW
HStem: 0 21G<817 885> 40 73<366.514 511.631> 446 72<320.271 643.438> 575 61<-14 817 885 971>
VStem: 674 69<283.063 418.171> 817 68<0 143 202 574>
LayerCount: 2
Back
Fore
SplineSet
305 379 m 5
 294 469 l 5
 294 469 468 488 548 488 c 4
 681.126953125 488 737 411.158203125 737 329 c 4
 737 302.348632812 725 260 725 260 c 5
 796 226 l 1
 796 526 l 5
 -14 526 l 5
 -14 636 l 5
 971 636 l 5
 971 526 l 1
 905 526 l 25
 905 0 l 1
 796 0 l 1
 796 137 l 25
 684 174 l 5
 684 174 602 16 457 16 c 4
 400 16 325.000976562 55.052734375 252 132 c 4
 178 210 85 352 85 352 c 5
 147 400 l 5
 298 237 l 6
 386.926757812 141.005859375 427 128 472 128 c 4
 543 128 633 276 633 325 c 4
 633 387 561 379 531 379 c 4
 467 379 305 379 305 379 c 5
EndSplineSet
EndChar

StartChar: BNGaa
Encoding: 100 2438 1
Width: 1098
VWidth: 0
GlyphClass: 2
Flags: HW
HStem: 0 21G<817 885> 40 73<366.514 511.631> 446 72<320.271 643.438> 575 61<-14 817 885 971>
VStem: 674 69<283.063 418.171> 817 68<0 143 202 574>
LayerCount: 2
Back
Fore
SplineSet
933 526 m 5
 933 0 l 5
 1042 0 l 5
 1042 526 l 29
 1109 526 l 5
 1109 636 l 13
 1031 636 l 21
 1008 702 l 5
 932 702 l 5
 936 628 l 5
 864 636 l 5
 -16 636 l 1
 -16 526 l 1
 746 526 l 1
 746 226 l 1
 675 260 l 1
 675 260 687 302.348632812 687 329 c 0
 687 411.158203125 631.126953125 488 498 488 c 0
 418 488 244 469 244 469 c 1
 255 379 l 1
 255 379 417 379 481 379 c 0
 511 379 583 387 583 325 c 0
 583 276 493 128 422 128 c 0
 377 128 336.926757812 141.005859375 248 237 c 2
 97 400 l 1
 35 352 l 1
 35 352 128 210 202 132 c 0
 275.000976562 55.052734375 350 16 407 16 c 0
 552 16 634 174 634 174 c 1
 746 137 l 25
 746 0 l 1
 855 0 l 1
 855 526 l 29
 933 526 l 5
EndSplineSet
EndChar

StartChar: BNGta
Encoding: 126 2468 2
Width: 792
VWidth: 0
GlyphClass: 2
Flags: HW
HStem: 40 73<339.514 484.596> 444 72<294.271 616.119> 575 61<-14 785>
VStem: 646 71<286.462 415.956>
LayerCount: 2
Back
Fore
SplineSet
804 526 m 9
 804 636.328125 l 17
 -14 636 l 1
 -14 526 l 1
 804 526 l 9
717 329 m 4
 717 411.158203125 661.126953125 488 528 488 c 4
 448 488 274 469 274 469 c 5
 285 379 l 5
 285 379 447 379 511 379 c 4
 541 379 613 387 613 325 c 4
 613 276 521 127 450 127 c 4
 405 127 366.926757812 141.005859375 278 237 c 6
 127 400 l 5
 65 352 l 5
 65 352 158 210 232 132 c 4
 305.000976562 55.052734375 380 14 437 14 c 4
 588 14 717 226 717 329 c 4
EndSplineSet
EndChar

StartChar: BNGi
Encoding: 101 2439 3
Width: 585
VWidth: 0
GlyphClass: 2
Flags: HW
HStem: 443 72<94.1278 405.041> 575 61<-14 406 476 596> 708 64<119.018 394.718>
VStem: 406 70<636 696.221> 429 65<303.208 423.284>
LayerCount: 2
Back
Fore
SplineSet
324 378 m 0xe8
 261 378 97 378 97 378 c 1
 86 468 l 1
 86 468 216.418780146 489 311 489 c 0
 479 489 516 436.578125 516 329 c 0
 516 189 264 130 264 130 c 1
 513 5 l 1
 470 -73 l 1
 470 -73 216.965820312 1.6982421875 68 96 c 9
 80 195 l 1
 80 195 404 266 404 334 c 0
 404 368 394 378 324 378 c 0xe8
385 636 m 21xf0
 385 679 369 682 321 682 c 4
 235.614257812 682 71 682 71 682 c 13
 67 765 l 5
 67 765 318.281219307 779 378 779 c 4
 480 779 506 714 506 636 c 13
 596 636 l 1
 596 526 l 25
 -14 526 l 1
 -14 636 l 1
 385 636 l 21xf0
EndSplineSet
EndChar

StartChar: e
Encoding: 56 101 4
Width: 525
Flags: W
HStem: -5 111.95 208.5 100.5<177.9 346.9 177.9 177.9> 428 107<241.076 311.701>
VStem: 37.9 140 354.9 140
LayerCount: 2
Back
Fore
SplineSet
37.900390625 268 m 0
 37.900390625 496.200195312 101.5 535 269.900390625 535 c 0
 423.5 535 494.900390625 517.5 494.900390625 341.5 c 0
 494.900390625 246.900390625 442.900390625 208.5 346.900390625 208.5 c 2
 177.900390625 208.5 l 1
 177.900390625 112.650390625 214.100585938 106.950195312 289.900390625 106.950195312 c 0
 370.900390625 106.950195312 409.900390625 106.5 484.900390625 117.5 c 1
 484.900390625 23 l 1
 409.950195312 -4.9501953125 295.900390625 -5 212.900390625 -5 c 0
 77.900390625 -5 37.900390625 73.2001953125 37.900390625 268 c 0
177.900390625 309 m 1
 310.599609375 309.000976562 l 2
 339.75 309.000976562 354.900390625 323.350585938 354.900390625 348.650390625 c 0
 354.900390625 415.700195312 345.350585938 428 278.05078125 428 c 0
 204.100585938 428 176.80078125 423.700195312 177.900390625 309 c 1
EndSplineSet
EndChar

StartChar: BNGha
Encoding: 142 2489 5
Width: 585
VWidth: 0
GlyphClass: 2
Flags: HW
HStem: 443 72<94.1278 405.041> 575 61<-14 593>
VStem: 429 65<303.208 423.284>
LayerCount: 2
Back
Fore
SplineSet
324 378 m 4xe8
 261 378 97 378 97 378 c 5
 86 468 l 5
 86 468 216.418780146 489 311 489 c 4
 479 489 516 436.578125 516 329 c 4
 516 189 264 130 264 130 c 5
 513 5 l 5
 470 -73 l 5
 470 -73 216.965820312 1.6982421875 68 96 c 13
 80 195 l 5
 80 195 404 266 404 334 c 4
 404 368 394 378 324 378 c 4xe8
596 636 m 1
 596 526 l 25
 -14 526 l 1
 -14 636 l 1
 596 636 l 1
EndSplineSet
EndChar

StartChar: BNGu
Encoding: 103 2441 6
Width: 780
VWidth: 0
GlyphClass: 2
Flags: HW
HStem: -0.356499 76.9109<347.063 449.277> 358 70<390.16 603.586> 575 61<-14 325 390 527 597 759> 708 64<243.425 515.718>
VStem: 325 65<412 575> 527 70<636 696.221> 613.638 69.363<250.444 347.265>
LayerCount: 2
Back
Fore
SplineSet
443 526 m 21
 443 447.267578125 l 1
 443 447.267578125 533 456 569 456 c 0
 651.998046875 456 710.001953125 392.59765625 710.001953125 332.791992188 c 0
 710.001953125 250.791992188 702 221 530 53 c 0
 507.64978229 31.1695547948 469 0 409.94921875 -0.3564453125 c 0
 364.976553329 -0.627911590181 308.623145382 25.1006731052 245 97 c 0
 122 236 66 399 66 399 c 1
 136 439.267578125 l 1
 136 439.267578125 244.00013976 267.000114256 310 186.267578125 c 0
 347.737304688 140.106445312 380.638671875 116.53515625 409.638671875 116.53515625 c 0
 431.638671875 116.53515625 453.19921875 124.57421875 474.638671875 145.267578125 c 0
 589.638671875 256.267578125 601.638671875 287 601.638671875 312 c 0
 601.638671875 346.4140625 577.724609375 354 539 354 c 0
 485 354 338 344 338 344 c 1
 338 526 l 13
 -14 526 l 5
 -14 636 l 5
 545 636 l 21xf0
 545 679 529 682 481 682 c 4
 395.614257812 682 111 682 111 682 c 13
 107 765 l 5
 107 765 289 779 508 779 c 4
 660 779 666 714 666 636 c 13
 798 636 l 5
 798 526 l 21
 443 526 l 21
EndSplineSet
EndChar

StartChar: BNGdda
Encoding: 123 2465 7
Width: 780
VWidth: 0
GlyphClass: 2
Flags: HW
HStem: -0.356499 76.9109<347.063 449.277> 358 70<390.16 603.586> 575 61<-14 325 390 527 597 759> 708 64<243.425 515.718>
VStem: 325 65<412 575> 527 70<636 696.221> 613.638 69.363<250.444 347.265>
LayerCount: 2
Back
Fore
SplineSet
798 636 m 5
 798 526 l 21
 443 526 l 21
 443 447.267578125 l 5
 443 447.267578125 533 456 569 456 c 4
 651.998046875 456 710.001953125 392.59765625 710.001953125 332.791992188 c 4
 710.001953125 250.791992188 702 221 530 53 c 4
 507.64978229 31.1695547948 469 0 409.94921875 -0.3564453125 c 4
 364.976553329 -0.627911590181 308.623145382 25.1006731052 245 97 c 4
 122 236 66 399 66 399 c 5
 136 439.267578125 l 5
 136 439.267578125 244.00013976 267.000114256 310 186.267578125 c 4
 347.737304688 140.106445312 380.638671875 116.53515625 409.638671875 116.53515625 c 4
 431.638671875 116.53515625 453.19921875 124.57421875 474.638671875 145.267578125 c 4
 589.638671875 256.267578125 601.638671875 287 601.638671875 312 c 4
 601.638671875 346.4140625 577.724609375 354 539 354 c 4
 485 354 338 344 338 344 c 5
 338 526 l 13
 -14 526 l 5
 -14 636 l 5
 798 636 l 5
EndSplineSet
EndChar

StartChar: BNGrra
Encoding: 158 2524 8
Width: 785
VWidth: 0
GlyphClass: 2
Flags: HW
HStem: -152 98<332 427> -0.356499 76.9109<347.063 449.277> 358 70<390.247 602.702> 575 61<-14 325 390 759>
VStem: 325 65<412 575> 332 95<-152 -54> 613.638 69.363<249.539 347.349>
LayerCount: 2
Back
Fore
SplineSet
312 -167 m 6xe0
 312 -77 l 6
 312 -62 320 -52 336 -52 c 6
 424 -52 l 6
 439 -52 447 -63 447 -77 c 6
 447 -167 l 6
 447 -182 438 -190 424 -190 c 6
 336 -190 l 6
 322 -190 312 -181 312 -167 c 6xe0
798 636 m 1
 798 526 l 17
 443 526 l 17
 443 447.267578125 l 1
 443 447.267578125 533 456 569 456 c 0
 651.998046875 456 710.001953125 392.59765625 710.001953125 332.791992188 c 0
 710.001953125 250.791992188 702 221 530 53 c 0
 507.64978229 31.1695547948 469 0 409.94921875 -0.3564453125 c 0
 364.976553329 -0.627911590181 308.623145382 25.1006731052 245 97 c 0
 122 236 66 399 66 399 c 1
 136 439.267578125 l 1
 136 439.267578125 244.00013976 267.000114256 310 186.267578125 c 0
 347.737304688 140.106445312 380.638671875 116.53515625 409.638671875 116.53515625 c 0
 431.638671875 116.53515625 453.19921875 124.57421875 474.638671875 145.267578125 c 0
 589.638671875 256.267578125 601.638671875 287 601.638671875 312 c 0
 601.638671875 346.4140625 577.724609375 354 539 354 c 0
 485 354 338 344 338 344 c 1
 338 526 l 9
 -14 526 l 1
 -14 636 l 1
 798 636 l 1
EndSplineSet
EndChar

StartChar: BNGuu
Encoding: 104 2442 9
Width: 885
VWidth: 0
GlyphClass: 2
Flags: HW
HStem: -0.356499 76.9109<346.063 448.277> 358 70<389.16 602.586> 575 61<-15 324 389 526 596 758> 708 64<242.425 514.718>
VStem: 324 65<412 575> 526 70<636 696.221> 612.638 69.363<250.444 347.265>
LayerCount: 2
Back
Fore
SplineSet
507.94921875 -0.3564453125 m 0
 572 -0.3564453125 612.649414062 31.169921875 635 53 c 0
 807 221 815.001953125 250.791992188 815.001953125 332.791992188 c 0
 815.001953125 392.59765625 756.998046875 456 674 456 c 0
 638 456 548 447.267578125 548 447.267578125 c 1
 548 526 l 9
 895 526 l 9
 895 636 l 1
 731 636 l 21
 731 714 725 779 573 779 c 4
 354 779 152 765 152 765 c 5
 156 682 l 21
 156 682 460.614257812 682 546 682 c 4
 594 682 610 679 610 636 c 13xf0
 -12 636 l 1
 -12 526 l 1
 443 526 l 17
 443 344 l 1
 443 344 590 354 644 354 c 0
 682.724609375 354 706.638671875 346.4140625 706.638671875 312 c 0
 706.638671875 287 694.638671875 256.267578125 579.638671875 145.267578125 c 0
 558.19921875 124.57421875 536.638671875 116.53515625 514.638671875 116.53515625 c 0
 485.638671875 116.53515625 452.737304688 140.106445312 415 186.267578125 c 0
 349 267 241 439.267578125 241 439.267578125 c 1
 171 399 l 1
 171 399 224 270 275.922851562 194 c 1
 132 359 l 1
 62 314 l 1
 62 314 121 211 206 126 c 0
 244.431640625 87.568359375 288.194335938 54.1484375 340 32.703125 c 0
 419 0 462.711914062 -0.3564453125 507.94921875 -0.3564453125 c 0
EndSplineSet
EndChar

StartChar: BNGka
Encoding: 111 2453 10
Width: 860
VWidth: 0
GlyphClass: 2
Flags: HW
HStem: 0 21G<380.5 514.044> 575 61<-14 449 514 872>
VStem: 449 65<82 457 532 574> 729.146 71.5596<300.312 386.125>
LayerCount: 2
Back
Fore
SplineSet
81 232 m 5
 81 379 l 5
 423 507 l 5
 423 526 l 1
 -14 526 l 1
 -14 636 l 1
 872 636 l 1
 872 526 l 1
 529 526 l 25
 530 502 l 1
 696 447 l 2
 757.698549236 424.699319553 808.705078125 390.88671875 808.705078125 327.375976562 c 0
 808.705078125 306.4765625 803.489257812 282.556640625 790 256 c 0
 758 193 711 134 711 134 c 1
 617 179 l 1
 662 258 l 2
 670.298828125 272.192382812 682 297.34765625 682 309 c 0
 682 340.176757812 668.077148438 346.971679688 622 364 c 2
 530 394 l 1
 529 0 l 1
 423 0 l 5
 81 232 l 5
194 296 m 21
 423 132 l 5
 423 388 l 5
 194 296 l 21
EndSplineSet
EndChar

StartChar: BNGVOCr
Encoding: 105 2443 11
Width: 800
VWidth: 0
GlyphClass: 2
Flags: HW
HStem: 0 21G<405.5 539> 451 60<149.053 266.926> 575 61<713 812>
VStem: 80 59<520.063 583.756> 474 65<82 198 271 418 491 636> 648 65<39 160 219 575>
LayerCount: 2
Back
Fore
SplineSet
628 140 m 25
 544 178 l 25
 544 0 l 1
 434 0 l 1
 61 242 l 1
 61 330 l 1
 323 437 l 1
 308 473 l 1
 308 473 217.338867188 433.333984375 177 426 c 0
 133 418 96 437 80 452 c 0
 61.9376847349 468.933420561 42 497 42 538 c 0
 42 582 65 610 92 624 c 0
 115.952641642 636.419888259 184 649 184 649 c 1
 208 586 l 1
 208 586 182.782226562 574.439453125 155 560 c 0
 138.6875 551.521484375 131 525 164 525 c 0
 208 525 362 598 362 598 c 1
 415 470 l 1
 434 477 l 1
 434 636 l 1
 544 636 l 1
 544 301 l 25
 628 249 l 25
 628 636 l 1
 623 702 l 1
 699 702 l 1
 722 636 l 1
 810 636 l 17
 810 526 l 1
 733 526 l 25
 733 39 l 1
 628 39 l 1
 628 140 l 25
434 142 m 1
 434 367 l 1
 227 278 l 1
 434 142 l 1
EndSplineSet
EndChar

StartChar: BNGjha
Encoding: 119 2461 12
Width: 860
VWidth: 0
GlyphClass: 2
Flags: HW
HStem: 0 21G<378.5 512> 575 61<-14 447 686 790>
VStem: 447 65<82 198 271 459 532 575> 621 65<39 160 219 575>
LayerCount: 2
Back
Fore
SplineSet
217 296 m 17
 446 132 l 1
 446 388 l 1
 217 296 l 17
446 0 m 1
 104 232 l 1
 104 379 l 1
 446 507 l 9
 446 526 l 1
 -14 526 l 17
 -14 636 l 1
 564 636 l 9
 564 296 l 5
 663 246 l 29
 663 636 l 5
 657 702 l 1
 734 702 l 1
 756 636 l 1
 852 636 l 1
 852 526 l 1
 772 526 l 29
 772 39 l 5
 663 39 l 5
 663 140 l 5
 564 168 l 29
 564 0 l 1
 446 0 l 1
EndSplineSet
EndChar

StartChar: BNGdha
Encoding: 129 2471 13
Width: 800
VWidth: 0
GlyphClass: 2
Flags: HW
HStem: 0 21G<378.5 512> 575 61<512 587> 606.29 55.7998<160.3 291.959>
VStem: 88.4199 62.707<516.104 597.539> 447 65<77 459 528 575>
LayerCount: 2
Back
Fore
SplineSet
434 636 m 1
 428 702 l 1
 513 702 l 1
 537 637 l 1
 627 637 l 17
 627 526 l 1
 548 526 l 1
 548 0 l 1
 434 0 l 1
 61 242 l 1
 61 330 l 1
 207 389 l 1
 207 389 72 454 72 537 c 0
 72 602 110.419921875 665.536132812 201 665.536132812 c 4
 275.419921875 665.536132812 361 628 361 628 c 1
 338 546 l 1
 338 546 185 591 185 545 c 0
 185 506.692382812 335 438 335 438 c 1
 434 477 l 1
 434 636 l 1
434 134 m 1
 434 368 l 1
 216 276 l 1
 434 134 l 1
EndSplineSet
EndChar

StartChar: BNGba
Encoding: 133 2476 14
Width: 650
VWidth: 0
GlyphClass: 2
Flags: HW
HStem: 0 21G<378.5 512.035> 575 61<-14 447 513 615>
VStem: 447 65<82 459 532 575>
LayerCount: 2
Back
Fore
SplineSet
217 296 m 17
 446 132 l 1
 446 388 l 1
 217 296 l 17
664 526 m 13
 564 526 l 25
 564 0 l 1
 446 0 l 1
 104 232 l 1
 104 379 l 1
 446 507 l 9
 446 526 l 1
 -14 526 l 17
 -14 636 l 1
 664 636 l 13
 664 526 l 13
EndSplineSet
EndChar

StartChar: BNGra
Encoding: 137 2480 15
Width: 650
VWidth: 0
GlyphClass: 2
Flags: HW
HStem: -179.752 97.9033<-204.327 -109>
VStem: -204.327 95.3271<-179.752 -81.8486>
LayerCount: 2
Back
Fore
SplineSet
96.052734375 -15 m 6xe0
 96.052734375 75 l 6
 96.052734375 90 104.052734375 100 120.052734375 100 c 6
 208.052734375 100 l 6
 223.052734375 100 231.052734375 89 231.052734375 75 c 6
 231.052734375 -15 l 6
 231.052734375 -30 222.052734375 -38 208.052734375 -38 c 6
 120.052734375 -38 l 6
 106.052734375 -38 96.052734375 -29 96.052734375 -15 c 6xe0
217 296 m 21
 446 132 l 5
 446 388 l 5
 217 296 l 21
664 526 m 13
 564 526 l 29
 564 0 l 5
 446 0 l 5
 104 232 l 5
 104 379 l 5
 446 507 l 13
 446 526 l 5
 -14 526 l 21
 -14 636 l 5
 664 636 l 13
 664 526 l 13
EndSplineSet
EndChar

StartChar: BNGe
Encoding: 107 2447 16
Width: 725
VWidth: 0
GlyphClass: 2
Flags: HW
HStem: -0 72<242.42 416.639> 556 74<399.532 531.126>
VStem: 553 69<152 533.946> 575 47<0 26.7273>
LayerCount: 2
Back
Fore
SplineSet
222 400 m 5xe0
 169 471 l 5
 290 577 391 636 471 636 c 4
 569 636 660 599 660 463 c 6xe0
 660 0 l 5
 575 0 l 5xd0
 553 84 l 21
 553 84 400.524546103 0 306 -0 c 4
 263 -0 190.724609375 5.818359375 136 89 c 4
 111 127 57 260 57 260 c 5
 126 303 l 5
 200 188 l 6
 238.757483004 129.863775494 281 118 309 118 c 4
 399.877929688 118 553 202 553 202 c 5
 553 433 l 5
 553 491 514 516 472 516 c 4
 404.774414062 516 222 400 222 400 c 5xe0
EndSplineSet
EndChar

StartChar: BNGai
Encoding: 108 2448 17
Width: 865
VWidth: 0
GlyphClass: 2
Flags: HW
HStem: -0 72<242.42 416.639> 279 70<622 695.773> 556 74<399.532 531.126>
VStem: 553 69<152 279 349 533.946> 575 47<0 26.7273> 713 64<367.233 632.575>
LayerCount: 2
Back
Fore
SplineSet
660 268 m 13xf4
 660 0 l 1
 575 0 l 1xd0
 553 84 l 17
 553 84 400.524546103 0 306 -0 c 0
 263 -0 190.724609375 5.818359375 136 89 c 0
 111 127 57 260 57 260 c 1
 126 303 l 1
 200 188 l 2
 238.757483004 129.863775494 281 118 309 118 c 0
 399.877929688 118 553 202 553 202 c 1
 553 433 l 1
 553 491 514 516 472 516 c 0
 404.774414062 516 222 400 222 400 c 1xe0
 169 471 l 1
 290 577 391 636 471 636 c 0
 569 636 660 599 660 463 c 2xe0
 660 379 l 21
 700 379 713 395 713 443 c 4
 713 549.432617188 713 739 713 739 c 13
 803 743 l 5
 803 743 817 446.061523438 817 388 c 4
 817 288 738 268 660 268 c 13xf4
EndSplineSet
EndChar

StartChar: BNGnya
Encoding: 120 2462 18
Width: 965
VWidth: 0
GlyphClass: 2
Flags: HW
HStem: -0 72<242.42 416.639> 556 74<399.532 531.126>
VStem: 553 69<152 533.946> 575 47<0 26.7273>
LayerCount: 2
Back
Fore
SplineSet
646 547 m 5
 646 547 738 569 775 569 c 4
 839 569 913 568 913 455 c 6
 913 417 l 6
 913 384 909 337 868 331 c 5
 909 324 912 277 912 244 c 6
 912 193 l 6
 912 81 832.017578125 81 775 81 c 4
 733 81 660 90 660 90 c 13
 660 0 l 1
 575 0 l 1xd0
 553 84 l 17
 553 84 400.524546103 0 306 -0 c 0
 263 -0 190.724609375 5.818359375 136 89 c 0
 111 127 57 260 57 260 c 1
 126 303 l 1
 200 188 l 2
 238.757483004 129.863775494 281 118 309 118 c 0
 399.877929688 118 553 202 553 202 c 1
 553 433 l 1
 553 491 514 516 472 516 c 0
 404.774414062 516 222 400 222 400 c 1xe0
 169 471 l 1
 290 577 391 636 471 636 c 0
 595 636 646 547 646 547 c 5
660 186 m 21
 660 186 734.905273438 186 775 186 c 4
 801 186 821 196 821 228 c 4
 821 266.677734375 805.59765625 278 768 278 c 6
 715 278 l 21
 715 379 l 13
 758 379 l 6
 797.34375 379 811 381.376953125 811 422 c 4
 811 455 792 464 767 464 c 4xee80
 726.35546875 464 660 464 660 464 c 13xf680
 660 186 l 21
EndSplineSet
EndChar

StartChar: BNGtta
Encoding: 121 2463 19
Width: 650
VWidth: 0
GlyphClass: 2
Flags: HW
HStem: 0 71<163.774 274.966> 337 66<269 457.897> 337 58<269 405.344> 575 61<-13 80 147 416 486 620> 708 64<132.908 404.718>
VStem: 80 67<86.6083 574> 416 70<636 696.221> 468 72<241.198 324.635>
LayerCount: 2
Back
Fore
SplineSet
192 526 m 1
 192 526 192 267 192 226 c 0
 192 180.6015625 188 131 232 131 c 0
 267 131 341 167 403 229 c 0
 427.627929688 253.627929688 434 277 434 292 c 0
 434 332 382 337 333 337 c 0
 288 337 279 337 279 337 c 1xdd
 269 433 l 1xbd
 269 433 378 441 413 441 c 0
 521 441 558 370.557617188 558 305 c 0xdd
 558 279 551 244 528 206 c 0
 463.172851562 98.89453125 318 0 218 0 c 0
 153 0 79 37 79 159 c 2
 79 526 l 9
 -14 526 l 1
 -14 636 l 1
 415 636 l 21
 415 679 399 682 351 682 c 4
 265.614257812 682 61 682 61 682 c 13
 57 765 l 5
 57 765 224 779 378 779 c 4
 530 779 536 714 536 636 c 13
 664 636 l 1
 664 526 l 17
 192 526 l 1
EndSplineSet
EndChar

StartChar: BNGddha
Encoding: 124 2466 20
Width: 650
VWidth: 0
GlyphClass: 2
Flags: HW
HStem: 0 71<158.774 269.966> 337 66<264 452.897> 337 58<264 400.344> 575 61<-14 75 142 612>
VStem: 75 67<86.6083 575> 463 72<241.198 324.635>
LayerCount: 2
Back
Fore
SplineSet
664 636 m 1
 664 526 l 17
 192 526 l 1
 192 526 192 267 192 226 c 0
 192 180.6015625 188 131 232 131 c 0
 267 131 341 167 403 229 c 0
 427.627929688 253.627929688 434 277 434 292 c 0
 434 332 382 337 333 337 c 0
 288 337 279 337 279 337 c 1
 269 433 l 1
 269 433 378 441 413 441 c 0
 521 441 558 370.557617188 558 305 c 0
 558 279 551 244 528 206 c 0
 463.172851562 98.89453125 318 0 218 0 c 0
 153 0 79 37 79 159 c 2
 79 526 l 9
 -14 526 l 1
 -14 636 l 1
 664 636 l 1
EndSplineSet
EndChar

StartChar: BNGrha
Encoding: 159 2525 21
Width: 600
VWidth: 0
GlyphClass: 2
Flags: HW
HStem: 0 71<158.774 269.966> 337 66<264 452.897> 337 58<264 400.344> 575 61<-14 75 142 612>
VStem: 75 67<86.6083 575> 463 72<241.198 324.635>
LayerCount: 2
Back
Fore
SplineSet
174 -167 m 6xe0
 174 -77 l 6
 174 -62 182 -52 198 -52 c 6
 286 -52 l 6
 301 -52 309 -63 309 -77 c 6
 309 -167 l 6
 309 -182 300 -190 286 -190 c 6
 198 -190 l 6
 184 -190 174 -181 174 -167 c 6xe0
664 636 m 1
 664 526 l 17
 192 526 l 1
 192 526 192 267 192 226 c 0
 192 180.6015625 188 131 232 131 c 0
 267 131 341 167 403 229 c 0
 427.627929688 253.627929688 434 277 434 292 c 0
 434 332 382 337 333 337 c 0
 288 337 279 337 279 337 c 1
 269 433 l 1
 269 433 378 441 413 441 c 0
 521 441 558 370.557617188 558 305 c 0
 558 279 551 244 528 206 c 0
 463.172851562 98.89453125 318 0 218 0 c 0
 153 0 79 37 79 159 c 2
 79 526 l 9
 -14 526 l 1
 -14 636 l 1
 664 636 l 1
EndSplineSet
EndChar

StartChar: BNGya
Encoding: 136 2479 22
Width: 650
VWidth: 0
GlyphClass: 2
Flags: HW
HStem: 0 21G<-45.5 88.035> 575 61<-501 -372 -340 23 89 196>
VStem: -182.952 88.1683<380.118 431.281> 23 65<82 575>
LayerCount: 2
Back
Fore
SplineSet
251 343 m 0
 267 353 269.723272903 366.803325994 245 382 c 0
 204.79639887 406.711979787 87 481 87 481 c 1
 108 526 l 1
 -10 526 l 1
 -10 636 l 1
 661 636 l 1
 661 526 l 9
 588 526 l 25
 588 0 l 1
 463 0 l 1
 110 185 l 1
 110 269 l 1
 251 343 l 0
395 363 m 0
 395 330.91015625 381 307 351 289 c 0
 287.609461167 250.9656767 265 237 265 237 c 1
 478 122 l 1
 478 526 l 1
 177 526 l 1
 177 526 252.080078125 487.961914062 321 455 c 0
 366.999944848 432.999884682 395 405 395 363 c 0
EndSplineSet
EndChar

StartChar: BNGyya
Encoding: 160 2527 23
Width: 670
VWidth: 0
GlyphClass: 2
Flags: HW
HStem: 0 21G<-45.5 88.035> 575 61<-501 -372 -340 23 89 196>
VStem: -182.952 88.1683<380.118 431.281> 23 65<82 575>
LayerCount: 2
Back
Fore
SplineSet
163 -84 m 6xe0
 163 6 l 6
 163 21 171 31 187 31 c 6
 275 31 l 6
 290 31 298 20 298 6 c 6
 298 -84 l 6
 298 -99 289 -107 275 -107 c 6
 187 -107 l 6
 173 -107 163 -98 163 -84 c 6xe0
251 343 m 0
 267 353 269.723272903 366.803325994 245 382 c 0
 204.79639887 406.711979787 87 481 87 481 c 1
 108 526 l 1
 -10 526 l 1
 -10 636 l 1
 681 636 l 1
 681 526 l 9
 588 526 l 25
 588 0 l 1
 463 0 l 1
 110 185 l 1
 110 269 l 1
 251 343 l 0
395 363 m 0
 395 330.91015625 381 307 351 289 c 0
 287.609461167 250.9656767 265 237 265 237 c 1
 478 122 l 1
 478 526 l 1
 177 526 l 1
 177 526 252.080078125 487.961914062 321 455 c 0
 366.999944848 432.999884682 395 405 395 363 c 0
EndSplineSet
EndChar

StartChar: BNGssa
Encoding: 140 2487 24
Width: 650
VWidth: 0
GlyphClass: 2
Flags: HW
HStem: 0 21G<-45.5 88.035> 575 61<-501 -372 -340 23 89 196>
VStem: -182.952 88.1683<380.118 431.281> 23 65<82 575>
LayerCount: 2
Back
Fore
SplineSet
251 343 m 0
 267 353 269.723272903 366.803325994 245 382 c 0
 204.79639887 406.711979787 87 481 87 481 c 1
 108 526 l 5
 -10 526 l 5
 -10 636 l 5
 661 636 l 5
 661 526 l 13
 588 526 l 29
 588 0 l 5
 463 0 l 5
 110 185 l 1
 110 269 l 1
 251 343 l 0
478 397 m 5
 478 526 l 5
 177 526 l 5
 177 526 261 481 321 453 c 0
 388.988156507 421.27219363 434 397 478 397 c 5
478 297 m 5
 426 297 382.993164062 320 382.993164062 320 c 1
 382.993164062 320 366.52181926 298.313091556 351 289 c 0
 287.609461167 250.9656767 265 237 265 237 c 1
 478 122 l 5
 478 297 l 5
EndSplineSet
EndChar

StartChar: BNGpha
Encoding: 132 2475 25
Width: 900
VWidth: 0
GlyphClass: 2
Flags: HW
HStem: 0 21G<-45.5 88.035> 575 61<-501 -372 -340 23 89 196>
VStem: -182.952 88.1683<380.118 431.281> 23 65<82 575>
LayerCount: 2
Back
Fore
SplineSet
588 390 m 25
 588 0 l 1
 463 0 l 1
 110 185 l 1
 110 269 l 1
 251 343 l 0
 267 353 269.723272903 366.803325994 245 382 c 0
 204.79639887 406.711979787 87 481 87 481 c 1
 108 526 l 1
 -10 526 l 1
 -10 636 l 1
 911 636 l 1
 911 526 l 1
 177 526 l 1
 177 526 252.080078125 487.961914062 321 455 c 0
 366.999944848 432.999884682 395 405 395 363 c 0
 395 330.91015625 381 307 351 289 c 0
 287.609461167 250.9656767 265 237 265 237 c 1
 478 122 l 1
 478 489 l 25
 693 489 l 2
 789 489 848 424 848 351 c 0
 848 329 837.570911184 294.946605956 822 272 c 0
 784 216 715 175 715 175 c 1
 651 229 l 1
 724 300 l 2
 735.381835938 312.827148438 740 327 740 340 c 0
 740 376 709 390 683 390 c 2
 588 390 l 25
EndSplineSet
EndChar

StartChar: BNGgha
Encoding: 114 2456 26
Width: 650
VWidth: 0
GlyphClass: 2
Flags: HW
HStem: 0 21G<424.5 558> 365 60.8091<147.517 307> 575 61<-10 132 178.707 493 558 641>
VStem: 76 65<435.737 519.241> 493 65<78 575>
LayerCount: 2
Back
Fore
SplineSet
210 526 m 1
 210 526 181.002929688 505 181.002929688 487 c 0
 181.002929688 462 224.991210938 453.809570312 297 453.809570312 c 0
 330.087890625 453.809570312 372 454 372 454 c 1
 405 318 l 1
 265 237 l 1
 478 128 l 1
 478 526 l 1
 210 526 l 1
588 526 m 25
 588 0 l 1
 463 0 l 1
 110 185 l 1
 110 269 l 1
 292 365 l 1
 292 365 280.048596317 364.543773669 256.781083444 364.543773669 c 0
 183.844401285 364.543773669 64 366.924804688 64 437 c 0
 64 489 97 526 97 526 c 1
 -10 526 l 1
 -10 636 l 1
 661 636 l 1
 661 526 l 9
 588 526 l 25
EndSplineSet
EndChar

StartChar: BNGbha
Encoding: 134 2477 27
Width: 850
VWidth: 0
GlyphClass: 2
Flags: HW
HStem: 37 75<363.864 504.38> 286 68<371.552 569.472> 340 85<612.14 671.224> 456 60.0979<371.122 500> 456 50<395.025 500> 575 61<-14 860>
VStem: 305 65<356.449 454.844> 692 79<245.224 318.398>
LayerCount: 2
Back
Fore
SplineSet
546 254 m 4
 521 254 433 254 391 254 c 4
 360 254 274 262 274 317 c 0
 274 380 273.389213559 449.414662994 298 473 c 0
 322 496 365.925358749 491.169792832 392.72265625 489.09765625 c 0xd7
 428.892157357 486.30080159 505 475 505 475 c 1x8f
 500 399 l 1
 500 399 443.09765625 399 406 399 c 0
 387 399 381 398 381 372 c 0
 381 354 395 349 411 349 c 0
 436 349 447 349 503 349 c 0xd7
 532.32421875 349 639.469726562 444 657 444 c 0
 699 444 798 300 798 254 c 0
 798 184.56640625 600.98046875 77.95703125 517 32 c 0
 494.583007812 19.732421875 470 12 442 12 c 0
 368 12 300 53 225 128 c 0
 143 210 58 348 58 348 c 1
 125 407 l 1
 305 208 l 2
 356.259765625 151.330078125 385 126 429 126 c 0
 447 126 464.955078125 130.083984375 482 139 c 0
 539.40625 169.028320312 674 242 674 263 c 0
 674 271 647 312 635 312 c 0
 624.374023438 312 574 254 546 254 c 4
860 526 m 1
 -14 526 l 1
 -14 636 l 1
 860 636 l 1
 860 526 l 1
EndSplineSet
EndChar

StartChar: BNGkha
Encoding: 112 2454 28
Width: 740
VWidth: 0
GlyphClass: 2
Flags: HW
HStem: 0 21G<515.5 647> 450.622 62.9746<164.998 297.321> 575 62<647 761>
VStem: 94.1729 62.1426<522.986 578.523> 582 65<82 575>
LayerCount: 2
Back
Fore
SplineSet
375 441 m 1
 360 472 l 0
 360 472 356.666992188 479.26953125 347.666992188 476.134765625 c 0
 338.666992188 473 238.2734375 429.928710938 205.666992188 424 c 0
 161.666992188 416 129.666992188 435 109.666992188 450 c 0
 89.8603515625 464.85546875 65 504 65 545 c 0
 65 589 87 622 120 638 c 0
 144.278320312 649.771484375 212 663 212 663 c 1
 239 597 l 1
 239 597 204.782226562 583.439453125 177 569 c 0
 160.6875 560.521484375 162 527 195 527 c 0
 230.01953125 527 383 598 399 604.794921875 c 0
 415 611.58984375 423.266601562 596 423.266601562 596 c 0
 513 391 l 1
 276 284 l 1
 552 133 l 1
 552 636 l 5
 546 702 l 5
 633 702 l 5
 657 637 l 5
 751 637 l 21
 751 526 l 5
 668 526 l 5
 668 0 l 17
 552 0 l 1
 135 230 l 1
 135 334 l 1
 375 441 l 1
EndSplineSet
EndChar

StartChar: BNGtha
Encoding: 127 2469 29
Width: 740
VWidth: 0
GlyphClass: 2
Flags: HW
HStem: 0 21G<-33.5 105> 533 72.0107<-386.927 -138.391> 575 61<105 187>
VStem: -124 69<415.883 516.928> 40 65<82 575> 40 38<677.684 702>
LayerCount: 2
Back
Fore
SplineSet
135 334 m 1
 135 230 l 1
 552 0 l 1
 668 0 l 9
 668 526 l 1
 751 526 l 1
 751 637 l 9
 657 637 l 1
 633 702 l 1
 546 702 l 1
 552 636 l 1
 552 127 l 1
 286 275 l 1
 286 275 485 348 485 434 c 0
 485 555 437.10546875 605 278 605 c 0
 204 605 127 592 127 592 c 1
 142 502 l 1
 142 502 217 502 275 502 c 0
 376 502 379 489 379 454 c 0
 379 407 135 334 135 334 c 1
EndSplineSet
EndChar

StartChar: BNGca
Encoding: 116 2458 30
Width: 620
VWidth: 0
GlyphClass: 2
Flags: HW
HStem: 0 71<169.774 287.331> 575 61<-10 86 153 631>
VStem: 86 67<86.6083 408 463 574> 473 71<242.424 343.49>
LayerCount: 2
Back
Fore
SplineSet
192 393 m 5
 192 208 l 5
 192 148 192 116 232 116 c 4
 276 116 360 162 417 238 c 4
 441.298828125 270.397460938 447 288 447 307 c 4
 447 343 422.219726562 346 388 353 c 4
 290.258789062 372.993164062 192 393 192 393 c 5
192 488 m 29
 192 488 238.709960938 482.448242188 276 478 c 4
 394.9765625 463.806640625 419.131835938 459.709960938 448 454 c 4
 539 436 563 375.7421875 563 316 c 4
 563 287 552.532226562 249.840820312 541 228 c 4
 475 103 326 0 228 0 c 4
 163 0 80 29 80 159 c 6
 80 526 l 5
 -10 526 l 1
 -10 636 l 1
 631 636 l 1
 631 526 l 1
 192 526 l 21
 192 488 l 29
EndSplineSet
EndChar

StartChar: BNGcha
Encoding: 117 2459 31
Width: 725
VWidth: 0
GlyphClass: 2
Flags: HW
HStem: 174 82<151.064 215.307> 575 61<-14 79 146 682>
VStem: 79 67<259.941 463 516 574> 363 70<344.354 404.797> 528 66<254.791 377.555>
LayerCount: 2
Back
Fore
SplineSet
316 361 m 0
 316 375 310 384 265 395 c 0
 217.492439799 406.61295916 174 416 174 416 c 1
 174 340 l 1
 174 286 195.698425308 277.590835579 223 292 c 0
 259 311 316 342.772460938 316 361 c 0
447 356 m 1
 447 322 434.833007812 300.815429688 392 272 c 0
 342.134765625 238.454101562 243 162 171 162 c 0
 132 162 69 184.000976562 69 268 c 2
 69 526 l 1
 -14 526 l 1
 -14 636 l 1
 736 636 l 1
 736 526 l 1
 174 526 l 1
 174 506 l 1
 174 506 341 479 508 445 c 0
 603.894882379 425.476491013 661 402 661 307 c 0
 661 279 656.454402903 258.56439935 651 228 c 0
 636.754882812 148.17578125 436 96 436 96 c 1
 683 15 l 1
 655 -72 l 1
 655 -72 451 -36 238 42 c 1
 257 142 l 1
 257 142 532 226 548 274 c 0
 552 286 553 298 553 308 c 0
 553 320 546.764648438 325.516601562 508 339 c 0
 485 347 447 356 447 356 c 1
EndSplineSet
EndChar

StartChar: BNGnga
Encoding: 115 2457 32
Width: 750
GlyphClass: 2
Flags: HW
HStem: 3.16211 75.3477<305.991 413.621> 287 70<365.085 568.608> 428 59<366 513.76> 577 57<375.185 515.907>
VStem: 304.912 61.042<341 428 497.002 568.075> 518 55<491.683 573.301> 569.148 68.3691<214.913 282.735>
LayerCount: 2
Back
Fore
SplineSet
349 260 m 1xfa
 349 407 l 17
 349 407 291.275390625 428.262695312 237 456 c 0
 211.892578125 468.831054688 190 480 190 480 c 9
 224 552 l 1
 349 505 l 1
 349 542 349.30078125 580.4140625 375 607 c 0
 398 631 433 637 493 637 c 0
 599 637 653 630 653 529 c 0xfc
 653 464 645 401 568 401 c 2
 449 401 l 1
 449 355 l 1
 449 355 559.420898438 364.42578125 601.482421875 364.42578125 c 0
 672.482421875 364.42578125 714 326.357421875 714 273 c 0
 714 189.42578125 604.621699341 99.1507320224 512 32 c 4
 472 3 436 0 409 0 c 0
 364.99609375 0 284 27 215 115 c 0
 87.6043141402 277.475657328 57 415 57 415 c 1
 130.434570312 444.268554688 l 1
 130.434570312 444.268554688 229.05859375 292.375 281.434570312 213.268554688 c 0
 322 152 368 122 412 122 c 0
 429.959960938 122 451.0625 129.250976562 474.8515625 144 c 0
 538.186523438 183.267578125 581 229.778320312 581 242 c 0
 581 259.133789062 569.8515625 258.778320312 518.8515625 258.778320312 c 0
 489.8515625 258.778320312 419 260 349 260 c 1xfa
449 489 m 1
 511 489 l 2
 543 489 558 490 558 515 c 0
 558 539 549 547 500 547 c 0
 451 547 449 538 449 489 c 1
EndSplineSet
EndChar

StartChar: BNGna
Encoding: 130 2472 33
Width: 645
VWidth: 0
GlyphClass: 2
Flags: W
HStem: 0 21G<488 555> 362.225 70.1726<181.576 330.97> 575 61<-14 488 555 655>
VStem: 89.3553 68.3918<229.747 337.85> 488 67<0 290 363 574>
LayerCount: 2
Back
Fore
SplineSet
462 266 m 5
 462 266 301.787109375 328.225585938 230.708007812 328.225585938 c 4
 179 328.225585938 164 295 177 263 c 4
 193.166697632 223.205051983 293 132 293 132 c 5
 238 54 l 5
 238 54 167 104 120 154 c 4
 89.5650465554 186.377610047 59.390625 237.630859375 59.390625 299.033203125 c 4
 59.390625 338.733398438 76.39453125 375.803710938 105.036132812 401.6015625 c 4
 138.5390625 431.780273438 170.944335938 442 219 442 c 4
 295.987304688 442 462 376 462 376 c 5
 462 526 l 5
 -14 526 l 1
 -14 636 l 1
 655 636 l 1
 655 526 l 1
 568 526 l 5
 568 0 l 5
 462 0 l 5
 462 266 l 5
EndSplineSet
EndChar

StartChar: BNGnna
Encoding: 125 2467 34
Width: 640
VWidth: 0
GlyphClass: 2
Flags: HW
HStem: 0 21G<462 531> 538.592 68.2524<170.512 328.632> 575 61<531 632>
VStem: 77.3553 68.3918<406.747 513.054> 462 69<0 474.527 540 575>
LayerCount: 2
Back
Fore
SplineSet
568 526 m 29xb8
 568 0 l 5
 462 0 l 5
 462 425 l 5
 462 425 326.426757812 500.591796875 222.3359375 500.591796875 c 0
 176.018554688 500.591796875 158 456 178 426 c 0
 191.45971115 405.810433276 287 314 287 314 c 1
 225 245 l 1
 225 245 152 281 100 335 c 0
 69.176476643 367.009043486 54.35546875 406 54.35546875 456.431640625 c 0
 54.35546875 506 78.8259019459 548.327928688 110 571 c 0
 154 603 199.378285507 606.844032712 237.792922667 606.844032712 c 0xd8
 319.974743968 606.844032712 462 540 462 540 c 5
 462 636 l 5
 484 702 l 5
 568 702 l 5
 568 636 l 5
 652 636 l 5
 652 526 l 5
 568 526 l 29xb8
EndSplineSet
EndChar

StartChar: BNGga
Encoding: 113 2455 35
Width: 600
VWidth: 0
GlyphClass: 2
Flags: HW
HStem: 0 21G<400 469> 502 62<368.84 401.617> 549.388 71.3906<122.923 281.654> 575 61<469 572>
VStem: 15.8506 82.9395<446.022 515.932> 220.035 71.0049<258.289 339.419> 401.617 67.3828<0 502 564 575>
LayerCount: 2
Back
Fore
SplineSet
408 460 m 17
 285 493 l 0
 262.241210938 499.090820312 228 510 208 510 c 0
 188.521484375 510 176 478 176 465 c 0
 176 450 233.896484375 431.750976562 264.959960938 421.31640625 c 0
 306.313476562 407.42578125 308 397 322 347 c 0
 325.575195312 334.231445312 338 287.665039062 338 256 c 0
 338 213.31640625 156 120 156 120 c 1
 106 198 l 1
 106 198 219 267.459960938 219 290 c 0
 219 317.006835938 209.856445312 320.4765625 187 330 c 0
 125.75 354.682617188 36.8505859375 383.694335938 36.8505859375 420.177734375 c 0
 36.8505859375 476.376953125 92.9794921875 584.979492188 111 603 c 0
 131 623 155.889648438 625.778320312 181.793945312 625.778320312 c 0xae
 202.184570312 625.778320312 242.1875 614.169921875 256 610 c 0
 362 578 408.837890625 564 408.837890625 564 c 1
 409 617 l 1
 399 702 l 1
 486 702 l 1
 512 636 l 9
 612 636 l 17
 612 526 l 1
 525 526 l 25
 525 0 l 1
 408 0 l 9
 408 460 l 17
EndSplineSet
EndChar

StartChar: BNGpa
Encoding: 131 2474 36
Width: 770
VWidth: 0
GlyphClass: 2
Flags: HW
HStem: 0 21G<554.004 621.598> 549 70<246.602 386.414> 575 61<621.598 709.598>
VStem: 554.004 67.5938<0 384 455 575>
LayerCount: 2
Back
Fore
SplineSet
594 335 m 1
 539 386 l 1
 337 204 l 1
 257 215 l 1
 158 397 l 1
 99 357 l 1
 49 427 l 1
 49 427 142 518 256 588 c 0
 286.547851562 606.7578125 323 622 352 622 c 0xd0
 388 622 414.337890625 610.57421875 437 595 c 0
 509.928710938 544.881835938 594 460 594 460 c 5
 594 636 l 1
 616 702 l 1
 700 702 l 1
 700 636 l 1
 784 636 l 1
 784 526 l 1
 700 526 l 25
 700 0 l 1
 594 0 l 1
 594 335 l 1
454 449 m 1xd0
 454 449 446 458 430 471 c 0
 400.661248272 494.837735779 372 512 344 512 c 0
 316 512 295.837909443 496.756811177 283 487 c 0
 258 468 247 459 247 459 c 1
 318 329 l 1
 454 449 l 1xd0
EndSplineSet
EndChar

StartChar: BNGla
Encoding: 138 2482 37
Width: 770
VWidth: 0
GlyphClass: 2
Flags: HW
HStem: 0 21G<588 655> 384 67<158.219 335.585 445.319 572.813> 575 61<-14 588 655 759>
VStem: 73 65<257.333 364.122> 357 52<206 258.182> 588 67<0 369.076 435 574>
LayerCount: 2
Back
Fore
SplineSet
588 436 m 5
 588 436 563.284179688 454 526 454 c 6
 490 454 l 6
 429 454 413 446 391 403 c 5
 379 444 352 459 293 459 c 6
 191 458 l 6
 121.012695312 457.0546875 52 401 52 314 c 4
 52 181 122 69 122 69 c 5
 210 92 l 5
 210 92 170 229 170 262 c 4
 170 308 181 338 224 338 c 6
 272 338 l 6
 319 338 329.227539062 322.724609375 334 240 c 6
 337 188 l 5
 434 188 l 5
 440 241 l 5
 450.325195312 315.342773438 458.6171875 333 520 333 c 4
 578 333 588 314 588 249 c 4
 588 0 l 1
 694 0 l 1
 694 526 l 1
 781 526 l 1
 781 636 l 1
 -14 636 l 1
 -14 526 l 1
 588 526 l 1
 588 436 l 5
EndSplineSet
EndChar

StartChar: BNGda
Encoding: 128 2470 38
Width: 575
GlyphClass: 2
Flags: HW
HStem: 575.328 61<-11 112.9 179.9 590>
VStem: 112.9 67<332 574.656>
LayerCount: 2
Back
Fore
SplineSet
68 526 m 17
 68.103515625 294.500976562 l 1
 132 212 l 5
 382 324 l 1
 341 -35 l 1
 415 -35 l 1
 466.400390625 66 l 1
 510.900390625 429 l 1
 438.900390625 466.60546875 l 1
 177 359 l 1
 177 526 l 1
 590 526 l 1
 590 636.328125 l 1
 -11 636.328125 l 1
 -11 526 l 1
 68 526 l 17
EndSplineSet
EndChar

StartChar: BNGsha
Encoding: 139 2486 39
Width: 670
VWidth: 0
GlyphClass: 2
Flags: HW
HStem: 0 21G<487 556> 264 66.751<37 184.45 283.794 403.674> 526 69<15.3355 190.982 284.308 476.52> 575 61<556 660>
VStem: 201 71<348.986 511.392> 487 69<0 509.715 572 575 636 661.773> 509 47<691.227 717>
LayerCount: 2
Back
Fore
SplineSet
488 468 m 1
 488 468 414 484 360 484 c 0
 305.770507812 484 293 474 293 421 c 2
 293 403 l 2
 294 374 303.794206464 356.06698853 323 355 c 0
 359 353 402 353 402 353 c 1
 411 260 l 5
 411 260 346 247 307 247 c 4
 263.115234375 247 239 284 239 284 c 5
 239 284 203.973632812 247 154 247 c 4
 115 247 30 252 30 252 c 5
 37 349 l 1
 37 349 104.0859375 349.9609375 136 353 c 0
 155.148758813 354.823468098 181 369 181 399 c 2
 181 424 l 2
 181 468 159 484 133 484 c 0
 98 484 -1 474 -1 474 c 1
 -10 567 l 1
 -10 567 105 595 157 595 c 0
 197 595 223 588 247 558 c 1
 267 588 299 590 342 590 c 0
 378 590 488 571 488 571 c 1
 488 636 l 1
 510 702 l 1
 594 702 l 1
 594 636 l 1
 678 636 l 1
 678 526 l 1
 594 526 l 25
 594 0 l 1
 488 0 l 1
 488 468 l 1
EndSplineSet
EndChar

StartChar: BNGma
Encoding: 135 2478 40
Width: 650
VWidth: 0
GlyphClass: 2
Flags: HW
HStem: 0 21G<-32 33.035> 297 73<-301.991 -228.653> 575 61<-496 -401 -326 -32 34 112>
VStem: -401 71<184.502 264.85> -225 64<357.798 431.023> -32 65<0 230.669 287 575>
LayerCount: 2
Back
Fore
SplineSet
478 282 m 5
 478 526 l 5
 256 526 l 5
 256 526 292.231445312 503.587890625 310 492 c 0
 356 462 385 426 385 384 c 0
 385 370 372 328 372 328 c 1
 478 282 l 5
126 526 m 5
 -10 526 l 5
 -10 636 l 5
 661 636 l 5
 661 526 l 13
 588 526 l 29
 588 0 l 5
 478 0 l 5
 478 188 l 5
 478 188 258.87890625 268 239 268 c 0
 228 268 221.090107094 260.94417135 208 240 c 0
 203 232 195 222 195 209 c 0
 195 200.999516859 204.137695312 194.157226562 211 188 c 0
 249.926757812 153.072265625 288 120 288 120 c 1
 242 57 l 1
 242 57 175.81640625 86.5537109375 129 125 c 0
 108.7734375 141.610351562 78 180 78 206 c 0
 78 229 93.0682398725 262.958082219 118 303 c 0
 151 356 175 380 202 380 c 0
 222 380 258 367 258 367 c 1
 258 367 266 380 266 392 c 0
 266 403 263.755859375 411.84375 246 427 c 0
 202.033203125 464.530273438 126 526 126 526 c 5
EndSplineSet
EndChar

StartChar: BNGsa
Encoding: 141 2488 41
Width: 722
VWidth: 0
GlyphClass: 2
Flags: HW
HStem: 0 21G<550 615.035> 119 75<145.706 233.766> 323 80<378 442.525> 575 61<-9 172 198 550 616 711>
VStem: 550 65<0 274.666 341 575>
LayerCount: 2
Back
Fore
SplineSet
142 526 m 17
 -10 526 l 1
 -10 636 l 1
 733 636 l 1
 733 526 l 9
 650 526 l 25
 650 0 l 1
 540 0 l 1
 540 189 l 1
 540 189 488.155273438 210.006835938 454 222 c 0
 442.956054688 225.877929688 403 240 397 240 c 0
 385 240 380.059570312 237.975585938 365 202 c 0
 329 116 305 76 252 76 c 0
 182 76 64 146 64 146 c 1
 96 233 l 1
 96 233 193.547851562 197 210 197 c 0
 244 197 252 214 282 276 c 0
 286.69140625 285.6953125 300 317 300 335 c 0
 300 361 272.185546875 385.815429688 247 404 c 0
 207.443359375 432.561523438 124 492 124 492 c 9
 142 526 l 17
230 526 m 1
 229 526 278.463867188 499.0625 291 492 c 0
 339.744140625 464.540039062 367.740234375 454.719726562 391 422 c 0
 408.625976562 397.205078125 409 354 409 354 c 1
 421 354 434.192382812 347.528320312 454 340 c 0
 533.100585938 309.935546875 540 307 540 307 c 1
 540 526 l 1
 230 526 l 1
EndSplineSet
EndChar

StartChar: BNGja
Encoding: 118 2460 42
Width: 950
GlyphClass: 2
Flags: HW
HStem: 24.8799 75.2969<357.951 466.021> 291 66<417.081 603.173> 575 62<-15 355 418 958>
VStem: 355 63<345 493 551.756 575> 604.099 71.1387<226.334 287.791> 716 35<-16 7.91089> 790.237 68.2441<306.531 395.602>
LayerCount: 2
Back
Fore
SplineSet
790.518554688 267.977539062 m 4
 804.528320312 317.26953125 786.256835938 346.692382812 737.518554688 360.977539062 c 4
 679.518554688 377.977539062 463 408 463 408 c 5
 463 346 l 5
 463 346 558.6484375 352 601 352 c 4
 669 352 705.237304688 317 705.237304688 260.31640625 c 4
 705.237304688 190.743164062 611.618164062 111.046875 547 53 c 4
 517.8203125 26.697265625 468.412109375 -2.296875 420.502929688 -2.296875 c 4
 373.201171875 -2.296875 295.581320243 23.940604722 216 115 c 4
 112 234 55 416 55 416 c 5
 132 454 l 5
 132 454 231 287 296 199 c 4
 332.514128747 149.565487235 376.06640625 111 413 111 c 4
 430.963867188 111 454.873046875 118.967773438 476.588867188 136.823242188 c 4
 522.266601562 174.380859375 567 215 567 233 c 4
 567 251.233398438 550.264648438 258 523 258 c 4
 494 258 355 258 355 258 c 5
 355 526 l 5
 -15 526 l 1
 -15 637 l 1
 958 637 l 1
 958 526 l 1
 463 526 l 5
 463 499 l 5
 463 499 688.518554688 476.977539062 773.518554688 456.977539062 c 4
 850.142578125 438.948242188 917 413.603515625 917 339 c 4
 917 326.081054688 914.947265625 311.509765625 910.518554688 294.977539062 c 6
 818 -26 l 5
 746 -26 l 5
 739 73 l 5
 739 73 764.561523438 176.65234375 790.518554688 267.977539062 c 4
EndSplineSet
EndChar

StartChar: BNGo
Encoding: 109 2451 43
Width: 725
VWidth: 0
GlyphClass: 2
Flags: HW
HStem: 25 73<335.238 470.405> 346 63<368 510.427> 563 72<253.094 514.101>
VStem: 521 69<414.879 554.233> 572 71<185.206 305.439>
LayerCount: 2
Back
Fore
SplineSet
424 526 m 0xf0
 366.293945312 526 253 526 253 526 c 1
 245 616 l 1
 245 616 335 636 432 636 c 0
 546.003759453 636 616 606 616 546 c 0xf0
 616 530 615.6875 503.8125 614 483 c 4
 611 446 612 390 571 384 c 5
 599 385 671 280.76953125 671 237 c 4
 671 187 584 86 490 33 c 0
 462 17 426 8 402 8 c 0
 345 8 286.498046875 32.3701171875 212 132 c 0
 129 243 63 400 63 400 c 1
 136 442 l 1
 298 208 l 2
 331.948140625 158.963796875 365 123 397 123 c 0
 421 123 456.373046875 148.553710938 472 162 c 0
 515 199 548 234 548 246 c 0xe8
 548 266 493 328 465 328 c 1
 368 328 l 1
 368 429 l 1
 368 429 429.060546875 429 463 429 c 0
 502 429 502.815429688 421.2421875 509 467 c 0
 510.706054688 479.623046875 511 487 511 500 c 0
 511 522 481 526 424 526 c 0xf0
EndSplineSet
EndChar

StartChar: BNGau
Encoding: 110 2452 44
Width: 825
VWidth: 0
GlyphClass: 2
Flags: HW
HStem: 25 73<335.238 470.405> 346 63<368 510.427> 563 72<253.094 514.101>
VStem: 521 69<414.879 554.233> 572 71<185.206 305.439>
LayerCount: 2
Back
Fore
SplineSet
629 332 m 1
 629 332 671 282 671 237 c 0
 671 187 583.693854983 86.5393457045 490 33 c 0
 462 17 426 8 402 8 c 0
 345 8 286.498046875 32.3701171875 212 132 c 0
 129 243 63 400 63 400 c 1
 136 442 l 1
 298 208 l 2
 331.948140625 158.963796875 364 123 397 123 c 0
 421 123 456.373046875 148.553710938 472 162 c 0
 515 199 547 234 547 246 c 0xe8
 547 266 493 328 465 328 c 1
 368 328 l 1
 368 429 l 1
 368 429 429.060546875 429 463 429 c 0
 502 429 504 432 509 467 c 0
 510.801757812 479.609375 511 487 511 500 c 0
 511 522 481 526 424 526 c 0xf0
 366.293945312 526 253 526 253 526 c 1
 245 616 l 1
 245 616 335 636 432 636 c 0
 546.003759453 636 616 606 616 546 c 0xf0
 616 530 615.6875 503.8125 614 483 c 0
 612.60546875 465.795898438 608 429 608 429 c 1
 644 429 652 445 652 493 c 0
 652 599.432617188 652 739 652 739 c 9
 742 743 l 1
 742 743 756 509.061523438 756 451 c 0
 756 351 678 332 629 332 c 1
EndSplineSet
EndChar

StartChar: BNGii
Encoding: 102 2440 45
Width: 780
VWidth: 0
GlyphClass: 2
Flags: HW
HStem: 398 42<675.25 693> 450.313 65.6865<155.719 333.931> 575 61<-14 564 634 791> 708 64<277.792 552.718>
VStem: 336 68<366.649 447.809> 520 42<-64 -16.7692> 564 70<636 696.221>
LayerCount: 2
Back
Fore
SplineSet
575 636 m 17xf0
 575 679 559 682 511 682 c 4
 425.614257812 682 71 682 71 682 c 9
 67 765 l 1
 67 765 319 779 538 779 c 0
 690 779 696 714 696 636 c 9
 798 636 l 5
 798 526 l 29
 -14 526 l 5
 -14 636 l 5
 575 636 l 17xf0
82 363 m 5
 60 441 l 5
 60 441 216 489 285 489 c 4
 337 489 399 469 399 404 c 4
 399 372 373 302 373 302 c 5
 623 447 l 5
 726 447 l 5
 735 371 l 5
 664 343 l 5
 613 -73 l 5
 537 -85 l 5
 512 18 l 5
 550 281 l 5
 170 50 l 5
 126 122 l 5
 215 206 l 5
 258 296 l 6
 271.087144437 323.391697658 284 345 284 361 c 4
 284 383.201171875 271 390.313476562 244.877929688 390.313476562 c 4
 199.552734375 390.313476562 82 363 82 363 c 5
EndSplineSet
EndChar

StartChar: BNGVOCl
Encoding: 106 2444 46
Width: 660
GlyphClass: 2
Flags: HW
HStem: 2 71<359.297 493.885> 250 70<152.422 289.037>
VStem: 75 61<62.085 235.679> 287 68<456.582 542.829> 301 63<75.0336 241.229> 505 69<86.2611 276.18>
LayerCount: 2
Back
Fore
SplineSet
171 63 m 1xec
 74 55 l 1
 74 55 62 135 62 186 c 0
 62 276 101 333 194 333 c 0
 248 333 306.605054503 330.396750677 343 307 c 0
 385 280 388 222 388 177 c 0xec
 388 121.278254043 386 113 386 113 c 1
 386 113 418 111 448 111 c 0
 475.870117188 111 505 131 505 164 c 2
 505 240 l 2
 505 289 278 419 278 486 c 0
 278 526 316.53932153 567.037251976 345 594 c 0
 383 630 437 657 437 657 c 1
 477 585 l 1
 477 585 464.820576 573.208679273 431 544 c 0
 409 525 400 515 400 501 c 0xf4
 400 467 605 342 605 266 c 2
 605 122 l 2
 605 28 504 2 453 2 c 0
 402 2 290 17 290 17 c 1
 290 130 l 2
 290 174 288 199 273 217 c 0
 264 229 243 230 219 230 c 0
 174.553710938 230 169 221.459960938 169 154 c 0
 169 108 171 63 171 63 c 1xec
EndSplineSet
EndChar

StartChar: BNGttha
Encoding: 122 2464 47
Width: 580
GlyphClass: 2
Flags: HW
HStem: -0.148438 74.1484<239.079 318.497> 574.179 61.8213<-14 168 240 593>
VStem: 168 72<534.535 574> 455 73<186.759 263.177>
LayerCount: 2
Back
Fore
SplineSet
282 526 m 1
 282 506 539 316 539 225 c 0
 539 143 311.399414062 -0.1484375 269.408203125 -0.1484375 c 0
 226.784680852 -0.1484375 65 149 65 149 c 1
 65 217 l 1
 65 217 140.806092517 311.972052741 174 352 c 0
 208 393 218 415.7890625 218 438 c 0
 218 468 178 494 158 526 c 1
 -44 526 l 1
 -44 636 l 1
 144 636.328125 l 17
 144 636.328125 145.094726562 659.717773438 170.408203125 687.328125 c 0
 223.961457045 745.740653377 352 838 352 838 c 1
 409.18359375 779.328125 l 1
 409.18359375 779.328125 312.03515625 689.508789062 281.18359375 658.328125 c 0
 270.703125 647.736328125 265 636.328125 265 636.328125 c 9
 634 636 l 1
 634 526 l 1
 282 526 l 1
413 236 m 0
 413 263 294.094726562 364.038085938 294.094726562 364.038085938 c 1
 294.094726562 337.907226562 266.750741026 303.988457981 245 275 c 0
 205.4453125 222.283203125 187 198 187 198 c 1
 187 198 251.616210938 124 277 124 c 0
 294.641601562 124 413 203 413 236 c 0
EndSplineSet
EndChar

StartChar: A
Encoding: 20 65 48
Width: 692
Flags: W
HStem: 0 21G<34 34 34 184.4 528.95 528.95 528.95 678> 0 21G<34 34 34 184.4 528.95 528.95 528.95 678> 162.2 124.05 712 20G<281 440.25 440.25 440.25>
LayerCount: 2
Back
Fore
SplineSet
34 0 m 1xb0
 281 732 l 1
 440.25 732 l 1
 678 0 l 1
 528.950195312 0 l 1
 476.950195312 162.200195312 l 1
 237.200195312 162.200195312 l 1
 184.400390625 0 l 1
 34 0 l 1xb0
273.549804688 286.25 m 1
 443.799804688 286.25 l 1
 361.549804688 547.5 l 1
 273.549804688 286.25 l 1
EndSplineSet
EndChar

StartChar: B
Encoding: 21 66 49
Width: 604
Flags: W
HStem: 0 123.5<201.2 201.2 201.2 365.3> 324 118 608.5 123.5
VStem: 60.75 140.45 431.25 137.8 440.75 140<182.524 248.225>
LayerCount: 2
Back
Fore
SplineSet
60.75 0 m 1xf4
 60.75 732 l 1
 362.549804688 732 l 2
 514.049804688 732 569.049804688 641.599609375 569.049804688 536.5 c 0xf8
 569.049804688 469.099609375 540.349609375 393.19921875 468.799804688 379.999023438 c 1
 529.849609375 368.899414062 580.75 308.099609375 580.75 215 c 0
 580.75 78.900390625 519.299804688 0 365.299804688 0 c 2
 60.75 0 l 1xf4
201.200195312 123.5 m 1
 359.799804688 123.499023438 l 2
 402.299804688 123.499023438 440.75 143.649414062 440.75 221.399414062 c 0xf4
 440.75 275.049804688 419.049804688 324 359.799804688 324 c 2
 201.200195312 324 l 1
 201.200195312 123.5 l 1
201.200195312 441.999023438 m 1
 354.299804688 441.999023438 l 2
 404.549804688 441.999023438 431.25 472.649414062 431.25 524.94921875 c 0xf8
 431.25 592.798828125 389.799804688 608.499023438 354.299804688 608.499023438 c 2
 201.200195312 608.499023438 l 1
 201.200195312 441.999023438 l 1
EndSplineSet
EndChar

StartChar: C
Encoding: 22 67 50
Width: 571
Flags: W
HStem: -6 129 611 129<272.524 342.05 191.25 372.774>
VStem: 41.8 140
LayerCount: 2
Back
Fore
SplineSet
41.7998046875 368 m 0
 41.7998046875 602 91.75 740 290.75 740 c 0
 393.349609375 740 466.94921875 730.200195312 545.749023438 706.75 c 1
 545.749023438 597.150390625 l 2
 544.749023438 597.150390625 421.798828125 611 323.749023438 611 c 0
 221.298828125 611 181.798828125 587.549804688 181.798828125 366 c 0
 181.798828125 202 208.8984375 123 324.298828125 123 c 0
 429.298828125 123 545.749023438 131.099609375 545.749023438 131.099609375 c 1
 545.749023438 21.5 l 1
 480.149414062 1.349609375 395.549804688 -7.650390625 290.75 -6 c 0
 105.75 -4.349609375 41.7998046875 135.950195312 41.7998046875 368 c 0
EndSplineSet
EndChar

StartChar: D
Encoding: 23 68 51
Width: 662
Flags: W
HStem: 0 124.85 608.5 123.5<200.75 360.8 200.75 200.75>
VStem: 60.75 140<124.85 124.85 124.85 608.5> 485.75 140<290.575 453.675 255.25 461.925>
LayerCount: 2
Back
Fore
SplineSet
60.75 0 m 1
 60.75 732 l 1
 371.799804688 732 l 2
 582.5 732 625.75 544.349609375 625.75 363 c 0
 625.75 147.5 550.5 0 371.799804688 0 c 2
 60.75 0 l 1
200.75 124.849609375 m 1
 360.799804688 124.850585938 l 2
 451.549804688 124.850585938 485.75 217.150390625 485.75 364 c 0
 485.75 559.849609375 438.849609375 608.5 360.799804688 608.5 c 2
 200.75 608.5 l 1
 200.75 124.849609375 l 1
EndSplineSet
EndChar

StartChar: E
Encoding: 24 69 52
Width: 567
Flags: W
HStem: -3 131.75 14 114.75 294.95 135.1 304.4 115.1 600.25 115.75 600.25 131.75
VStem: 58 140
LayerCount: 2
Back
Fore
SplineSet
58 143.900390625 m 2x82
 58.0009765625 580 l 2
 58.0009765625 707.025390625 147.965820312 733.350585938 217.000976562 732.000976562 c 2x86
 217.000976562 732.000976562 474.701171875 724.80078125 539.05078125 716.000976562 c 1
 539.05078125 600.250976562 l 1x0a
 250.000976562 600.250976562 l 2
 198.000976562 600.250976562 198.000976562 571.250976562 198.000976562 544.250976562 c 2
 198.000976562 430.05078125 l 1x26
 493.55078125 419.500976562 l 1
 493.55078125 304.401367188 l 1x12
 198.000976562 294.951171875 l 1
 198.000976562 180.750976562 l 2
 198.451171875 127.750976562 231.000976562 128.750976562 260.000976562 128.750976562 c 2xa2
 539.05078125 128.750976562 l 1
 539.05078125 14.0009765625 l 1x42
 482.400390625 6.30078125 227 -2.9990234375 227 -2.9990234375 c 2
 161.71484375 -5.8994140625 58 8.900390625 58 143.900390625 c 2x82
EndSplineSet
EndChar

StartChar: F
Encoding: 25 70 53
Width: 567
Flags: W
HStem: 0 21G<58 58 58 198> 0 21G<58 58 58 198> 294.95 135.1 304.4 115.1 600.25 115.75<250 539.05> 600.25 131.75<217 250 217 539.05>
VStem: 58 140<0 294.95 430.05 544.25>
LayerCount: 2
Back
Fore
SplineSet
58 0 m 1xa2
 58 577.799804688 l 2
 58 697.25 140.264648438 733.900390625 217 732 c 2xa6
 217 732 474.700195312 724.799804688 539.049804688 716 c 1
 539.049804688 600.25 l 1x0a
 250 600.25 l 2
 198 600.25 198 571.25 198 544.25 c 2
 198 430.049804688 l 1x26
 493.549804688 419.5 l 1
 493.549804688 304.400390625 l 1x12
 198 294.950195312 l 1
 198 0 l 1
 58 0 l 1xa2
EndSplineSet
EndChar

StartChar: G
Encoding: 26 71 54
Width: 614
Flags: W
HStem: -5 130.75 303 88.5<330.75 433.3 330.75 330.75> 303 113.5<330.75 515.8> 616.5 123.5<258.475 336.175 181.25 370.95>
VStem: 41.8 140 433.3 140
LayerCount: 2
Back
Fore
SplineSet
41.7998046875 370 m 0xbc
 41.7998046875 582.650390625 81.75 740 280.75 740 c 0
 391.599609375 740 456.5 733.700195312 562.25 707.5 c 1
 562.25 599 l 1
 556.25 599 428.150390625 616.5 313.75 616.5 c 0
 203.200195312 616.5 181.799804688 548.549804688 181.799804688 368 c 0
 181.799804688 177.900390625 203.549804688 126.650390625 307.299804688 125.75 c 0
 375.599609375 125.299804688 433.299804688 171.75 433.299804688 171.75 c 1
 433.299804688 303 l 1xbc
 330.75 303 l 1
 330.75 391.5 l 1xdc
 373.5 409.650390625 432.549804688 416.5 505.299804688 416.5 c 0
 526.299804688 416.5 549.299804688 415.5 573.299804688 413.5 c 1
 573.299804688 0 l 1
 472.75 0 l 1
 435.299804688 49 l 1
 402.799804688 19.2001953125 364.299804688 -2.25 279.799804688 -5 c 0
 72.7998046875 -13.0498046875 41.7998046875 161.299804688 41.7998046875 370 c 0xbc
EndSplineSet
EndChar

StartChar: H
Encoding: 27 72 55
Width: 636
Flags: W
HStem: 0 21G<60.75 60.75 60.75 200.75 451.75 451.75 451.75 591.75> 0 21G<60.75 60.75 60.75 200.75 451.75 451.75 451.75 591.75> 289.5 129<200.75 451.75 200.75 451.75> 712 20G<60.75 200.75 200.75 200.75 451.75 591.75 591.75 591.75>
VStem: 60.75 140<0 289.5 418.5 732> 451.75 140<0 289.5 289.5 289.5 418.5 732 0 732>
LayerCount: 2
Back
Fore
SplineSet
60.75 0 m 1xbc
 60.75 732 l 1
 200.75 732 l 1
 200.75 418.5 l 1
 451.75 418.5 l 1
 451.75 732 l 1
 591.75 732 l 1
 591.75 0 l 1
 451.75 0 l 1
 451.75 289.5 l 1
 200.75 289.5 l 1
 200.75 0 l 1
 60.75 0 l 1xbc
EndSplineSet
EndChar

StartChar: I
Encoding: 28 73 56
Width: 245
Flags: W
HStem: 0 21G<60.75 60.75 60.75 200.75> 0 21G<60.75 60.75 60.75 200.75> 712 20G<60.75 200.75 200.75 200.75>
VStem: 60.75 140<0 732 0 732>
LayerCount: 2
Back
Fore
SplineSet
60.75 0 m 1xb0
 60.75 732 l 1
 200.75 732 l 1
 200.75 0 l 1
 60.75 0 l 1xb0
EndSplineSet
EndChar

StartChar: J
Encoding: 29 74 57
Width: 356
Flags: W
HStem: 712 20G<171.649 311.649 311.649 311.649>
VStem: 171.65 140
LayerCount: 2
Back
Fore
SplineSet
26.75 23.2001953125 m 1
 28.5498046875 132.19921875 l 1
 119.599609375 124.099609375 171.19921875 121.149414062 171.649414062 226.049804688 c 2
 171.649414062 732 l 1
 311.649414062 732 l 1
 311.649414062 165 l 2
 311.649414062 118 308.549804688 50 258.549804688 18 c 0
 205.549804688 -16 78.75 -10.7998046875 26.75 23.2001953125 c 1
EndSplineSet
EndChar

StartChar: K
Encoding: 30 75 58
Width: 628
Flags: W
HStem: 0 21G<60.75 60.75 60.75 196.25 439.601 439.601 439.601 602.751> 0 21G<60.75 60.75 60.75 196.25 439.601 439.601 439.601 602.751> 302.5 123.5<196.25 254.15 196.25 196.25> 712 20G<60.75 195.25 195.25 195.25 439.601 602.751 602.751 602.751>
VStem: 60.75 134.5<426 732 426 732 426 732>
LayerCount: 2
Back
Fore
SplineSet
60.75 0 m 1xb8
 60.75 732 l 1
 195.25 732 l 1
 195.25 426 l 1
 254.150390625 426 l 1
 439.600585938 732 l 1
 602.750976562 732 l 1
 378.80078125 365.349609375 l 1
 602.750976562 0 l 1
 439.600585938 0 l 1
 254.150390625 302.5 l 1
 196.25 302.5 l 1
 196.25 0 l 1
 60.75 0 l 1xb8
EndSplineSet
EndChar

StartChar: L
Encoding: 31 76 59
Width: 539
Flags: W
HStem: 0 129<173.375 513.75 262.75 513.75 262.75 513.75> 712 20G<60.75 200.75 200.75 200.75>
VStem: 60.75 140<154.5 181 181 732>
LayerCount: 2
Back
Fore
SplineSet
60.75 142.5 m 2
 60.75 732 l 1
 200.75 732 l 1
 200.75 181 l 2
 200.75 128 233.75 129 262.75 129 c 2
 513.75 129 l 1
 513.75 0 l 1
 213.25 0 l 2
 133.5 0 60.75 29.5 60.75 142.5 c 2
EndSplineSet
EndChar

StartChar: M
Encoding: 32 77 60
Width: 847
Flags: W
HStem: 0 21G<41.7998 41.7998 41.7998 180.149 345.949 345.949 345.949 502.249 668.149 668.149 668.149 806.499> 0 21G<41.7998 41.7998 41.7998 180.149 345.949 345.949 345.949 502.249 668.149 668.149 668.149 806.499> 712 20G<106.299 300.699 300.699 300.699 543.898 737.849 737.849 737.849>
LayerCount: 2
Back
Fore
SplineSet
41.7998046875 0 m 1xa0
 106.298828125 732 l 1
 300.69921875 732 l 1
 422.548828125 231.900390625 l 1
 543.8984375 732 l 1
 737.848632812 732 l 1
 806.499023438 0 l 1
 668.149414062 -0 l 1
 620.399414062 488.549804688 l 1
 502.249023438 0 l 1
 345.94921875 -0 l 1
 223.44921875 488.549804688 l 1
 180.149414062 0 l 1
 41.7998046875 0 l 1xa0
EndSplineSet
EndChar

StartChar: N
Encoding: 33 78 61
Width: 678
Flags: W
HStem: 0 21G<60.75 60.75 60.75 201.75 493.2 493.2 493.2 633.2> 0 21G<60.75 60.75 60.75 201.75 493.2 493.2 493.2 633.2> 712 20G<60.75 202.75 202.75 202.75 493.2 633.2 633.2 633.2>
VStem: 60.75 141<0 467.5 0 732> 493.2 140
LayerCount: 2
Back
Fore
SplineSet
60.75 0 m 1xb8
 60.75 732 l 1
 202.75 732 l 1
 493.200195312 259 l 1
 493.200195312 732 l 1
 633.200195312 732 l 1
 633.200195312 0 l 1
 493.200195312 0 l 1
 201.75 467.5 l 1
 201.75 0 l 1
 60.75 0 l 1xb8
EndSplineSet
EndChar

StartChar: O
Encoding: 34 79 62
Width: 671
Flags: W
HStem: -4 129<281.55 402.8 281.55 434.05> 608 129<289.925 399.675>
VStem: 49.6 140 497.6 140
LayerCount: 2
Back
Fore
SplineSet
49.599609375 361 m 0
 49.599609375 704 176.049804688 737 344.049804688 737 c 0
 517.049804688 737 637.599609375 704 637.599609375 361 c 0
 637.599609375 38 524.049804688 -4 344.049804688 -4 c 0
 164.049804688 -4 49.599609375 28 49.599609375 361 c 0
189.599609375 361 m 0
 189.599609375 161.200195312 219.049804688 125 344.049804688 125 c 0
 461.549804688 125 497.599609375 163.700195312 497.599609375 361 c 0
 497.599609375 589.049804688 455.299804688 608 344.049804688 608 c 0
 235.799804688 608 189.599609375 594 189.599609375 361 c 0
EndSplineSet
EndChar

StartChar: P
Encoding: 35 80 63
Width: 602
Flags: W
HStem: 0 21G<51.2002 51.2002 51.2002 191.2> 0 21G<51.2002 51.2002 51.2002 191.2> 270.5 123.5 290.5 103.5<191.2 191.2> 607.5 124.5<191.2 354.95 191.2 191.2>
VStem: 51.2 140 428 141
LayerCount: 2
Back
Fore
SplineSet
51.2001953125 0 m 1x9e
 51.2001953125 732 l 1
 365.950195312 732 l 2
 457.600585938 732 569.000976562 703.400390625 569.000976562 506.25 c 0
 569.000976562 282.950195312 449.850585938 266.650390625 365.950195312 270.5 c 0xae
 325.950195312 272.150390625 196.200195312 287.5 191.200195312 290.5 c 1
 191.200195312 0 l 1
 51.2001953125 0 l 1x9e
191.200195312 394 m 1x1e
 354.951171875 393.999023438 l 2x2e
 399.250976562 393.999023438 428.000976562 416.69921875 428.000976562 504.599609375 c 0
 427.100585938 591.049804688 389.950195312 607.5 354.950195312 607.5 c 2
 191.200195312 607.5 l 1
 191.200195312 394 l 1x1e
EndSplineSet
EndChar

StartChar: Q
Encoding: 36 81 64
Width: 671
Flags: W
HStem: -174.25 113<541.949 541.949> -4 129<280.649 343.149> 608 129<289.024 398.774>
VStem: 49.6 140 497.6 140
LayerCount: 2
Back
Fore
SplineSet
49.599609375 361 m 0
 49.599609375 704 173.349609375 737 343.149414062 737 c 0
 516.149414062 737 637.599609375 704 637.599609375 361 c 0
 637.599609375 38 523.149414062 -2.900390625 343.149414062 -4 c 0
 163.149414062 -4 49.599609375 28 49.599609375 361 c 0
189.599609375 361 m 0
 189.599609375 161.200195312 218.149414062 125 343.149414062 125 c 0
 460.649414062 125 497.599609375 163.700195312 497.599609375 361 c 0
 497.599609375 589.049804688 454.399414062 608 343.149414062 608 c 0
 234.899414062 608 189.599609375 594 189.599609375 361 c 0
299.94921875 -33 m 1
 379.44921875 -33 l 1
 410.649414062 -86.349609375 482.849609375 -77.2998046875 541.94921875 -61.25 c 1
 541.94921875 -174.25 l 1
 441.349609375 -196.299804688 307.69921875 -161.049804688 299.94921875 -33 c 1
EndSplineSet
EndChar

StartChar: R
Encoding: 37 82 65
Width: 607
Flags: W
HStem: 0 21G<51.2002 51.2002 51.2002 191.2 435.2 435.2 435.2 592.75> 0 21G<51.2002 51.2002 51.2002 191.2 435.2 435.2 435.2 592.75> 291 110<191.2 357.701> 607.5 124.5<191.751 357.701 191.751 191.751>
VStem: 51.2 140 429.7 141
LayerCount: 2
Back
Fore
SplineSet
51.2001953125 0 m 1xbc
 51.201171875 732 l 1
 371.451171875 732 l 2
 485.701171875 732 570.701171875 678.549804688 570.701171875 503.75 c 0
 570.701171875 322.549804688 494.80078125 301.049804688 454.150390625 288.25 c 1
 592.75 0 l 1
 435.200195312 0 l 1
 314.200195312 277 l 1
 191.200195312 291 l 1
 191.200195312 0 l 1
 51.2001953125 0 l 1xbc
191.750976562 401 m 1
 357.701171875 401 l 2
 406.451171875 401 429.701171875 415.299804688 429.701171875 503.75 c 0
 429.701171875 586.900390625 401.701171875 607.5 357.701171875 607.5 c 2
 191.750976562 607.5 l 1
 191.750976562 401 l 1
EndSplineSet
EndChar

StartChar: S
Encoding: 38 83 66
Width: 590
Flags: W
HStem: -8 129<292.149 348.149 280.6 404.1> 291.75 140<150.35 384.1 268.5 351.1> 609 129
VStem: 49.6 140 417.15 140
LayerCount: 2
Back
Fore
SplineSet
49.599609375 485.75 m 2
 49.599609375 548.999023438 l 2
 49.599609375 693.999023438 135.599609375 736.348632812 247.599609375 737.999023438 c 0
 352.849609375 740.19921875 472.799804688 726.149414062 530.599609375 709.049804688 c 1
 530.599609375 599 l 1
 466.599609375 604.650390625 322.399414062 609 286.099609375 609 c 0
 224.899414062 610.349609375 189.599609375 606.099609375 189.599609375 538 c 2
 189.599609375 502.25 l 2
 189.599609375 444.25 211.799804688 431.75 268.5 431.75 c 2
 384.099609375 431.75 l 2
 527.549804688 431.75 557.149414062 318.650390625 557.149414062 237.75 c 2
 557.149414062 189 l 2
 557.149414062 22.7998046875 453.599609375 -8 354.599609375 -8 c 0
 229.69921875 -8 147.849609375 -0.349609375 72.1494140625 21.9501953125 c 1
 72.1494140625 132 l 1
 112.149414062 128 234.099609375 121 327.099609375 121 c 0
 369.19921875 121 417.149414062 127.950195312 417.149414062 184.049804688 c 2
 417.149414062 223.450195312 l 2
 417.149414062 265.049804688 404.549804688 291.75 351.099609375 291.75 c 2
 238.599609375 291.75 l 2
 62.099609375 291.75 49.599609375 422.099609375 49.599609375 485.75 c 2
EndSplineSet
EndChar

StartChar: T
Encoding: 39 84 67
Width: 593
Flags: W
HStem: 0 21G<228.75 368.75 228.75 228.75> 0 21G<228.75 368.75 228.75 228.75> 603 129<31.25 572.25 31.25 228.75 368.75 368.75 368.75 572.25>
VStem: 228.75 140<0 603 0 603>
LayerCount: 2
Back
Fore
SplineSet
31.25 603 m 1xb0
 31.25 732 l 1
 572.25 732 l 1
 572.25 603 l 1
 368.75 603 l 1
 368.75 0 l 1
 228.75 0 l 1
 228.75 603 l 1
 31.25 603 l 1xb0
EndSplineSet
EndChar

StartChar: U
Encoding: 40 85 68
Width: 664
Flags: W
HStem: -5 129<290.3 389.5 290.3 403.25> 712 20G<60.75 200.75 200.75 200.75 478.75 619.75 619.75 619.75>
VStem: 60.75 140<320 732> 478.75 141<320 732>
LayerCount: 2
Back
Fore
SplineSet
60.75 320 m 2
 60.75 732 l 1
 200.75 732 l 1
 200.75 320 l 2
 200.75 152.650390625 237.849609375 124 342.75 124 c 0
 436.25 124 478.75 158.450195312 478.75 320 c 2
 478.75 732 l 1
 619.75 732 l 1
 619.75 320 l 2
 619.75 -3 463.75 -5 342.75 -5 c 0
 206.75 -5 60.75 -13 60.75 320 c 2
EndSplineSet
EndChar

StartChar: V
Encoding: 41 86 69
Width: 685
Flags: W
HStem: 0 21G<263.5 425.5 263.5 263.5> 0 21G<263.5 425.5 263.5 263.5> 712 20G<34 182.65 182.65 182.65 518.35 667 667 667>
LayerCount: 2
Back
Fore
SplineSet
34 732 m 1xa0
 182.650390625 732 l 1
 345.5 184 l 1
 518.349609375 732 l 1
 667 732 l 1
 425.5 0 l 1
 263.5 0 l 1
 34 732 l 1xa0
EndSplineSet
EndChar

StartChar: W
Encoding: 42 87 70
Width: 992
Flags: W
HStem: 0 21G<263.5 425.5 263.5 263.5 610.9 772.9 610.9 610.9> 0 21G<263.5 425.5 263.5 263.5 610.9 772.9 610.9 610.9> 712 20G<34 182.649 182.649 182.649 476.55 626.55 626.55 626.55 825.75 974.4 974.4 974.4>
LayerCount: 2
Back
Fore
SplineSet
34 732 m 1xa0
 182.649414062 732 l 1
 345.049804688 188.950195312 l 1
 476.549804688 732 l 1
 626.549804688 732 l 1
 575.599609375 543.099609375 l 1
 691.549804688 186.25 l 1
 825.75 732 l 1
 974.400390625 732 l 1
 772.900390625 0 l 1
 610.900390625 0 l 1
 512.400390625 299.75 l 1
 425.5 0 l 1
 263.5 0 l 1
 34 732 l 1xa0
EndSplineSet
EndChar

StartChar: X
Encoding: 43 88 71
Width: 641
Flags: W
HStem: 0 21G<37 191.7 37 37 463 617.7 463 463> 0 21G<37 191.7 37 37 463 617.7 463 463> 712 20G<34 188.7 188.7 188.7 468 622.7 622.7 622.7>
LayerCount: 2
Back
Fore
SplineSet
34 732 m 1xa0
 188.700195312 732 l 1
 327.450195312 482.200195312 l 1
 468 732 l 1
 622.700195312 732 l 1
 402.850585938 366.599609375 l 1
 617.700195312 0 l 1
 463 0 l 1
 327.450195312 246.400390625 l 1
 191.700195312 0 l 1
 37 -0 l 1
 251.5 366.599609375 l 1
 34 732 l 1xa0
EndSplineSet
EndChar

StartChar: Y
Encoding: 44 89 72
Width: 656
Flags: W
HStem: 0 21G<257.1 397.1 257.1 257.1> 0 21G<257.1 397.1 257.1 257.1> 712 20G<34 186.5 186.5 186.5 485.5 638 638 638>
VStem: 257.1 140
LayerCount: 2
Back
Fore
SplineSet
34 732 m 1xb0
 186.5 732 l 1
 329.299804688 381 l 1
 485.5 732 l 1
 638 732 l 1
 397.099609375 227 l 1
 397.099609375 0 l 1
 257.099609375 0 l 1
 257.099609375 227 l 1
 34 732 l 1xb0
EndSplineSet
EndChar

StartChar: Z
Encoding: 45 90 73
Width: 556
Flags: W
HStem: 0 129<26.75 26.75 211.75 530.75> 603 129<26.75 362.25 26.75 530.75 26.75 530.75>
LayerCount: 2
Back
Fore
SplineSet
26.75 0 m 1
 26.75 129 l 1
 362.25 603 l 1
 26.75 603 l 1
 26.75 732 l 1
 530.75 732 l 1
 530.75 603 l 1
 211.75 129 l 1
 530.75 129 l 1
 530.75 0 l 1
 26.75 0 l 1
EndSplineSet
EndChar

StartChar: a
Encoding: 52 97 74
Width: 519
Flags: W
HStem: -6 112.5 430.5 110.5
VStem: 30.1 140 341.65 140
LayerCount: 2
Back
Fore
SplineSet
30.099609375 135.349609375 m 2
 30.1005859375 185.34765625 l 2
 30.1005859375 262.59765625 71.8505859375 330.998046875 185.650390625 330.998046875 c 2
 185.650390625 330.998046875 341.650390625 329.998046875 341.650390625 330.998046875 c 2
 341.650390625 330.998046875 342.650390625 363.998046875 341.650390625 364.998046875 c 0
 341.650390625 421.59765625 315.150390625 430.498046875 270.650390625 430.498046875 c 0
 224.5 430.498046875 91.2998046875 422.198242188 47.6494140625 419.047851562 c 1
 47.6494140625 505.498046875 l 1
 117.549804688 532.6484375 190.599609375 540.548828125 289.599609375 540.999023438 c 0
 403.94921875 541.44921875 481.649414062 501.94921875 481.649414062 370.499023438 c 2
 481.649414062 -0.0009765625 l 1
 371.099609375 -0.0009765625 l 1
 341.649414062 58.4990234375 l 1
 335.799804688 46.94921875 261.25 -7.650390625 180.150390625 -6 c 0
 78 -3.25 30.099609375 66.2998046875 30.099609375 135.349609375 c 2
170.100585938 155.197265625 m 2
 170.100585938 111.046875 194.000976562 106.498046875 219.750976562 106.498046875 c 0
 278.30078125 106.498046875 341.650390625 147.59765625 341.650390625 147.59765625 c 1
 341.650390625 244.947265625 l 1
 213.150390625 234.997070312 l 2
 176.200195312 231.546875 170.100585938 204.197265625 170.100585938 180.997070312 c 2
 170.100585938 155.197265625 l 2
EndSplineSet
EndChar

StartChar: b
Encoding: 53 98 75
Width: 556
Flags: W
HStem: -6 119.65 429.25 109.75<323.551 331.851>
VStem: 45.7 139.1 379.4 140
LayerCount: 2
Back
Fore
SplineSet
45.7001953125 0 m 1
 45.701171875 785 l 1
 184.80078125 785 l 1
 184.80078125 504.5 l 1
 233.400390625 526.650390625 301.05078125 539 346.05078125 539 c 0
 493.201171875 539 519.401367188 428.150390625 519.401367188 263 c 0
 519.401367188 101.950195312 476.750976562 -6 346.05078125 -6 c 0
 283.000976562 -6 218.951171875 26.7998046875 185.80078125 53.5 c 1
 160.850585938 0 l 1
 45.7001953125 0 l 1
185.80078125 146.450195312 m 1
 215.600585938 127.200195312 257.151367188 113.649414062 309.750976562 113.649414062 c 0
 354.951171875 113.649414062 379.401367188 150.049804688 379.401367188 268.5 c 0
 379.401367188 404 353.951171875 429.25 309.750976562 429.25 c 0
 261.350585938 429.25 222.350585938 423.450195312 185.80078125 409.299804688 c 1
 185.80078125 146.450195312 l 1
EndSplineSet
EndChar

StartChar: c
Encoding: 54 99 76
Width: 494
Flags: W
HStem: -5 112.5 423.5 112.5
VStem: 37.9 140
LayerCount: 2
Back
Fore
SplineSet
37.900390625 266 m 0
 37.900390625 484.799804688 110.900390625 536.000976562 212.900390625 536.000976562 c 0
 264.900390625 536.000976562 369.80078125 532.901367188 457.400390625 504.500976562 c 1
 457.400390625 417.500976562 l 1
 457.400390625 417.500976562 361.850585938 423.500976562 272.850585938 423.500976562 c 0
 208.450195312 423.500976562 177.900390625 419.651367188 177.900390625 263.1015625 c 0
 177.900390625 127.151367188 200.850585938 107.500976562 272.850585938 107.500976562 c 0
 364.850585938 107.500976562 464.400390625 116.850585938 464.400390625 116.850585938 c 1
 464.400390625 28.9501953125 l 1
 386.700195312 -10.5498046875 295.900390625 -4 212.900390625 -5 c 0
 113.900390625 -5 37.900390625 46.75 37.900390625 266 c 0
EndSplineSet
EndChar

StartChar: d
Encoding: 55 100 77
Width: 556
Flags: W
HStem: -6 119.65 429.25 109.75<225.452 233.752 137.677 271.752>
VStem: 37.9 140 372.05 139.55
LayerCount: 2
Back
Fore
SplineSet
37.900390625 263 m 0
 37.900390625 432.549804688 64.1015625 539 211.251953125 539 c 0
 256.251953125 539 323.452148438 526.650390625 372.051757812 504.5 c 1
 372.051757812 785 l 1
 511.6015625 785 l 1
 511.6015625 0 l 1
 396.451171875 0 l 1
 371.500976562 53.5 l 1
 338.350585938 26.7998046875 274.30078125 -6 211.250976562 -6 c 0
 80.55078125 -6 37.900390625 97.5498046875 37.900390625 263 c 0
177.901367188 268.5 m 0
 177.901367188 150.049804688 202.352539062 113.650390625 247.552734375 113.650390625 c 0
 300.15234375 113.650390625 341.702148438 127.200195312 371.501953125 146.450195312 c 1
 371.501953125 409.299804688 l 1
 334.952148438 423.450195312 295.952148438 429.25 247.551757812 429.25 c 0
 203.3515625 429.25 177.901367188 404 177.901367188 268.5 c 0
EndSplineSet
EndChar

StartChar: f
Encoding: 57 102 78
Width: 403
Flags: W
HStem: 0 21G<98.2998 238.3 98.2998 98.2998> 0 21G<98.2998 238.3 98.2998 98.2998> 424 90<15.0498 15.0498 15.0498 98.2998> 424 107<15.0498 98.2998 15.0498 98.2998 238.3 358.8> 679.9 106.1
VStem: 98.3 140
LayerCount: 2
Back
Fore
SplineSet
15.0498046875 424 m 1x6c
 15.0498046875 514 l 1x6c
 98.2998046875 531 l 1
 98.2998046875 630 l 2
 98.2998046875 720.849609375 134.849609375 786 254.849609375 786 c 0
 303.849609375 786 345.299804688 779.75 388.799804688 762 c 1
 388.799804688 678.900390625 l 2
 387.799804688 678.900390625 293.299804688 679.900390625 293.299804688 679.900390625 c 2
 237 680.900390625 238.299804688 652.700195312 238.299804688 597 c 2
 238.299804688 531 l 1
 358.799804688 531 l 1
 358.799804688 424 l 1
 238.299804688 424 l 1
 238.299804688 0 l 1x9c
 98.2998046875 0 l 1
 98.2998046875 424 l 1
 15.0498046875 424 l 1x6c
EndSplineSet
EndChar

StartChar: g
Encoding: 58 103 79
Width: 560
Flags: W
HStem: -270 112.5 -14.3 113.05 149 112.5 420.5 112.5
VStem: 35.35 126.25 38.55 140 366.55 140 382.6 139.45
LayerCount: 2
Back
Fore
SplineSet
35.349609375 102.349609375 m 0xf9
 35.349609375 144.149414062 53.900390625 183.399414062 97.1005859375 196.899414062 c 1
 53.1005859375 224.899414062 38.55078125 290.999023438 38.55078125 343.999023438 c 0
 38.55078125 470.999023438 102.900390625 532.999023438 222.55078125 532.999023438 c 2
 545.55078125 532.999023438 l 1
 545.55078125 449.499023438 l 1
 486.55078125 431.499023438 l 1
 495.900390625 409.399414062 506.55078125 391.149414062 506.55078125 327.499023438 c 0xf6
 506.55078125 250.999023438 474.750976562 148.999023438 325.05078125 148.999023438 c 2
 202.05078125 148.999023438 l 2
 186.05078125 148.999023438 161.600585938 148.848632812 161.600585938 125.598632812 c 0
 161.600585938 102.348632812 179.908203125 98.7490234375 202.049804688 98.7490234375 c 2
 365 98.7490234375 l 2
 461.01953125 98.7490234375 522.049804688 48.69921875 522.049804688 -58.5009765625 c 2
 522.049804688 -116.000976562 l 2
 522.049804688 -192.500976562 486.549804688 -270.000976562 355.549804688 -270.000976562 c 2
 205.549804688 -270.000976562 l 2
 111.549804688 -270.000976562 40.0498046875 -221.100585938 40.0498046875 -116.000976562 c 2
 40.0498046875 -48.6005859375 l 1
 86.6494140625 -0.1005859375 l 1
 58.6494140625 15.4990234375 35.349609375 51.69921875 35.349609375 102.349609375 c 0xf9
180.600585938 -98.9501953125 m 2
 180.600585938 -151.600585938 208.5 -157.5 243.5 -157.5 c 2
 326.400390625 -157.5 l 2
 376.600585938 -157.5 382.600585938 -132.75 382.600585938 -101.700195312 c 2
 382.600585938 -62.9501953125 l 2xf1
 382.600585938 -33 370.2578125 -14.7177734375 330.55078125 -14.2998046875 c 2
 222.850585938 -14.2998046875 l 2
 203.374023438 -14.2998046875 180.600585938 -10.7001953125 180.600585938 -10.7001953125 c 1
 180.600585938 -98.9501953125 l 2
178.549804688 344.000976562 m 0xf6
 178.549804688 295.000976562 193.549804688 261.500976562 243.049804688 261.500976562 c 2
 299.25 261.500976562 l 2
 352.299804688 261.500976562 367.450195312 295.901367188 366.549804688 344.000976562 c 0
 365.200195312 399.176757812 347.549804688 420.500976562 298.25 420.500976562 c 2
 244.549804688 420.500976562 l 2
 187.849609375 420.500976562 178.549804688 383.600585938 178.549804688 344.000976562 c 0xf6
EndSplineSet
EndChar

StartChar: h
Encoding: 59 104 80
Width: 550
Flags: W
HStem: 0 21G<45.7002 45.7002 45.7002 185.7 372.7 372.7 372.7 512.7> 0 21G<45.7002 45.7002 45.7002 185.7 372.7 372.7 372.7 512.7> 427.5 112.5<313.7 331.8> 762.9 20G
VStem: 45.7 140 372.7 140
LayerCount: 2
Back
Fore
SplineSet
45.7001953125 0 m 1xbc
 45.7001953125 782.900390625 l 1
 185.150390625 782.900390625 l 1
 185.150390625 474.5 l 1
 229.100585938 506.200195312 273.200195312 540 354.200195312 540 c 0
 477.799804688 540 512.700195312 454.700195312 512.700195312 353.5 c 2
 512.700195312 0 l 1
 372.700195312 0 l 1
 372.700195312 355.700195312 l 2
 372.700195312 408.5 349.549804688 427.5 314.049804688 427.5 c 0
 257.700195312 427.5 226.950195312 413 185.700195312 381.5 c 1
 185.700195312 0 l 1
 45.7001953125 0 l 1xbc
EndSplineSet
EndChar

StartChar: i
Encoding: 60 105 81
Width: 227
Flags: W
HStem: 0 21G<42.9502 42.9502 42.9502 182.95> 0 21G<42.9502 42.9502 42.9502 182.95> 511 20G<42.9502 182.95 182.95 182.95> 586.85 136.65
VStem: 42.95 140
LayerCount: 2
Back
Fore
SplineSet
37.900390625 609.849609375 m 2x38
 37.900390625 698.5 l 2
 37.900390625 713.5 45.900390625 723.5 61.900390625 723.5 c 2
 166.900390625 723.5 l 2
 181.900390625 723.5 189.350585938 712.5 189.350585938 698.5 c 2
 189.350585938 609.849609375 l 2
 189.350585938 594.849609375 180.900390625 586.849609375 166.900390625 586.849609375 c 2
 61.900390625 586.849609375 l 2
 47.900390625 586.849609375 37.900390625 595.849609375 37.900390625 609.849609375 c 2x38
42.9501953125 0 m 1xb8
 42.9501953125 531 l 1
 182.950195312 531 l 1
 182.950195312 0 l 1
 42.9501953125 0 l 1xb8
EndSplineSet
EndChar

StartChar: j
Encoding: 61 106 82
Width: 242
Flags: W
HStem: 511 20G<51.75 191.75 191.75 191.75> 586.85 136.65
VStem: 51.75 103<-270 531> 51.75 140<-4 531 -4 531 -4 531>
LayerCount: 2
Back
Fore
SplineSet
45.7001953125 609.849609375 m 2xc0
 45.7001953125 698.5 l 2
 45.7001953125 713.5 53.7001953125 723.5 69.7001953125 723.5 c 2
 174.700195312 723.5 l 2
 189.700195312 723.5 197.700195312 712.5 197.700195312 698.5 c 2
 197.700195312 609.849609375 l 2
 197.700195312 594.849609375 188.700195312 586.849609375 174.700195312 586.849609375 c 2
 69.7001953125 586.849609375 l 2
 55.7001953125 586.849609375 45.7001953125 595.849609375 45.7001953125 609.849609375 c 2xc0
51.75 -270 m 1xe0
 51.75 531 l 1
 191.75 531 l 1
 191.75 -4 l 2xd0
 192.75 -90 190.75 -191.099609375 154.75 -270 c 1
 51.75 -270 l 1xe0
EndSplineSet
EndChar

StartChar: k
Encoding: 62 107 83
Width: 557
Flags: W
HStem: 0 21G<45.7002 45.7002 45.7002 185.7 376.45 376.45 376.45 542.7> 0 21G<45.7002 45.7002 45.7002 185.7 376.45 376.45 376.45 542.7> 511 20G<365.45 542.7 542.7 542.7> 762 20G<45.7002 185.7 185.7 185.7>
VStem: 45.7 140
LayerCount: 2
Back
Fore
SplineSet
45.7001953125 0 m 1xb8
 45.7001953125 782 l 1
 185.700195312 782 l 1
 185.700195312 353 l 1
 214.700195312 353 l 1
 365.450195312 531 l 1
 542.700195312 531 l 1
 343.549804688 299.5 l 1
 542.700195312 0 l 1
 376.450195312 0 l 1
 214.700195312 246 l 1
 185.700195312 246 l 1
 185.700195312 0 l 1
 45.7001953125 0 l 1xb8
EndSplineSet
EndChar

StartChar: l
Encoding: 63 108 84
Width: 313
Flags: W
HStem: 0 86<295.2 298.7 295.2 298.7> 763 20G<45.7002 185.7 185.7 185.7>
VStem: 45.7 140
LayerCount: 2
Back
Fore
SplineSet
45.7001953125 189 m 2
 45.7001953125 783 l 1
 185.700195312 783 l 1
 185.700195312 211 l 2
 185.700195312 133.900390625 204.299804688 117.200195312 231.700195312 107 c 2
 231.700195312 107 291.700195312 86 298.700195312 86 c 1
 298.700195312 0 l 1
 183.200195312 0 l 2
 96.2998046875 0 45.7001953125 48 45.7001953125 189 c 2
EndSplineSet
EndChar

StartChar: m
Encoding: 64 109 85
Width: 875
Flags: W
HStem: 0 21G<45.7002 45.7002 45.7002 185.7> 0 21G<45.7002 45.7002 45.7002 185.7> 426.15 112.5 511 20G
VStem: 45.7 140 370 140<-0.000976562 352.599 -0.000976562 353.899 -0.000976562 378.725> 698.1 140
LayerCount: 2
Back
Fore
SplineSet
45.7001953125 0 m 1xae
 45.701171875 530.999023438 l 1
 158.201171875 530.999023438 l 1x9e
 185.701171875 473.598632812 l 1
 232.951171875 507.499023438 270.951171875 538.649414062 351.05078125 538.649414062 c 0
 418.80078125 538.649414062 466.80078125 512.94921875 488.701171875 469.999023438 c 1
 536.30078125 504.749023438 597.201171875 538.649414062 679.6015625 538.649414062 c 0
 796.901367188 538.649414062 838.1015625 459.19921875 838.1015625 351.69921875 c 2
 838.1015625 -0.0009765625 l 1
 698.1015625 -0.0009765625 l 1
 698.1015625 353.899414062 l 2
 698.1015625 403.549804688 674.951171875 426.149414062 639.451171875 426.149414062 c 0
 585.750976562 426.149414062 546.850585938 415.899414062 509.450195312 384.44921875 c 0
 509.450195312 380.048828125 510 357.548828125 510 352.598632812 c 2
 510 -0.0009765625 l 1
 370 -0.0009765625 l 1
 370 353.899414062 l 2
 370 403.549804688 346.400390625 426.149414062 310.900390625 426.149414062 c 0
 255.900390625 426.149414062 226.950195312 412.099609375 185.700195312 380.599609375 c 1
 185.700195312 0 l 1
 45.7001953125 0 l 1xae
EndSplineSet
EndChar

StartChar: n
Encoding: 65 110 86
Width: 550
Flags: W
HStem: 0 21G<45.7002 45.7002 45.7002 185.7 372.699 372.699 372.699 512.699> 0 21G<45.7002 45.7002 45.7002 185.7 372.699 372.699 372.699 512.699> 427.5 112.5<313.699 331.575> 511 20G<45.6992 158.199 158.199 158.199>
VStem: 45.7 140 372.7 140
LayerCount: 2
Back
Fore
SplineSet
45.7001953125 0 m 1xac
 45.69921875 531 l 1
 158.19921875 531 l 1x9c
 185.69921875 474.5 l 1
 231.298828125 507.299804688 273.19921875 540 354.19921875 540 c 0
 477.798828125 540 512.69921875 454.700195312 512.69921875 353.5 c 2
 512.69921875 0 l 1
 372.69921875 0 l 1
 372.69921875 355.700195312 l 2
 372.69921875 408.5 349.099609375 427.5 314.049804688 427.5 c 0
 257.700195312 427.5 226.950195312 413 185.700195312 381.5 c 1
 185.700195312 0 l 1
 45.7001953125 0 l 1xac
EndSplineSet
EndChar

StartChar: o
Encoding: 66 111 87
Width: 560
Flags: W
HStem: -5 112.5<242.95 319.575 242.95 372.95> 423.5 112.5<238.726 321.875>
VStem: 37.9 140 382.4 140
LayerCount: 2
Back
Fore
SplineSet
37.900390625 258 m 0
 37.900390625 475 100.650390625 536 280.150390625 536 c 0
 463 536 522.400390625 469 522.400390625 258 c 0
 522.400390625 61 465.75 -5 280.150390625 -5 c 0
 96.75 -5 37.900390625 68 37.900390625 258 c 0
177.900390625 258 m 0
 177.900390625 120.599609375 205.75 107.5 280.150390625 107.5 c 0
 359 107.5 382.400390625 118.200195312 382.400390625 258 c 0
 382.400390625 406.75 363.600585938 423.5 280.150390625 423.5 c 0
 197.30078125 423.5 177.900390625 406.650390625 177.900390625 258 c 0
EndSplineSet
EndChar

StartChar: p
Encoding: 67 112 88
Width: 556
Flags: W
HStem: -8 109.75 417.35 119.65
VStem: 45.7 139.1 379.4 140
LayerCount: 2
Back
Fore
SplineSet
45.7001953125 -270 m 1
 45.69921875 531 l 1
 160.849609375 531 l 1
 185.349609375 477.5 l 1
 218.5 504.200195312 283 537 346.049804688 537 c 0
 476.75 537 519.400390625 427.400390625 519.400390625 268 c 0
 519.400390625 114.400390625 493.200195312 -8 346.049804688 -8 c 0
 301.049804688 -8 233.399414062 4.349609375 184.799804688 26.5 c 1
 184.799804688 -270 l 1
 45.7001953125 -270 l 1
185.349609375 121.700195312 m 1
 221.899414062 107.549804688 261.348632812 101.749023438 309.749023438 101.749023438 c 0
 353.94921875 101.749023438 379.399414062 126.999023438 379.399414062 262.499023438 c 0
 379.399414062 380.94921875 354.94921875 417.349609375 309.749023438 417.349609375 c 0
 257.149414062 417.349609375 215.149414062 403.799804688 185.349609375 384.549804688 c 1
 185.349609375 121.700195312 l 1
EndSplineSet
EndChar

StartChar: q
Encoding: 68 113 89
Width: 555
Flags: W
HStem: -10 110.3 430 107
VStem: 37.9 140 369.85 140
LayerCount: 2
Back
Fore
SplineSet
37.900390625 268 m 0
 37.900390625 453.599609375 107.350585938 537 232.350585938 537 c 0
 338.350585938 537 459.000976562 520.75 509.850585938 506.849609375 c 1
 509.850585938 -270 l 1
 369.850585938 -270 l 1
 369.850585938 29 l 1
 328.950195312 1.349609375 277.350585938 -10 232.350585938 -10 c 0
 79.3505859375 -10 37.900390625 91.2998046875 37.900390625 268 c 0
177.900390625 271.849609375 m 0
 177.900390625 171.099609375 178.850585938 100.298828125 258.750976562 100.298828125 c 0
 303.05078125 100.298828125 325.900390625 104.298828125 369.850585938 121.999023438 c 1
 369.850585938 429.999023438 l 1
 259.850585938 429.999023438 l 2
 179.80078125 429.999023438 177.900390625 333.19921875 177.900390625 271.849609375 c 0
EndSplineSet
EndChar

StartChar: r
Encoding: 69 114 90
Width: 417
Flags: W
HStem: 0 21G<45.7002 45.7002 45.7002 185.7> 0 21G<45.7002 45.7002 45.7002 185.7> 397.65 138.8
VStem: 45.7 140
LayerCount: 2
Back
Fore
SplineSet
45.7001953125 0 m 1xb0
 45.7001953125 531.001953125 l 1
 163.700195312 531.001953125 l 1
 185.700195312 464.001953125 l 1
 222.5 499.551757812 272 536.452148438 338.049804688 536.452148438 c 0
 361 536.452148438 383 535.551757812 397.200195312 530.1015625 c 1
 397.200195312 394.951171875 l 1
 383 396.30078125 350.549804688 397.650390625 320.450195312 397.650390625 c 0
 262.450195312 397.650390625 220.350585938 388.200195312 185.700195312 338.549804688 c 1
 185.700195312 0 l 1
 45.7001953125 0 l 1xb0
EndSplineSet
EndChar

StartChar: s
Encoding: 70 115 91
Width: 508
Flags: W
HStem: -5 116.35 204.45 121.3 420.65 115.35
VStem: 30.1 140 338.1 140
LayerCount: 2
Back
Fore
SplineSet
30.099609375 347 m 2
 30.1015625 393.000976562 l 2
 30.1015625 475.000976562 65.1015625 536.000976562 168.1015625 536.000976562 c 0
 270.151367188 536.000976562 410.651367188 532.701171875 451.651367188 509.000976562 c 1
 451.651367188 420.651367188 l 1
 211.000976562 420.651367188 l 2
 175.05078125 420.651367188 170.100585938 409.401367188 170.100585938 384.201171875 c 2
 170.100585938 360.201171875 l 2
 170.100585938 326.651367188 187.750976562 325.750976562 211.000976562 325.750976562 c 2
 337.100585938 325.750976562 l 2
 438.400390625 325.750976562 478.100585938 265.701171875 478.100585938 188.500976562 c 2
 478.100585938 134.000976562 l 2
 478.100585938 25.0009765625 412.100585938 -4.9990234375 348.100585938 -4.9990234375 c 0
 247.400390625 -4.9990234375 89 -0.44921875 52.099609375 23.900390625 c 1
 52.099609375 111.350585938 l 1
 303 111.350585938 l 2
 312.349609375 111.350585938 338.099609375 112.500976562 338.099609375 145.000976562 c 2
 338.099609375 169.80078125 l 2
 338.099609375 192.150390625 331.599609375 204.450195312 303 204.450195312 c 2
 179.099609375 204.450195312 l 2
 85.099609375 204.450195312 30.099609375 244 30.099609375 347 c 2
EndSplineSet
EndChar

StartChar: t
Encoding: 71 116 92
Width: 381
Flags: W
HStem: -0.100006 86 425 107
VStem: 100.85 140
LayerCount: 2
Back
Fore
SplineSet
15.0498046875 425 m 1
 15.0498046875 503.000976562 l 1
 100.849609375 532.000976562 l 1
 124.349609375 680.000976562 l 1
 240.849609375 680.000976562 l 1
 240.849609375 532.000976562 l 1
 359.549804688 532.000976562 l 1
 359.549804688 425.000976562 l 1
 240.849609375 425.000976562 l 1
 240.849609375 212.000976562 l 2
 240.849609375 133.80078125 258.899414062 117.100585938 286.299804688 106.900390625 c 2
 286.299804688 106.900390625 346.299804688 85.900390625 353.299804688 85.900390625 c 1
 353.299804688 -0.099609375 l 1
 231.200195312 -0.099609375 l 2
 152.549804688 -0.099609375 100.849609375 49 100.849609375 190 c 2
 100.849609375 425 l 1
 15.0498046875 425 l 1
EndSplineSet
EndChar

StartChar: u
Encoding: 72 117 93
Width: 550
Flags: W
HStem: -9 112.5<219.026 236.9> 0 21G<392.4 504.9 392.4 392.4> 0 21G<392.4 504.9 392.4 392.4> 511 20G<37.9014 177.901 177.901 177.901 364.9 504.9 504.9 504.9>
VStem: 37.9 140 364.9 140
LayerCount: 2
Back
Fore
SplineSet
37.900390625 177.5 m 2x9c
 37.9013671875 531 l 1
 177.901367188 531 l 1
 177.901367188 175.299804688 l 2
 177.901367188 122.5 201.500976562 103.5 236.55078125 103.5 c 0x9c
 292.900390625 103.5 323.650390625 118 364.900390625 149.5 c 1
 364.900390625 531 l 1
 504.900390625 531 l 1
 504.900390625 0 l 1
 392.400390625 0 l 1x5c
 364.900390625 56.5 l 1
 312.150390625 24.7998046875 277.400390625 -9 196.400390625 -9 c 0
 72.80078125 -9 37.900390625 76.2998046875 37.900390625 177.5 c 2x9c
EndSplineSet
EndChar

StartChar: v
Encoding: 73 118 94
Width: 564
Flags: W
HStem: 0 21G<200.399 356.899 200.399 200.399> 0 21G<200.399 356.899 200.399 200.399> 511 20G<15.0498 164.8 164.8 164.8 400.35 549.55 549.55 549.55>
LayerCount: 2
Back
Fore
SplineSet
15.0498046875 531 m 1xa0
 164.799804688 531 l 1
 280.75 164 l 1
 400.349609375 531 l 1
 549.549804688 531 l 1
 356.899414062 0 l 1
 200.399414062 0 l 1
 15.0498046875 531 l 1xa0
EndSplineSet
EndChar

StartChar: w
Encoding: 74 119 95
Width: 826
Flags: W
HStem: 0 21G<184.899 344.1 184.899 184.899 483.649 640.149 483.649 483.649> 0 21G<184.899 344.1 184.899 184.899 483.649 640.149 483.649 483.649> 511 20G<15.0498 164.8 164.8 164.8 366.3 505.7 505.7 505.7 661.5 811.8 811.8 811.8>
LayerCount: 2
Back
Fore
SplineSet
15.0498046875 531 m 1xa0
 164.799804688 531 l 1
 271.200195312 164 l 1
 366.299804688 531 l 1
 505.700195312 531 l 1
 468.75 387.950195312 l 1
 556.700195312 164 l 1
 661.5 531 l 1
 811.799804688 531 l 1
 640.149414062 0 l 1
 483.649414062 -0 l 1
 404.149414062 192.349609375 l 1
 344.099609375 0 l 1
 184.899414062 0 l 1
 15.0498046875 531 l 1xa0
EndSplineSet
EndChar

StartChar: x
Encoding: 75 120 96
Width: 572
Flags: W
HStem: 0 21G<18.5 18.5 18.5 187.5 384.9 384.9 384.9 545.9> 0 21G<18.5 18.5 18.5 187.5 384.9 384.9 384.9 545.9> 511 20G<18.5 187.5 187.5 187.5 384.9 553.9 553.9 553.9>
LayerCount: 2
Back
Fore
SplineSet
18.5 0 m 1xa0
 201.700195312 266 l 1
 18.5 531 l 1
 187.5 531 l 1
 284.75 372.099609375 l 1
 384.900390625 531 l 1
 553.900390625 531 l 1
 368.150390625 263 l 1
 545.900390625 0 l 1
 384.900390625 0 l 1
 286.200195312 157.450195312 l 1
 187.5 0 l 1
 18.5 0 l 1xa0
EndSplineSet
EndChar

StartChar: y
Encoding: 76 121 97
Width: 578
Flags: W
HStem: 511 20G<16.0498 163.051 163.051 163.051 414.35 560.05 560.05 560.05>
LayerCount: 2
Back
Fore
SplineSet
16.0498046875 531 m 1
 163.05078125 531 l 1
 254.650390625 159.450195312 l 2
 266.05078125 116.75 299.650390625 121 308 120.450195312 c 1
 414.349609375 531 l 1
 560.049804688 531 l 1
 376.099609375 -168 l 1
 303.299804688 -270 l 1
 203.399414062 -270 l 1
 278.149414062 0 l 1
 204.349609375 0 146.049804688 37.2001953125 120.200195312 135.299804688 c 2
 16.0498046875 531 l 1
EndSplineSet
EndChar

StartChar: z
Encoding: 77 122 98
Width: 474
Flags: W
HStem: 1 118<224.5 451.85 224.5 451.85> 413 118<22.8496 451.85 22.8496 276.25 22.8496 451.85>
LayerCount: 2
Back
Fore
SplineSet
22.849609375 413 m 1
 22.849609375 531 l 1
 451.849609375 531 l 1
 451.849609375 413 l 1
 224.5 119 l 1
 451.849609375 119 l 2
 452.849609375 118 451.849609375 1 451.849609375 1 c 1
 37.849609375 1 l 1
 37.849609375 117.900390625 l 1
 276.25 413 l 1
 22.849609375 413 l 1
EndSplineSet
EndChar

StartChar: VOWSIGaa
Encoding: 144 2494 99
Width: 320
VWidth: 0
GlyphClass: 2
Flags: HW
HStem: 0 21G<-783 -714> 575 61<-878 -852 -714 -622>
VStem: -783 69<0 575>
LayerCount: 2
Back
Fore
SplineSet
46 636.328125 m 21
 118 628 l 5
 114 702 l 5
 190 702 l 5
 213 636 l 13
 331 636 l 21
 331 526 l 5
 224 526 l 29
 224 0 l 5
 115 0 l 5
 115 526 l 5
 -13 526 l 29
 -13 636.298828125 l 29
 46 636.328125 l 21
EndSplineSet
EndChar

StartChar: VOWSIGi
Encoding: 145 2495 100
Width: 320
VWidth: 0
GlyphClass: 2
Flags: HW
HStem: 0 21G<96 165> 575 61<-12 82.25 165 244> 726 34<660.181 697.471> 813.1 66.3999<144.906 341.066>
VStem: 62 73<640.731 800.62> 96 69<0 575>
LayerCount: 2
Back
Fore
SplineSet
216 636 m 9
 331 636 l 1
 331 526 l 1
 224 526 l 25
 224 0 l 1
 115 0 l 1
 115 526 l 1
 -13 526 l 25
 -13 636.298828125 l 25
 46 636.328125 l 17
 111 628 l 1
 84 646 81 680 81 704 c 2
 81 764 l 2
 81 851.026367188 129.84375 879.5 207.3125 879.5 c 0
 270.4921875 879.5 359.560546875 859.922851562 450 839 c 0
 584 808 733 764 733 764 c 1
 711 683 l 1
 338 756 l 2
 338 756 270.708984375 770 245 770 c 0
 207.466796875 770 195 766.104492188 195 734 c 2
 195 706 l 2xf8
 195 670 191 649 216 636 c 9
EndSplineSet
EndChar

StartChar: VOWSIGii
Encoding: 146 2496 101
Width: 320
VWidth: 0
GlyphClass: 2
Flags: HW
HStem: 0 21G<73 142> 575 61<-19 73 151.5 251> 680 60<-471.719 -195.861> 844 69<-294.449 10.6025>
VStem: -535 58<746.981 829.942> -193 63<635 673.36> 73 69<0 575 636 760.272>
LayerCount: 2
Back
Fore
SplineSet
167 628 m 1
 240 636.328125 l 9
 299 636.298828125 l 25
 299 526 l 25
 171 526 l 1
 171 0 l 1
 62 0 l 1
 62 526 l 25
 -45 526 l 1
 -45 636 l 9
 60 636 l 1
 60 703 47 820 -59 820 c 0
 -151 820 -352 811 -380 809 c 4
 -428 806 -436 805 -436 783 c 4
 -436 763 -421 763 -273 763 c 0
 -113 763 -100 740 -100 635 c 9
 -207 635 l 17
 -207 680 -214 680 -333 680 c 0
 -525 680 -535 685 -535 783 c 0
 -535 882 -512 889 -422 894 c 2
 -422 894 -101.501953125 913 -50 913 c 0
 146 913 167 751 167 628 c 1
EndSplineSet
EndChar

StartChar: VOWSIGe
Encoding: 151 2503 102
Width: 350
VWidth: 0
GlyphClass: 2
Flags: HW
HStem: 575 61<-14 144 214 283>
VStem: 60.0088 71.0781<142.141 356.348>
LayerCount: 2
Back
Fore
SplineSet
260 526 m 1
 260 526 177.086914062 291 177.086914062 217.426757812 c 0
 177.086914062 174.400390625 180.504629895 156.685513931 234.513671875 125.704101562 c 2
 363 52 l 1
 327.78515625 -28.4794921875 l 1
 327.78515625 -28.4794921875 196.778320312 17.8046875 158.08203125 41.439453125 c 0
 80.2683462705 87.333071612 60.0087890625 132 60.0087890625 205.8984375 c 0
 60.0087890625 307.052622933 144 526 144 526 c 9
 -14 526 l 25
 -14 636 l 1
 363 636 l 1
 363 526 l 1
 260 526 l 1
EndSplineSet
EndChar

StartChar: VOWSIGai
Encoding: 152 2504 103
Width: 325
VWidth: 0
GlyphClass: 2
Flags: HW
HStem: 575 61<-14 144 214 283>
VStem: 60.0088 71.0781<142.141 356.348>
LayerCount: 2
Back
Fore
SplineSet
277 636 m 17
 277 714.328125 251 779.328125 149 779.328125 c 0
 89.28125 779.328125 -162 765.328125 -162 765.328125 c 1
 -158 682.328125 l 17
 -158 682.328125 6.6142578125 682.328125 92 682.328125 c 0
 140 682.328125 156 679.328125 156 636 c 9
 -14 636 l 1
 -14 526 l 25
 144 526 l 17
 144 526 60.0087890625 307.052622933 60.0087890625 205.8984375 c 0
 60.0087890625 132 80.2683462705 87.333071612 158.08203125 41.439453125 c 0
 196.778320312 17.8046875 327.78515625 -28.4794921875 327.78515625 -28.4794921875 c 1
 363 52 l 1
 234.513671875 125.704101562 l 2
 180.504629895 156.685513931 177.086914062 174.400390625 177.086914062 217.426757812 c 0
 177.086914062 291 260 526 260 526 c 1
 363 526 l 1
 363 636 l 1
 277 636 l 17
EndSplineSet
EndChar

StartChar: LNGTHau
Encoding: 157 2519 106
Width: 320
VWidth: 0
GlyphClass: 2
Flags: HW
HStem: 0 21G<-783 -714> 575 61<-878 -852 -714 -622>
VStem: -783 69<0 575>
LayerCount: 2
Back
Fore
SplineSet
239 636 m 9xf0
 331 636 l 1
 331 526 l 1
 224 526 l 25
 224 0 l 1
 115 0 l 1
 115 526 l 1
 -13 526 l 25
 -13 636.298828125 l 25
 46 636.328125 l 17
 118 628 l 1
 118 677 105 679 57 679 c 0
 -11 679 -285 679 -285 679 c 9
 -290 764 l 1
 -290 764 36.9248046875 778 96 778 c 0
 195 778 239 714 239 636 c 9xf0
EndSplineSet
EndChar

StartChar: SIGnukta
Encoding: 143 2492 107
Width: 0
VWidth: 0
GlyphClass: 2
Flags: HW
HStem: -179.752 97.9033<-204.327 -109>
VStem: -204.327 95.3271<-179.752 -81.8486>
LayerCount: 2
Back
Fore
SplineSet
-225 -177 m 2xe0
 -225 -87 l 2
 -225 -72 -217 -62 -201 -62 c 2
 -113 -62 l 2
 -98 -62 -90 -73 -90 -87 c 2
 -90 -177 l 2
 -90 -192 -99 -200 -113 -200 c 2
 -201 -200 l 2
 -215 -200 -225 -191 -225 -177 c 2xe0
EndSplineSet
EndChar

StartChar: VOWSIGu
Encoding: 147 2497 108
Width: 0
VWidth: 2048
GlyphClass: 2
Flags: HW
HStem: -286.098 67.918<-298.07 -206.995> -96.6025 74.3525<-303.362 -235.099>
VStem: -412.729 80.6592<-189.638 -130.92>
LayerCount: 2
Back
Fore
SplineSet
-53.2001953125 4.6201171875 m 1
 -62.0544389378 -38.7343064631 -73.5337245969 -79.9734940667 -89 -118 c 1
 -89 -118 -72.2032006653 -127.855565117 -44 -150 c 0
 -3.9375 -181.456054688 48 -227 48 -227 c 1
 8 -298 l 1
 -126 -217 l 1
 -126 -217 -182.669921875 -329 -214 -329 c 0
 -265.690429688 -329 -432.729492188 -232.134765625 -432.729492188 -205.349609375 c 0
 -432.729492188 -156 -338 -18 -302 -18 c 0
 -257 -18 -184 -68 -184 -68 c 1
 -162.169921875 4.6201171875 l 1
 -53.2001953125 4.6201171875 l 1
-217 -165 m 1
 -217 -165 -252.739257812 -141.4296875 -267.889648438 -141.4296875 c 0
 -280.229492188 -141.4296875 -299.73046875 -174.938476562 -299.73046875 -179.8203125 c 0
 -299.73046875 -189.212890625 -263.73046875 -211 -251 -211 c 0
 -235.73046875 -211 -217 -165 -217 -165 c 1
EndSplineSet
EndChar

StartChar: VOWSIGuu
Encoding: 148 2498 109
Width: 0
VWidth: 2048
GlyphClass: 2
Flags: HW
HStem: -298.059 76.0293<-280.824 -189.915> -271 21G<23.2785 75.2857> -101 70<-354 -270.083>
VStem: -416 78<-208.5 -109.764>
LayerCount: 2
Back
Fore
SplineSet
-111 -100 m 1xb0
 -62 -100 l 1
 -62 -100 -5 -136 13 -150 c 0
 55 -180 98 -218 98 -218 c 1
 54 -284 l 1x70
 -77 -223 l 25
 -77 -223 -144.896484375 -325 -172 -325 c 0
 -195.637695312 -325 -207.666992188 -321.602539062 -228.896484375 -315.94140625 c 0
 -307.896484375 -294.94140625 -423.896484375 -241.94140625 -423.896484375 -208.94140625 c 0
 -423.896484375 -168.94140625 -362 -17 -334 -17 c 0
 -310 -17 -274 -37 -274 -37 c 1
 -250 11 l 1
 -147 11 l 5
 -215 -136 l 5
 -215 -136 -262 -120 -277 -120 c 0
 -285 -120 -300 -152 -300 -161 c 0
 -300 -174.00390625 -230 -208.029296875 -206.65234375 -208.029296875 c 0
 -194.146484375 -208.029296875 -111 -100 -111 -100 c 1xb0
EndSplineSet
EndChar

StartChar: VOWSIGr
Encoding: 149 2499 110
Width: 0
VWidth: 2048
GlyphClass: 3
Flags: HW
LayerCount: 2
Back
Fore
SplineSet
17 -362 m 1
 -357 -207 l 1
 -363 -99 l 1
 -127 27 l 5
 -66 -77 l 1
 -186 -148 l 1
 -186 -148 -167 -157 -115 -182 c 0
 -50.9090789382 -212.812942818 59 -274 59 -274 c 1
 17 -362 l 1
EndSplineSet
EndChar

StartChar: BNGNUM1
Encoding: 166 2535 113
Width: 563
Flags: HW
HStem: -2.06487 84.3218<229.51 348.752>
VStem: 423 87<177.039 286.016>
LayerCount: 2
Back
Fore
SplineSet
330 555 m 0
 353.34765625 505.19140625 569 325 569 254 c 0
 569 183 491.50390625 90.630859375 447 40 c 0
 414.874414942 3.45161320785 377.653320312 -16.064453125 333.838867188 -16.064453125 c 0
 286.890625 -16.064453125 242 -7 161 50 c 4
 105.38315053 89.1377829603 44 145 44 145 c 1
 109 233 l 1
 109 233 145.000377195 207.000597214 183 183 c 0
 211.053710938 165.28125 273.989257812 121.256835938 308.919921875 121.256835938 c 0
 325.099609375 121.256835938 339.826478146 125.739601869 350 138 c 4
 389 185 422 224 422 252 c 4
 422 288 239.216796875 435.744140625 215 515 c 4
 204 551 198 658 198 658 c 5
 297 681 l 1
 297 681 315 587 330 555 c 0
EndSplineSet
EndChar

StartChar: BNGNUM2
Encoding: 167 2536 114
Width: 596
VWidth: 0
Flags: HW
VStem: 420.53 89.8055<349.88 442.183>
LayerCount: 2
Back
Fore
SplineSet
492 266 m 0
 447.1953125 223.446289062 309 172 309 172 c 1
 517 29 l 1
 459 -65 l 5
 459 -65 243.48046875 40.654296875 41 206 c 13
 109 307 l 1
 178 266 l 1
 178 266 365 304 365 356 c 0
 365 399 294 439 275 451 c 0
 244.819335938 470.061523438 88 570 88 570 c 1
 145 662 l 1
 145 662 345.854449291 559.193299121 429 500 c 0
 461.309570312 476.998046875 526.334960938 420.879882812 526.334960938 356.750976562 c 0
 526.334960938 329.340820312 522.743164062 295.19921875 492 266 c 0
EndSplineSet
EndChar

StartChar: BNGNUM3
Encoding: 168 2537 115
Width: 890
VWidth: 0
Flags: HW
HStem: -5 86<378.081 515.444> 523 78<355.024 635.413>
VStem: 688 76.5069<306.439 473.528>
LayerCount: 2
Back
Fore
SplineSet
474 0 m 0
 396 0 320.000976562 39.052734375 247 116 c 0
 173 194 80 336 80 336 c 1
 162 402 l 1
 313 239 l 2
 388.591796875 157.401367188 423 132 468 132 c 0
 561 132 665 300 665 412 c 0
 665 464 616 470 542 470 c 0
 478 470 287 470 287 470 c 1
 274 580 l 1
 274 580 502 601 582 601 c 0
 738 601 807 533 807 436 c 0
 807 313.822265625 688.296875 0 474 0 c 0
EndSplineSet
EndChar

StartChar: BNGNUM4
Encoding: 169 2538 116
Width: 680
Flags: HW
HStem: -1 77<158.02 497.308> 311 80<187.086 472.622> 564 72<186.004 472.155>
VStem: 76 76<83.9189 302.281> 105 76<397.315 556.77> 478 80<398.249 556.693> 506 80<84.5189 301.179>
LayerCount: 2
Back
Fore
SplineSet
392 404 m 6xec
 418 404 444 414 444 448 c 6
 444 480 l 2
 443 516 425 526 393 526 c 2
 267 526 l 2
 235 526 216 516 215 480 c 2
 215 447 l 6
 215 414 241 404 267 404 c 6
 392 404 l 6xec
435 636 m 2
 497 636 558 622 558 518 c 2
 558 456 l 18xec
 558 422 557 376 517 362 c 1
 559 349 585 326 586 279 c 2
 586 124 l 2
 586 123 586 121 586 120 c 0
 586 27 552 -1 451 -1 c 2
 211 -1 l 2
 128 -1 76 21 76 122 c 2
 76 274 l 2xf2
 76 321 104 350 146 363 c 1
 106 377 105 422 105 456 c 2
 105 520 l 2
 105 618 166 636 236 636 c 2
 435 636 l 2
187 161 m 2xf2
 187 118 221 114 255 114 c 2
 404 114 l 2
 459 114 472 134 472 162 c 2
 472 246 l 2
 472 279 457 297 404 297 c 2
 255 297 l 2
 213 297 187 289 187 244 c 2
 187 161 l 2xf2
EndSplineSet
EndChar

StartChar: BNGNUM6
Encoding: 171 2540 117
Width: 750
VWidth: 0
Flags: HW
HStem: -0 77<345.837 450.505> 370 69<405.767 618.541>
VStem: 340 65<432 614> 623 70<268.519 361.863>
LayerCount: 2
Back
Fore
SplineSet
316 614 m 1
 423 614 l 1
 423 437 l 1
 423 437 497.735351562 447 557 447 c 0
 660 447 693 408 693 344 c 0
 693 280.42578125 648 165 511 45 c 4
 480.564453125 18.3408203125 436 0 389 0 c 0
 334 0 282.857910034 25.0823537477 219 97 c 4
 116 213 48 398 48 398 c 1
 135 436 l 1
 135 436 238.989598062 245.911442132 308 170 c 0
 348 126 370 113 395 113 c 0
 421 113 449.372012016 133.53423062 469 156 c 0
 552 251 565 279 565 303 c 0
 565 338 540 344 493 344 c 0
 446.732421875 344 316 338 316 338 c 1
 316 614 l 1
EndSplineSet
EndChar

StartChar: BNGNUM9
Encoding: 174 2543 118
Width: 688
Flags: HW
HStem: 1 21G<347 347> 258.829 71.1658<176.56 270.315>
VStem: 61.9861 70.009<117.883 224.907> 539 79<217.591 295.319>
LayerCount: 2
Back
Fore
SplineSet
327.135742188 0.1708984375 m 1
 327.135742188 0.1708984375 309.184570312 75.5234375 291.135742188 149.170898438 c 0
 280.080078125 194.283203125 273.42578125 239 238 239 c 0
 217.8984375 239 199.295898438 231.233398438 182.004882812 219.685546875 c 0
 155.053710938 201.6875 148 193.708007812 148 173 c 0
 148 152.833007812 160.44921875 133.928710938 170 111 c 0
 178.3984375 90.8388671875 190 68 190 68 c 1
 101 29 l 1
 101 29 47 119 40 137 c 0
 29.6298828125 161.627929688 16.986328125 185.985351562 16.986328125 217.8984375 c 0
 16.986328125 272 48.5859375 298.22265625 106 324 c 0
 145.541015625 341.752929688 229.314453125 376.994140625 261.931640625 376.994140625 c 0
 316.48828125 376.994140625 355.274414062 351.290039062 372 300 c 0
 387 254 396 198 396 198 c 1
 396 198 475 247.213867188 475 286 c 0
 475 334 209 596 209 596 c 1
 286 691 l 1
 483 523 636 362 636 278 c 0
 636 171.764648438 327.135742188 0.1708984375 327.135742188 0.1708984375 c 1
EndSplineSet
EndChar

StartChar: BNGNUM8
Encoding: 173 2542 119
Width: 655
VWidth: 0
Flags: HW
HStem: 0 75<128.752 244.371> 355 71<184.039 424.931>
VStem: 46 67<90.6372 336 394 636> 432 75.4513<244.237 346.612>
LayerCount: 2
Back
Fore
SplineSet
114 312 m 1
 113 218 l 1
 113 158 129 125 178 125 c 0
 231 125 296 165 349 229 c 0
 375.025623757 260.427168311 383 274 383 293 c 0
 383 329 352 331 325 331 c 0
 285.169921875 331 128.2890625 313.145507812 114 312 c 1
-10 636 m 1
 113 636 l 1
 113 420 l 17
 113 420 146.8984375 426.979492188 184 433 c 0
 315.119140625 454.276367188 371.01171875 449.727539062 421 452 c 0
 443 453 618 495 618 495 c 1
 638 419 l 1
 638 419 586 395 500 367 c 1
 500 367 514.451171875 353.219726562 514.451171875 315.05078125 c 0
 514.451171875 285.383789062 503.263671875 254.807617188 489 230 c 0
 418 106 273 0 169 0 c 0
 60 0 -10 63 -10 217 c 2
 -10 636 l 1
EndSplineSet
EndChar

StartChar: BNGNUM7
Encoding: 172 2541 120
Width: 635
VWidth: 0
Flags: HW
HStem: 246 70<117.129 389.92> 561 71<258.668 373.836>
VStem: 33 71<328.646 429.863> 390 67<58.0011 257 316 545.391>
LayerCount: 2
Back
Fore
SplineSet
420 101 m 0
 420 152.002929688 420 237 420 237 c 1
 420 237 294 226 191 226 c 0
 96 226 50 279 50 355 c 0
 50 397 70.595703125 436.255859375 84 457 c 0
 168 587 288 640 359 640 c 0
 424 640 528 618 528 473 c 1
 528 473 528 137 528 117 c 0
 528 92.7294921875 574 15 574 15 c 1
 496 -35 l 1
 496 -35 420 58 420 101 c 0
420 338 m 1
 420 439 l 1
 420 499 413 527 361 527 c 0
 332 527 289 503 245 467 c 0
 213.657226562 441.35546875 185 410 185 383 c 0
 185 349 216 338 243 338 c 0
 316.821289062 338 420 338 420 338 c 1
EndSplineSet
EndChar

StartChar: BNGNUM0
Encoding: 165 2534 121
Width: 600
Flags: HW
HStem: 1 74<193.515 413.003> 468 74<191.221 414.872>
VStem: 68 74<130.237 412.335> 462 74<132.206 415.804>
LayerCount: 2
Back
Fore
SplineSet
36 264 m 0
 36 481 120 542 302 542 c 0
 489 542 561 481 561 264 c 0
 561 67 481 0 302 0 c 0
 123 0 36 65 36 264 c 0
170 264 m 0
 170 122 185 121 302 121 c 0
 425 121 435 122 435 265 c 0
 435 419 423 419 306 419 c 0
 185 419 170 418 170 264 c 0
EndSplineSet
EndChar

StartChar: BNGNUM5
Encoding: 170 2539 122
Width: 635
VWidth: 0
Flags: HW
HStem: -0.157068 84.9448<144.855 256.752>
VStem: 57.1837 78.3915<88.2473 472.706> 373 70<261.524 398.793>
LayerCount: 2
Back
Fore
SplineSet
222 660 m 1
 224 577 l 1
 428 517 l 1
 476 598 l 1
 553 572 l 1
 553 572 473 364 473 298 c 0
 473 271.59375 576.172851562 180.259765625 576.172851562 158.206054688 c 0
 576.172851562 126.012695312 271.052734375 0 173 0 c 0
 152.247070312 0 140.293945312 0.1572265625 125.293945312 13.1572265625 c 0
 92.2255859375 41.81640625 81.4775390625 116.157226562 81.4775390625 222.666015625 c 0
 81.4775390625 414.727539062 124.293945312 666.157226562 124.293945312 666.157226562 c 1
 222 660 l 1
387 416 m 1
 215.140625 464.596679688 l 1
 215.140625 464.596679688 201 360.762695312 201 250 c 0
 201 180.0703125 205.516601562 155.658203125 218 145 c 0
 222.641601562 141.037109375 232.250976562 139.788085938 242.80078125 139.788085938 c 0
 270.516601562 139.788085938 402.516601562 184.993164062 402.516601562 197.658203125 c 0
 402.516601562 212.327148438 366 265.73046875 366 291 c 0
 366 333 387 416 387 416 c 1
EndSplineSet
EndChar

StartChar: BNGSIGchandrabindu
Encoding: 96 2433 123
Width: 0
VWidth: 0
GlyphClass: 2
Flags: HW
HStem: 656.862 62.0538<-151.147 -63.265>
LayerCount: 2
Back
Fore
SplineSet
-116.14453125 764.135742188 m 6
 -177.525390625 811.659179688 l 6
 -193.3671875 823.5390625 -197.327148438 839.377929688 -185.4453125 855.220703125 c 6
 -137.923828125 918.583007812 l 6
 -126.043945312 934.422851562 -108.223632812 934.422851562 -92.3818359375 922.54296875 c 6
 -31 877 l 6
 -13.1796875 863.139648438 -15.1591796875 847.30078125 -25.0595703125 833.439453125 c 6
 -72.58203125 770.077148438 l 6
 -84.462890625 756.216796875 -100.301757812 754.235351562 -116.14453125 764.135742188 c 6
-309 727 m 5
 -238 810 l 5
 -238 810 -133.46440191 718.916154905 -103.41564622 718.916154905 c 4
 -97.9202774333 718.916154905 -92.7875192187 720.207973313 -88 723 c 4
 -47.2850620489 746.744488143 69 857 69 857 c 5
 137 788 l 5
 137 788 9.83399970054 637.746072027 -38 604 c 4
 -62.7392578125 586.546875 -84.0087890625 578.862304688 -104.16796875 578.862304688 c 4
 -154.213867188 578.862304688 -309 727 -309 727 c 5
EndSplineSet
EndChar

StartChar: BNGSIGanusvara
Encoding: 97 2434 124
Width: 445
GlyphClass: 2
Flags: HW
HStem: 9 60.208<159.161 290.055> 218.283 60.208<160.623 288.922> 359.342 60.208<159.161 290.055> 568.625 60.208<160.623 288.922>
VStem: 92.1709 58.21<77.6899 208.884 428.032 559.226> 298.22 59.1602<76.4482 209.296 426.79 559.638>
LayerCount: 2
Back
Fore
SplineSet
73.6943359375 484.6875 m 4
 73.6943359375 613.5546875 124.974609375 636.328125 223 636.328125 c 4
 323.844726562 636.328125 373.380859375 613.400390625 373.380859375 484.6875 c 4
 373.380859375 366.73828125 323.844726562 336.235351562 223 336.235351562 c 4
 122.157226562 336.235351562 73.6943359375 370.559570312 73.6943359375 484.6875 c 4
169.241210938 487.698242188 m 4
 169.241210938 443.3203125 170.61328125 433.698242188 226 433.698242188 c 4
 278.844726562 433.698242188 279.529296875 442.401367188 279.529296875 486.6875 c 4
 279.529296875 528.015625 278.111328125 538.698242188 226 538.698242188 c 4
 171.706054688 538.698242188 169.241210938 527.720703125 169.241210938 487.698242188 c 4
72 276 m 1
 75.6103515625 276.369140625 166.895998486 288.305783288 185.775166813 288.305783288 c 0
 249 288.305783288 311.87890625 259.134765625 355 177 c 0
 376 137 421 54 449 -21 c 1
 365 -55 l 1
 247 96 l 2
 195.658352621 161.699904697 165 166 139 166 c 0
 114.861328125 166 81 163 81 163 c 1
 72 276 l 1
EndSplineSet
EndChar

StartChar: BNGSIGvisarga
Encoding: 98 2435 125
Width: 445
Flags: HW
HStem: 9 60.208<159.161 290.055> 218.283 60.208<160.623 288.922> 359.342 60.208<159.161 290.055> 568.625 60.208<160.623 288.922>
VStem: 92.1709 58.21<77.6899 208.884 428.032 559.226> 298.22 59.1602<76.4482 209.296 426.79 559.638>
LayerCount: 2
Back
Fore
SplineSet
73.6943359375 148.452148438 m 0
 73.6943359375 277.319335938 124.974609375 300.092773438 223 300.092773438 c 0
 323.844726562 300.092773438 373.380859375 277.165039062 373.380859375 148.452148438 c 0
 373.380859375 30.5029296875 323.844726562 0 223 0 c 0
 122.157226562 0 73.6943359375 34.32421875 73.6943359375 148.452148438 c 0
169.241210938 151.462890625 m 0
 169.241210938 107.084960938 170.61328125 97.462890625 226 97.462890625 c 0
 278.844726562 97.462890625 279.529296875 106.166015625 279.529296875 150.452148438 c 0
 279.529296875 191.780273438 278.111328125 202.462890625 226 202.462890625 c 0
 171.706054688 202.462890625 169.241210938 191.485351562 169.241210938 151.462890625 c 0
73.6943359375 484.6875 m 0
 73.6943359375 613.5546875 124.974609375 636.328125 223 636.328125 c 0
 323.844726562 636.328125 373.380859375 613.400390625 373.380859375 484.6875 c 0
 373.380859375 366.73828125 323.844726562 336.235351562 223 336.235351562 c 0
 122.157226562 336.235351562 73.6943359375 370.559570312 73.6943359375 484.6875 c 0
169.241210938 487.698242188 m 0
 169.241210938 443.3203125 170.61328125 433.698242188 226 433.698242188 c 0
 278.844726562 433.698242188 279.529296875 442.401367188 279.529296875 486.6875 c 0
 279.529296875 528.015625 278.111328125 538.698242188 226 538.698242188 c 0
 171.706054688 538.698242188 169.241210938 527.720703125 169.241210938 487.698242188 c 0
EndSplineSet
EndChar

StartChar: SIGvirama
Encoding: 155 2509 126
Width: 0
VWidth: 2048
GlyphClass: 2
Flags: HW
HStem: -231 218.148
VStem: -197 275
LayerCount: 2
Back
Fore
SplineSet
-162.615234375 -12.8515625 m 1
 -162.615234375 -12.8515625 -153.416816453 -18.3920700749 -117 -44 c 0
 -43.0169524943 -96.0241163478 30 -152 88 -203 c 1
 38 -273 l 5
 -219 -106 l 5
 -162.615234375 -12.8515625 l 1
EndSplineSet
EndChar

StartChar: BNGkhandata
Encoding: 156 2510 127
Width: 500
VWidth: 0
GlyphClass: 2
Flags: HW
HStem: 561 76<171.803 345.941>
VStem: 88 73<346.067 547.531> 354.045 67.9551<88.2913 177.527>
LayerCount: 2
Back
Fore
SplineSet
429 503 m 5
 429 503 291 518 258 518 c 4
 230 518 207 503 207 470 c 2
 207 405 l 2
 207 354 443 283 443 230 c 1
 443 144 385 -33 385 -33 c 1
 292 -10 l 1
 292 -10 314.044921875 155.075195312 314.044921875 179 c 0
 314.044921875 195.666992188 88 273.805664062 88 357.90234375 c 2
 88 523 l 2
 88 616.934231317 162 637 213 637 c 0
 264 637 449 595 449 595 c 1
 429 503 l 5
EndSplineSet
EndChar

StartChar: NameMe.65536
Encoding: 195 -1 128
Width: 633
VWidth: 2048
Flags: W
HStem: 0 48<132 495> 648 48<132 495>
VStem: 84 48<48 648> 495 48<48 648>
LayerCount: 2
Back
Fore
SplineSet
84 696 m 1
 543 696 l 1
 543 0 l 1
 84 0 l 1
 84 696 l 1
132 48 m 1
 495 48 l 1
 495 648 l 1
 132 648 l 1
 132 48 l 1
EndSplineSet
Validated: 1
EndChar

StartChar: BNGka_SIGvirama_BNGssa.akhn
Encoding: 223 -1 156
Width: 980
VWidth: 0
GlyphClass: 3
Flags: HW
HStem: 0 21G<604 669.053> 256 73<273.014 348.74> 377 61<505.149 604 670 825.115> 456 70<151.041 225.772> 575 61<-14 239 302 449 501 604 670 990>
VStem: 75 67<380.571 452.385> 182 72<163.093 238.238> 264 66<497.257 564.886> 354.586 72.4984<319.73 382.849> 442.701 58.2991<439.431 575> 604 66<0 164.01 221 377 438 575> 843 70<267.916 359.661>
LayerCount: 2
Back
Fore
SplineSet
260 463.349609375 m 1
 260 463.349609375 267.66796875 479 264 489 c 24
 259.66796875 500 239 526 239 526 c 1
 -14 526 l 1
 -14 636 l 1
 990 636 l 1
 990 526 l 25
 715 526 l 1
 715 428 l 25
 848 428 l 2
 900 428 962 388 962 315 c 0
 962 293 956.401367188 261.803710938 944 237 c 0
 922 193 857 123 857 123 c 1
 783 172 l 1
 783 172 838.186523438 275.42578125 845 291 c 0
 859 323 828 328 796 328 c 2
 714 328 l 29
 714 0 l 1
 604 0 l 9
 604 124 l 1
 604 124 331 216 313 216 c 0
 305 216 293 195 302 187 c 0
 311 179 385 117 385 117 c 1
 335 42 l 1
 335 42 263.869140625 74.103515625 217 119 c 0
 198.099609375 137.104492188 182 162 182 184 c 0
 182 207 184 215 207 254 c 0
 239 308 263 322 290 322 c 0
 300 322 309 321 309 321 c 1
 309 321 239 368 207 384 c 0
 203.311523438 385.84375 199 386 197 386 c 0
 189 386 183 381 171 364 c 0
 162.485351562 351.9375 161 349 161 341 c 0
 161 335 167.841796875 328.8359375 173 324 c 0
 189 309 197 301 197 301 c 1
 152 236 l 1
 152 236 84.939453125 275.193359375 73.0849609375 286.0234375 c 0
 59.4716796875 298.459960938 46.0849609375 310.0234375 46.0849609375 329.0234375 c 0
 46.0849609375 346.0234375 56.9912109375 365.493164062 73.0849609375 394.0234375 c 0
 95.0849609375 433.0234375 144 499 173 499 c 0
 187 499 260 463.349609375 260 463.349609375 c 1
347 409 m 1
 347 409 381.939453125 382.8671875 402.915039062 364.9765625 c 0
 411.5546875 357.607421875 423 347 423 332 c 0
 423 323 410 293 410 293 c 1
 604 217 l 25
 604 328 l 1
 545 328 471 338 446 384 c 0
 438.921875 397.412109375 438.701171875 460.926757812 438.701171875 486.411132812 c 0
 438.701171875 509 439 526 439 526 c 1
 338 526 l 17
 338 526 368 494 368 480 c 0
 368 461 347 409 347 409 c 1
604 428 m 25
 604 526 l 25
 534 526 l 17
 534 526 534 484 534 456 c 0
 534 433.977284454 549 428 562 428 c 1
 604 428 l 25
EndSplineSet
LCarets2: 2 0 0
Ligature2: "'akhn' Akhand lookup 2 subtable" BNGka SIGvirama BNGssa
EndChar

StartChar: BNGja_SIGvirama_BNGnya.akhn
Encoding: 224 -1 157
Width: 1035
VWidth: 0
GlyphClass: 3
Flags: HW
HStem: 24.8799 75.2969<357.951 466.021> 103 66<616.5 829.81> 275 60<751 829.639> 291 66<404.073 570.805> 438 78<742.416 830.064> 575 62<-15 385 448 987>
VStem: 604.099 71.1387<225.991 287.673> 834 71<175.018 269.459 340.875 434.708>
LayerCount: 2
Back
Fore
SplineSet
656 402 m 1xdf
 656 402 838 502 891 502 c 0
 957.732421875 502 976 480.778320312 976 394 c 0
 976 286 948 279 948 279 c 1
 948 279 975 276 975 196 c 0
 975 87 893.708007812 74 839 74 c 0
 753 74 623 88 623 88 c 1
 623 88 596.76171875 60.90625 579 45 c 0
 549.735351562 18.7919921875 510 0 456 0 c 0
 396 0 326 34 233 146 c 0
 169.742717853 222.180812908 67.0859375 419.120117188 67.0859375 419.120117188 c 1
 144 456 l 1
 144 456 248.9140625 316.879882812 303.9140625 241.879882812 c 0
 340.2578125 192.3203125 422.477539062 110.176757812 459.411132812 110.176757812 c 0
 477.375 110.176757812 497.103127154 119.192814438 518 138 c 0
 568 183 581.673828125 196.208984375 601 226 c 0
 607.315429688 235.735351562 610.098632812 243.740234375 610.098632812 250.250976562 c 0
 610.098632812 268.484375 588.264648438 275 561 275 c 0
 532 275 362 275 362 275 c 1
 404 526 l 1
 -15 526 l 1
 -15 637 l 1
 1047 637 l 1
 1047 526 l 25
 507 526 l 25
 503 506 l 1
 656 402 l 1xdf
727 336 m 1
 727 336 737 319 737 285 c 0
 737 271.23828125 733.495818625 251.492101847 720 226 c 0
 702 192 682 169 682 169 c 9
 812 169 l 2
 853 169 859 174 859 194 c 0
 859 231 847.220703125 232 781 232 c 1
 781 317 l 1
 849 317 863 317 863 353 c 0
 863 384.76953125 856 389 845 389 c 0
 831.165039062 389 727 336 727 336 c 1
567 361 m 1xdf
 485 418 l 1
 472 351 l 1
 472 351 536 361 567 361 c 1xdf
EndSplineSet
LCarets2: 2 0 0
Ligature2: "'akhn' Akhand lookup 2 subtable" BNGja SIGvirama BNGnya
EndChar

StartChar: BNGra_SIGvirama.rphf
Encoding: 225 -1 158
Width: 0
VWidth: 2048
GlyphClass: 4
Flags: HW
HStem: 652.612 229.966
VStem: -208.544 293.839
LayerCount: 2
Back
Fore
SplineSet
-243 748 m 5
 -243 748 -235.791015625 755.887695312 -198.754882812 782.854492188 c 4
 -124.787109375 836.712890625 -20.427734375 903.716796875 46.7880859375 941.7578125 c 5
 107 860 l 1
 -163.018554688 652.612304688 l 1
 -243 748 l 5
EndSplineSet
LCarets2: 1 0
Ligature2: "'rphf' Reph Form lookup 3 subtable" BNGra SIGvirama
EndChar

StartChar: BNGra_SIGvirama.blwf
Encoding: 226 -1 159
Width: 0
VWidth: 0
GlyphClass: 4
Flags: HW
HStem: -228 72<-467.385 -293.361>
VStem: -157 69<-76 99> -135 47<-228 -201.273>
LayerCount: 2
Back
Fore
SplineSet
-88 150 m 1xa0
 -88 -228 l 1
 -175 -228 l 1xa0
 -197 -144 l 1
 -197 -144 -356.97265625 -228 -452 -228 c 0
 -495 -228 -573.275390625 -217.181640625 -628 -134 c 0
 -653 -96 -705 10 -705 10 c 1
 -636 56 l 1
 -571 -39 l 2
 -531.559570312 -96.6435546875 -477 -110 -449 -110 c 0
 -352 -110 -197 -26 -197 -26 c 1
 -197 99 l 1xc0
 -88 150 l 1xa0
EndSplineSet
LCarets2: 1 0
Ligature2: "'blwf' Below Base Forms lookup 4 subtable" BNGra SIGvirama
EndChar

StartChar: BNGba_SIGvirama.blwf
Encoding: 227 -1 160
Width: 0
VWidth: 0
GlyphClass: 4
Flags: HW
VStem: -177 67.5938<-206 1>
LayerCount: 2
Back
Fore
SplineSet
-70.40625 -308.99609375 m 17
 -177 -309 l 1
 -426 -135 l 1
 -426 -20 l 1
 -176 83 l 25
 -70.40625 83 l 25
 -70.40625 -308.99609375 l 17
-177 -187 m 1
 -177 -33 l 1
 -312 -91 l 1
 -177 -187 l 1
EndSplineSet
LCarets2: 1 0
Ligature2: "'blwf' Below Base Forms lookup 4 subtable" BNGba SIGvirama
EndChar

StartChar: BNGka_SIGvirama.half
Encoding: 228 -1 161
Width: 685
VWidth: 0
GlyphClass: 3
Flags: HW
HStem: 575 61<-12 312 377 647>
VStem: 312 65<212 467 542 574> 554.146 71.5596<332.102 420.17>
LayerCount: 2
Back
Fore
SplineSet
415 408 m 1
 415 113 l 1
 307 113 l 1
 49 325 l 1
 49 423 l 1
 306 511 l 1
 306 526 l 1
 -12 526 l 1
 -12 636 l 1
 697 636 l 1
 697 526 l 1
 416 526 l 25
 416 510 l 1
 539 473 l 2
 592.653320312 457.219726562 638.705078125 412.88671875 638.705078125 347.375976562 c 0
 638.705078125 326.4765625 635.153320312 301.643554688 620 276 c 0
 594 232 563 205 563 205 c 1
 491 241 l 1
 511.854492188 280.197265625 l 2
 523.877929688 303.080078125 533 323.34765625 533 335 c 0
 533 368.176757812 509.669921875 379.899414062 466 393 c 2
 415 408 l 1
307 250 m 1
 307 405 l 1
 182 357 l 1
 307 250 l 1
EndSplineSet
LCarets2: 1 0
Ligature2: "'half' Half Forms lookup 5 subtable" BNGka SIGvirama
EndChar

StartChar: BNGga_SIGvirama.half
Encoding: 230 -1 163
Width: 400
VWidth: 0
GlyphClass: 3
Flags: HW
HStem: 553.962 71.3504<109.191 240.188>
VStem: 19 81<479 549.62> 196 71<312.415 382.666>
LayerCount: 2
Back
Fore
SplineSet
441 537 m 1
 395 452 l 1
 234 510 l 2
 221.908203125 514.458007812 199 522 185 522 c 0
 171.754882812 522 167 502 167 496 c 0
 167 481 188.701171875 476.2578125 245 454 c 0
 288 437 297 431 301 410 c 0
 303.450195312 397.135742188 310 320.525390625 310 289 c 0
 310 246 137 167 137 167 c 1
 86 245 l 1
 86 245 206 317 206 340 c 0
 206 354 204 362 169 375 c 0
 98.66796875 401.123046875 36 432 36 462 c 0
 36 509 88.8733047198 603.997756808 108 621 c 0
 122.09375 633.528320312 140.48046875 639.3125 160.27734375 639.3125 c 0
 184.251953125 639.3125 214.112304688 630.92578125 231 626 c 0
 327 598 441 537 441 537 c 1
EndSplineSet
LCarets2: 1 0
Ligature2: "'half' Half Forms lookup 5 subtable" BNGga SIGvirama
EndChar

StartChar: BNGnga_SIGvirama.half
Encoding: 232 -1 165
Width: 590
GlyphClass: 3
Flags: HW
HStem: 123 71<227.626 367.987> 342 70<290.085 493.471> 446 59<291 438.76> 575 61<-10 236 495 601> 587 49<297.728 442.071>
VStem: 42 47<419.185 447.681> 228 63<396 446 505 573.236> 443 55<509.683 574.636> 494 69<272.281 336.597>
LayerCount: 2
Back
Fore
SplineSet
216 526 m 1xf680
 -10 526 l 1
 -10 636 l 1
 601 636 l 1
 601 526 l 1
 495 526 l 17
 495 526 497.891601562 527.564453125 498 509 c 1xf7
 498 444 489.994140625 411 413 411 c 6
 309 411 l 5
 309 378 l 1
 309 378 407.896484375 388 450 388 c 0
 527 388 568 359 568 313 c 0
 568 259 531 201 390 131 c 0
 354.747866373 113.498940753 299 100 268 100 c 0
 224 100 157.760742188 134.854492188 114 207 c 0
 40 329 16 437 16 437 c 1
 99 474 l 1
 99 474 150 363 195 282 c 0
 225 228 257 205 294 205 c 0
 312 205 350.728661474 219.279958945 376 231 c 0
 460.835615524 270.344053576 476 300 388 300 c 0
 359 300 208 300 208 300 c 1
 208 481 l 2
 208 518 216 526 216 526 c 1xf680
309 488 m 1
 366 488 l 2
 397.997070312 488 413 492 413 517 c 1
 413 538 404 538 353 538 c 0xef
 327.251953125 538 309 534 309 488 c 1
EndSplineSet
LCarets2: 1 0
Ligature2: "'half' Half Forms lookup 5 subtable" BNGnga SIGvirama
EndChar

StartChar: BNGca_SIGvirama.half
Encoding: 233 -1 166
Width: 575
VWidth: 0
GlyphClass: 3
Flags: HW
HStem: 134 71<169.774 301.332> 575 61<-10 86 153 588>
VStem: 86 67<220.608 464.205 515 574> 445 65<321.198 408.903>
LayerCount: 2
Back
Fore
SplineSet
173 412 m 1
 173 338 l 1
 173 278 179 243 218 243 c 0
 260 243 338.679786572 284.496179312 374 315 c 0
 396 334 396 367 347 376.794921875 c 0
 239.655809701 398.252635298 173 412 173 412 c 1
173 506 m 1
 173 506 305 489.794921875 397 472 c 0
 451.091796875 461.537109375 511 443.561523438 511 383.794921875 c 4
 511 354.794921875 493.542641683 312.255604838 481 293 c 0
 410 184 283 134 214 134 c 0
 149 134 64 171.003605521 64 293 c 2
 64 526 l 1
 -10 526 l 1
 -10 636 l 1
 584 636 l 1
 584 526 l 1
 173 526 l 1
 173 506 l 1
EndSplineSet
LCarets2: 1 0
Ligature2: "'half' Half Forms lookup 5 subtable" BNGca SIGvirama
EndChar

StartChar: BNGtta_SIGvirama.half
Encoding: 238 -1 171
Width: 595
VWidth: 0
GlyphClass: 3
Flags: HW
HStem: 134 71<163.774 280.327> 427 59<256 430.517> 427 51<256 366.363> 575 61<-13 80 147 404 474 582> 708 64<117.379 392.718>
VStem: 80 67<220.608 574> 404 70<636 696.221> 439 65<326.182 415.749>
LayerCount: 2
Back
Fore
SplineSet
526 636 m 21
 526 714 520 779 368 779 c 0
 214 779 47 765 47 765 c 1
 51 682 l 17
 51 682 255.614257812 682 341 682 c 0
 389 682 405 679 405 636 c 13
 -13 636 l 5
 -13 526 l 5
 65 526 l 5
 65 293 l 6
 65 171.001953125 153 134 218 134 c 4
 287 134 418 195 498 296 c 4
 512.268554688 314.013671875 528 348 528 378 c 4xdd
 528 452 476.8828125 486 388 486 c 4
 353 486 260 478 260 478 c 5xbd
 270 387 l 5xdd
 270 387 331.909179688 387 356 387 c 4
 397 387 409 382 409 368 c 4
 409 349 384 322 365 307 c 4
 316.94921875 269.064453125 264 252 222 252 c 4
 182 252 177 287 177 347 c 5xde
 177 526 l 5
 612 526 l 5
 612 636 l 5
 526 636 l 21
EndSplineSet
LCarets2: 1 0
Ligature2: "'half' Half Forms lookup 5 subtable" BNGtta SIGvirama
EndChar

StartChar: BNGddha_SIGvirama.half
Encoding: 246 -1 179
Width: 595
VWidth: 0
GlyphClass: 3
Flags: HW
HStem: 134 71<163.774 280.327> 427 59<256 430.517> 427 51<256 366.363> 575 61<-13 80 147 582>
VStem: 80 67<220.608 574> 439 65<325.668 415.749>
LayerCount: 2
Back
Fore
SplineSet
612 636 m 5
 612 526 l 1
 177 526 l 1
 177 347 l 1
 177 287 182 252 222 252 c 0
 264 252 316.94921875 269.064453125 365 307 c 0
 384 322 409 349 409 368 c 0
 409 382 397 387 356 387 c 0
 331.909179688 387 270 387 270 387 c 1
 260 478 l 1
 260 478 353 486 388 486 c 0
 476.8828125 486 528 452 528 378 c 0
 528 348 512.268554688 314.013671875 498 296 c 0
 418 195 287 134 218 134 c 0
 153 134 65 171.001953125 65 293 c 2
 65 526 l 1
 -13 526 l 1
 -13 636 l 5
 612 636 l 5
-816 39 m 1049
EndSplineSet
LCarets2: 1 0
Ligature2: "'half' Half Forms lookup 5 subtable" BNGddha SIGvirama
EndChar

StartChar: BNGba_SIGvirama.half
Encoding: 247 -1 180
Width: 480
VWidth: 0
GlyphClass: 3
Flags: HW
HStem: 575 61<-12 317 383 444>
VStem: 317 65<212 469 542 574>
LayerCount: 2
Back
Fore
SplineSet
416 526 m 21
 415 113 l 1
 307 113 l 1
 49 311 l 1
 49 409 l 1
 306 511 l 1
 306 526 l 1
 -12 526 l 1
 -12 636 l 1
 490 636 l 1
 490 526 l 1
 416 526 l 21
307 250 m 1
 307 405 l 1
 182 343 l 1
 307 250 l 1
EndSplineSet
LCarets2: 1 0
Ligature2: "'half' Half Forms lookup 5 subtable" BNGba SIGvirama
EndChar

StartChar: BNGpa_SIGvirama.half
Encoding: 248 -1 181
Width: 555
VWidth: 0
GlyphClass: 3
Flags: HW
HStem: 549.054 69.6719<246.6 386.518>
LayerCount: 2
Back
Fore
SplineSet
399 477 m 1
 380 495 360.389648438 514 320 514 c 0
 292.606445312 514 272.87890625 502.012695312 259 494 c 0
 234.674804688 479.956054688 206 460 206 460 c 1
 262 376 l 1
 399 477 l 1
535 359 m 1
 473 415 l 1
 274 255.637695312 l 1
 208 265 l 1
 123.885742188 407.166992188 l 1
 73 372.166992188 l 1
 16.1142578125 448 l 1
 16.1142578125 448 134.114257812 553 214.114257812 599 c 0
 244.829101562 616.661132812 278.34375 632.725585938 307 632.725585938 c 0
 342.7265625 632.725585938 372.131835938 623.319335938 395 609 c 0
 470.653320312 561.625976562 592 431 592 431 c 1
 535 359 l 1
EndSplineSet
LCarets2: 1 0
Ligature2: "'half' Half Forms lookup 5 subtable" BNGpa SIGvirama
EndChar

StartChar: BNGna_SIGvirama.half
Encoding: 249 -1 182
Width: 450
VWidth: 0
GlyphClass: 3
Flags: HW
HStem: 420.554 70.1729<182.576 322.489> 575.328 61<-13 462>
VStem: 90.3555 68.3916<288.075 396.178>
LayerCount: 2
Back
Fore
SplineSet
445 316 m 5
 445 316 285 381 240 381 c 4
 209.736328125 381 186.0390625 368.290039062 186.0390625 329.807617188 c 4
 186.0390625 318.158203125 190.474936848 306.719924642 196.291992188 297.102539062 c 4
 223.803710937 251.6171875 300 205 300 205 c 5
 254 130.328125 l 5
 254 130.328125 149 181.671875 110 229 c 4
 81.7412109375 263.293945312 64.35546875 305.028320312 64.35546875 346.431640625 c 4
 64.35546875 386.131835938 78.6298828125 424.03515625 108 449 c 4
 143.502929688 479.177734375 178.908203125 490.3984375 226.963867188 490.3984375 c 4
 326 490.3984375 492 396.328125 492 396.328125 c 5
 445 316 l 5
462 526 m 17
 -13 526 l 1
 -13 636.328125 l 1
 462 636.65625 l 1
 462 526 l 17
EndSplineSet
LCarets2: 1 0
Ligature2: "'half' Half Forms lookup 5 subtable" BNGna SIGvirama
EndChar

StartChar: BNGda_SIGvirama.half
Encoding: 250 -1 183
Width: 495
GlyphClass: 3
Flags: HW
HStem: 575.328 61<-11 104.9 171.9 499>
VStem: 104.9 67<420 574.656>
LayerCount: 2
Back
Fore
SplineSet
75 526 m 1
 74.900390625 319 l 1
 140 250 l 1
 343 359 l 1
 293.499023438 112 l 1
 372 112 l 1
 423.400390625 213 l 1
 467 462 l 1
 386.900390625 498 l 1
 181 399 l 1
 181 526 l 1
 509 526 l 1
 509 636.328125 l 1
 -11 636.328125 l 5
 -11 526 l 5
 75 526 l 1
EndSplineSet
LCarets2: 1 0
Ligature2: "'half' Half Forms lookup 5 subtable" BNGda SIGvirama
EndChar

StartChar: BNGnna_SIGvirama.half
Encoding: 251 -1 184
Width: 460
VWidth: 0
GlyphClass: 3
Flags: W
HStem: 538.592 68.2524<170.512 325.776>
VStem: 77.3553 68.3918<406.983 513.054>
LayerCount: 2
Back
Fore
SplineSet
447 431 m 1
 447 431 293 507 229 507 c 4
 196.91015625 507 174.455311309 473.809712009 195 440 c 0
 222.731445312 394.36328125 296 326 296 326 c 1
 227 252 l 1
 227 252 153.55859375 309.521484375 119 346 c 0
 83 384 67.35546875 424.028320312 67.35546875 465.431640625 c 0
 67.35546875 512 87 554 126 587 c 0
 160.613242699 616.288128437 206.377929688 623.84375 244.79296875 623.84375 c 0
 343 623.84375 496 517 496 517 c 1
 447 431 l 1
EndSplineSet
LCarets2: 1 0
Ligature2: "'half' Half Forms lookup 5 subtable" BNGnna SIGvirama
EndChar

StartChar: BNGdda_SIGvirama.half
Encoding: 252 -1 185
Width: 630
VWidth: 0
GlyphClass: 3
Flags: HW
HStem: 154 63.9822<267.301 361.544> 410 62<345.455 491.232> 575 61<-14 280 345 645>
VStem: 280 65<458 575> 494 64<332.385 406.535>
LayerCount: 2
Back
Fore
SplineSet
414 182 m 0
 383.598632812 157.489257812 344 137 316 137 c 0
 273 137 221.33984375 157.260742188 163 233 c 0
 106 307 58 404 58 404 c 1
 128 446 l 1
 128 446 183 373 219 327 c 0
 255.865332699 279.894297107 279 248 313 248 c 0
 323.342773438 248 338.314453125 252.141601562 354 264 c 0
 426.990234375 319.180664062 444 330 444 350 c 0
 444 372 425 377 402 377 c 0
 349 377 253 367 253 367 c 1
 253 526 l 1
 -14 526 l 1
 -14 636 l 1
 645 636 l 1
 645 526 l 1
 359 526 l 25
 359 462 l 1
 359 462 408.010638203 472 453 472 c 0
 539 472 558 426 558 382 c 0
 558 307.635572611 480.431640625 235.559570312 414 182 c 0
EndSplineSet
LCarets2: 1 0
Ligature2: "'half' Half Forms lookup 5 subtable" BNGdda SIGvirama
EndChar

StartChar: BNGma_SIGvirama.half
Encoding: 253 -1 186
Width: 695
VWidth: 0
GlyphClass: 3
Flags: HW
HStem: 342 67<332.722 413.263> 421 69<135.765 189.345> 575 61<-10 141 216 409 469 557>
VStem: 54 65<331.99 407.748> 208.834 67.1661<478.314 530.166> 439 67<435.732 545.159>
LayerCount: 2
Back
Fore
SplineSet
508 263 m 0
 470.515625 263 239 369 197 369 c 0
 186 369 181.188476562 362.881835938 168 342 c 0
 156 323 155.3828125 317.967773438 174 301 c 0
 196.581054688 280.419921875 214 268 214 268 c 1
 169 190 l 1
 169 190 95.0927734375 231.953125 78 245 c 0
 57.013671875 261.018554688 42 285 42 306 c 0
 42 329 47.0693359375 346.958007812 64 375 c 0
 96 428 134 489 173 489 c 4
 190 489 253 465 253 465 c 5
 253 465 272 488.052734375 272 494 c 4
 272 506 248 526 248 526 c 5
 -10 526 l 1
 -10 636 l 1
 704 636 l 1
 704 526 l 1
 610 526 l 1
 610 526 638 487.090820312 638 465 c 0
 638 421 528 263 508 263 c 0
355 435 m 5
 355 435 443 392 465 392 c 4
 478 392 520 445 520 467 c 0
 520 487 499 526 499 526 c 1
 362 526 l 5
 362 526 386 505 386 485 c 4
 386 471 355 435 355 435 c 5
EndSplineSet
LCarets2: 1 0
Ligature2: "'half' Half Forms lookup 5 subtable" BNGma SIGvirama
EndChar

StartChar: BNGla_SIGvirama.half
Encoding: 254 -1 187
Width: 585
VWidth: 0
GlyphClass: 3
Flags: HW
HStem: 426 64<158.875 324.585 434.319 571.755> 575 61<-14 595>
VStem: 73 65<300.059 403.122> 126 46<197.87 227.562> 346 52<272 308.909>
LayerCount: 2
Back
Fore
SplineSet
579 367 m 5xe8
 579 367 565.266601562 383 516 383 c 6
 500 383 l 6
 442 383 428.015625 371.123046875 419 299 c 6
 415 267 l 5
 322 266 l 5
 320 298 l 6
 317 373 299 381 252 381 c 6
 228 381 l 6
 185 381 169 369 169 323 c 4xe8
 169 316 169 309 171 301 c 6
 187 201 l 5
 103 172 l 5xd8
 103 172 74.384765625 236.076171875 56 328 c 4
 54 338 54 348 54 357 c 4
 54 444 120 489 190 489 c 6
 272 489 l 6
 330.717773438 489 368 475 380 434 c 5
 402 477 438 489 499 489 c 6
 519 489 l 6
 592.616210938 489 639 435 639 435 c 5
 579 367 l 5xe8
595 526 m 17
 -14 526 l 1
 -14 636 l 1
 596 636 l 1
 595 526 l 17
EndSplineSet
EndChar

StartChar: BNGsha_SIGvirama.half
Encoding: 255 -1 188
Width: 510
VWidth: 0
GlyphClass: 3
Flags: HW
HStem: 264 66.751<37 184.45 283.794 403.674> 526 69<15.3355 190.982 284.308 472.632>
VStem: 201 71<348.986 511.392>
LayerCount: 2
Back
Fore
SplineSet
531 464 m 1
 531 464 410 486 359 486 c 0
 304.770507812 486 291 484 291 432 c 2
 291 417 l 2
 291 388 302.764648438 355 322 355 c 0
 354 355 437 365 437 365 c 1
 453 276 l 1
 453 276 360 252 317 252 c 4
 273.115155871 252 249 289 249 289 c 1
 249 289 214.073242188 252 164 252 c 0
 126 252 29 261 29 261 c 1
 47 358 l 1
 47 358 105.690429688 355 138 355 c 0
 166 355 189 369 189 419 c 2
 189 431 l 2
 189 475 179 488 153 488 c 0
 118 488 9 476 9 476 c 1
 -11 564 l 1
 -11 564 115 595 167 595 c 0
 207 595 233 588 257 558 c 1
 277 588 309 595 352 595 c 0
 450 595 564 548 564 548 c 1
 531 464 l 1
EndSplineSet
EndChar

StartChar: BNGsa_SIGvirama.half
Encoding: 256 -1 189
Width: 710
VWidth: 0
GlyphClass: 3
Flags: HW
HStem: 324 75<126.545 208.755 467.67 553.331> 575 61<-10 288 352.787 554 617 718>
VStem: 578 75<425.284 539.057>
LayerCount: 2
Back
Fore
SplineSet
344 476 m 1
 344 476 496.126953125 405 512 405 c 0
 530 405 557 450 557 465 c 0
 557 485 528 526 528 526 c 1
 369 526 l 1
 344 476 l 1
542 278 m 0
 486 278 295 376 295 376 c 1
 295 376 237 274 190 274 c 4
 145 274 20 342 20 342 c 1
 57 425 l 1
 57 425 139 393 154 393 c 0
 184 393 245 526 245 526 c 1
 -10 526 l 1
 -10 636 l 1
 724 636 l 1
 724 526 l 1
 641 526 l 1
 641 526 674 487 674 463 c 0
 674 423 573 278 542 278 c 0
EndSplineSet
EndChar

StartChar: BNGssa_SIGvirama.half
Encoding: 258 -1 191
Width: 505
VWidth: 0
GlyphClass: 3
Flags: HW
HStem: 575 61<-14 77 141 372 432 516>
VStem: 40.7046 62.2209<404.615 506.349> 406 63<424.46 536.61>
LayerCount: 2
Back
Fore
SplineSet
37 314 m 0
 25.1123046875 324.079101562 18.7041015625 342.706054688 18.7041015625 364.790039062 c 0
 18.7041015625 433 70 526 70 526 c 1
 -14 526 l 1
 -14 636 l 1
 516 636 l 1
 516 526 l 1
 455 526 l 1
 455 526 485 468.922851562 485 439 c 0
 485 395 407 250 387 250 c 0
 356 250 101.9453125 258.935546875 37 314 c 0
138 443 m 1
 138 443 128.92578125 423.517578125 128.92578125 403.73046875 c 0
 128.92578125 395.969726562 130.202148438 390.038085938 133 387 c 0
 141.217773438 378.075195312 344 352 344 352 c 1
 138 443 l 1
375 422 m 1
 375 422 382 439 382 452 c 0
 382 479.057617188 355 526 355 526 c 1
 174 526 l 1
 164 507 l 1
 375 422 l 1
EndSplineSet
EndChar

StartChar: NameMe.65640
Encoding: 292 -1 225
Width: 915
VWidth: 0
Flags: HW
HStem: -0 72<242.42 416.639> 556 74<399.532 531.126>
VStem: 553 69<152 533.946> 575 47<0 26.7273>
LayerCount: 2
Back
Fore
SplineSet
660 289 m 13
 660 -25 l 1
 575 -25 l 1xd0
 553 59 l 1
 553 59 418 -25 337 -25 c 0
 294 -25 221.724609375 -19.181640625 167 64 c 0
 142 102 98 211 98 211 c 1
 167 254 l 1
 231 163 l 2
 270.864257812 106.318359375 312 93 340 93 c 0
 404 93 553 177 553 177 c 1
 553 290 l 1
 553 348 514 373 472 373 c 0
 404.774414062 373 314 306 314 306 c 1xe0
 261 377 l 1
 363 467 441 493 480 493 c 0
 613 493 652 392 652 392 c 5
 786 351 l 6
 834.365234375 336.201171875 874.145507812 299.313476562 874.145507812 243.802734375 c 4
 874.145507812 222.903320312 864.020507812 193.470703125 846.440429688 169.426757812 c 4
 822 136 794.145507812 102.802734375 794.145507812 102.802734375 c 5
 724.145507812 147.802734375 l 5
 752 191 l 6
 760.600585938 206.125 767.145507812 219.150390625 767.145507812 230.802734375 c 4
 767.145507812 261.979492188 748.077148438 266.299804688 706.559570312 277 c 6
 660 289 l 13
929 526 m 25
 -14 526 l 1
 -14 636 l 1
 929 636 l 1
 929 526 l 25
EndSplineSet
EndChar

StartChar: NameMe.65641
Encoding: 293 -1 226
Width: 740
VWidth: 0
Flags: HW
HStem: -166 72<244.615 416.867> 450.622 62.9746<141.998 274.321> 575 62<624 738>
VStem: 71.1729 62.1426<522.986 578.523> 559 65<-13 10.9898 82 575> 577 47<-166 -139.273>
LayerCount: 2
Back
Fore
SplineSet
552 0 m 5xc0
 135 230 l 1
 135 334 l 1
 375 441 l 1
 360 472 l 0
 360 472 356.666992188 479.26953125 347.666992188 476.134765625 c 0
 338.666992188 473 238.2734375 429.928710938 205.666992188 424 c 0
 161.666992188 416 129.666992188 435 109.666992188 450 c 0
 89.8603515625 464.85546875 65 504 65 545 c 0
 65 589 87 622 120 638 c 0
 144.278320312 649.771484375 212 663 212 663 c 1
 239 597 l 1
 239 597 204.782226562 583.439453125 177 569 c 0
 160.6875 560.521484375 162 527 195 527 c 0
 230.01953125 527 383 598 399 604.794921875 c 0
 415 611.58984375 423.266601562 596 423.266601562 596 c 0
 513 391 l 1
 276 284 l 1
 552 133 l 1
 552 636 l 1
 546 702 l 1
 633 702 l 1
 657 637 l 1
 751 637 l 17
 751 526 l 1
 668 526 l 1
 668 0 l 21xa0
 668 -214 l 5
 574 -214 l 5xa0
 552 -130 l 5
 552 -130 392.02734375 -214 297 -214 c 4
 254 -214 175.724609375 -203.181640625 121 -120 c 4
 96 -82 44 24 44 24 c 5
 113 70 l 5
 178 -25 l 6
 217.440429688 -82.6435546875 272 -96 300 -96 c 4
 397 -96 552 -12 552 -12 c 5
 552 0 l 5xc0
EndSplineSet
EndChar

StartChar: NameMe.65642
Encoding: 294 -1 227
Width: 775
VWidth: 0
Flags: HW
HStem: 0 21G<400 469> 502 62<368.84 401.617> 549.388 71.3906<122.923 281.654> 575 61<469 572>
VStem: 15.8506 82.9395<446.022 515.932> 220.035 71.0049<258.289 339.419> 401.617 67.3828<0 502 564 575>
LayerCount: 2
Back
Fore
SplineSet
581 460 m 1
 458 493 l 0
 435.241210938 499.090820312 401 510 381 510 c 0
 361.521484375 510 349 478 349 465 c 0
 349 450 406.896484375 431.750976562 437.959960938 421.31640625 c 0
 479.313476562 407.42578125 481 397 495 347 c 0
 498.575195312 334.231445312 511 287.665039062 511 256 c 0
 511 213.31640625 329 120 329 120 c 1
 279 198 l 1
 279 198 392 267.459960938 392 290 c 0
 392 317.006835938 382.856445312 320.4765625 360 330 c 0
 298.75 354.682617188 209.850585938 383.694335938 209.850585938 420.177734375 c 0
 209.850585938 476.376953125 265.979492188 584.979492188 284 603 c 0
 304 623 328.889648438 625.778320312 354.793945312 625.778320312 c 0xae
 375.184570312 625.778320312 415.1875 614.169921875 429 610 c 0
 535 578 581.837890625 564 581.837890625 564 c 1
 582 617 l 1
 572 702 l 1
 659 702 l 1
 685 636 l 9
 785 636 l 17
 785 526 l 1
 698 526 l 17
 698 -84 l 1
 604 -84 l 1
 582 0 l 1
 582 0 422.02734375 -84 327 -84 c 0
 284 -84 205.724609375 -73.181640625 151 10 c 0
 126 48 74 154 74 154 c 1
 143 200 l 1
 208 105 l 2
 247.440429688 47.3564453125 302 34 330 34 c 0
 427 34 581 118 581 118 c 1
 581 460 l 1
EndSplineSet
EndChar

StartChar: NameMe.65643
Encoding: 295 -1 228
Width: 740
VWidth: 0
Flags: HW
HStem: 0 21G<424.5 558> 365 60.8091<147.517 307> 575 61<-10 132 178.707 493 558 641>
VStem: 76 65<435.737 519.241> 493 65<78 575>
LayerCount: 2
Back
Fore
SplineSet
562 0 m 1
 200 185 l 1
 200 269 l 1
 382 365 l 1
 382 365 370.048828125 364.543945312 346.78125 364.543945312 c 0
 273.844726562 364.543945312 154 366.924804688 154 437 c 0
 154 489 187 526 187 526 c 1
 -10 526 l 1
 -10 636 l 1
 756 636 l 1
 756 526 l 9
 678 526 l 25
 678 0 l 1
 678 -214 l 1
 584 -214 l 1
 562 -130 l 1
 562 -130 402.02734375 -214 307 -214 c 0
 264 -214 185.724609375 -203.181640625 131 -120 c 0
 106 -82 54 24 54 24 c 1
 123 70 l 1
 188 -25 l 2
 227.440429688 -82.6435546875 282 -96 310 -96 c 0
 407 -96 562 -12 562 -12 c 1
 562 0 l 1
300 526 m 1
 300 526 271.002929688 505 271.002929688 487 c 0
 271.002929688 462 314.991210938 453.809570312 387 453.809570312 c 0
 420.087890625 453.809570312 462 454 462 454 c 1
 495 318 l 1
 355 237 l 1
 568 128 l 1
 568 526 l 1
 300 526 l 1
EndSplineSet
EndChar

StartChar: NameMe.65644
Encoding: 296 -1 229
Width: 750
Flags: HW
HStem: 3.16211 75.3477<305.991 413.621> 287 70<365.085 568.608> 428 59<366 513.76> 577 57<375.185 515.907>
VStem: 304.912 61.042<341 428 497.002 568.075> 518 55<491.683 573.301> 569.148 68.3691<214.913 282.735>
LayerCount: 2
Back
Fore
SplineSet
552 67 m 17
 492 5 436 0 409 0 c 0
 364.99609375 0 284 27 215 115 c 0
 87.6043141402 277.475657328 57 415 57 415 c 1
 130.434570312 444.268554688 l 1
 130.434570312 444.268554688 229.05859375 292.375 281.434570312 213.268554688 c 0
 322 152 368 122 412 122 c 0
 429.959960938 122 451.0625 129.250976562 474.8515625 144 c 0
 538.186523438 183.267578125 581 229.778320312 581 242 c 0
 581 259.133789062 569.8515625 258.778320312 518.8515625 258.778320312 c 0
 489.8515625 258.778320312 419 260 349 260 c 1xfa
 349 407 l 17
 349 407 291.275390625 428.262695312 237 456 c 0
 211.892578125 468.831054688 190 480 190 480 c 9
 224 552 l 1
 349 505 l 1
 349 542 349.30078125 580.4140625 375 607 c 0
 398 631 433 637 493 637 c 0
 599 637 653 630 653 529 c 0xfc
 653 464 645 401 568 401 c 2
 449 401 l 1
 449 355 l 1
 449 355 559.420898438 364.42578125 601.482421875 364.42578125 c 0
 672.482421875 364.42578125 714 326.357421875 714 273 c 0
 714 232.090156733 668 168 668 168 c 1
 668 -187 l 5
 574 -187 l 5
 552 -103 l 5
 552 -103 392.02734375 -187 297 -187 c 4
 254 -187 175.724609375 -176.181640625 121 -93 c 4
 96 -55 44 51 44 51 c 5
 113 97 l 5
 178 2 l 6
 217.440429688 -55.6435546875 272 -69 300 -69 c 4
 397 -69 552 15 552 15 c 5
 552 67 l 17
449 489 m 1
 511 489 l 2
 543 489 558 490 558 515 c 0
 558 539 549 547 500 547 c 0
 451 547 449 538 449 489 c 1
EndSplineSet
EndChar

StartChar: NameMe.65645
Encoding: 297 -1 230
Width: 725
Flags: HW
HStem: 123 71<227.626 367.987> 342 70<290.085 493.471> 446 59<291 438.76> 575 61<-10 236 495 601> 587 49<297.728 442.071>
VStem: 42 47<419.185 447.681> 228 63<396 446 505 573.236> 443 55<509.683 574.636> 494 69<272.281 336.597>
LayerCount: 2
Back
Fore
SplineSet
544 156 m 1
 544 156 513.93359375 137.91796875 500 131 c 0
 464.748046875 113.499023438 409 100 378 100 c 0
 334 100 267.760742188 134.854492188 224 207 c 0
 150 329 126 437 126 437 c 1
 209 474 l 1
 209 474 260 363 305 282 c 0
 335 228 367 205 404 205 c 0
 422 205 460.728515625 219.280273438 486 231 c 0
 570.8359375 270.34375 586 300 498 300 c 0
 469 300 318 300 318 300 c 1
 318 481 l 2
 318 518 326 526 326 526 c 1xf680
 -10 526 l 1
 -10 636 l 5
 734 636 l 1
 734 526 l 1
 605 526 l 17
 605 526 607.891601562 527.564453125 608 509 c 1xf7
 608 444 599.994140625 411 523 411 c 2
 419 411 l 1
 419 378 l 1
 419 378 517.896484375 388 560 388 c 0
 637 388 678 359 678 313 c 0
 678 282 660 251 660 251 c 1
 660 -78 l 1
 566 -78 l 1
 544 6 l 1
 544 6 384.02734375 -78 289 -78 c 0
 246 -78 167.724609375 -67.181640625 113 16 c 0
 88 54 36 160 36 160 c 1
 105 206 l 1
 170 111 l 2
 209.440429688 53.3564453125 264 40 292 40 c 0
 389 40 544 124 544 124 c 1
 544 156 l 1
419 488 m 1
 476 488 l 2
 507.997070312 488 523 492 523 517 c 1
 523 538 514 538 463 538 c 0xef
 437.251953125 538 419 534 419 488 c 1
EndSplineSet
EndChar

StartChar: NameMe.65646
Encoding: 298 -1 231
Width: 620
VWidth: 0
Flags: HW
HStem: 0 71<169.774 287.331> 575 61<-10 86 153 631>
VStem: 86 67<86.6083 408 463 574> 473 71<242.424 343.49>
LayerCount: 2
Back
Fore
SplineSet
192 393 m 1
 192 208 l 1
 192 148 192 116 232 116 c 0
 276 116 360 162 417 238 c 0
 441.298828125 270.397460938 447 288 447 307 c 0
 447 343 422.219726562 346 388 353 c 0
 290.258789062 372.993164062 192 393 192 393 c 1
442 103 m 1
 442 103 329 0 228 0 c 0
 163 0 80 29 80 159 c 2
 80 526 l 1
 -10 526 l 1
 -10 636 l 1
 631 636 l 1
 631 526 l 1
 192 526 l 17
 192 488 l 25
 192 488 238.709960938 482.448242188 276 478 c 0
 394.9765625 463.806640625 419.131835938 459.709960938 448 454 c 0
 539 436 563 375.7421875 563 316 c 4
 563 300 558 280 558 280 c 5
 558 -164 l 1
 464 -164 l 1
 442 -80 l 1
 442 -80 282.02734375 -164 187 -164 c 0
 144 -164 65.724609375 -153.181640625 11 -70 c 0
 -14 -32 -66 74 -66 74 c 1
 3 120 l 1
 68 25 l 2
 107.440429688 -32.6435546875 162 -46 190 -46 c 0
 287 -46 442 38 442 38 c 1
 442 103 l 1
EndSplineSet
EndChar

StartChar: NameMe.65647
Encoding: 299 -1 232
Width: 795
VWidth: 0
Flags: HW
HStem: 174 82<151.064 215.307> 575 61<-14 79 146 682>
VStem: 79 67<259.941 463 516 574> 363 70<344.354 404.797> 528 66<254.791 377.555>
LayerCount: 2
Back
Fore
SplineSet
386 361 m 0
 386 375 380 384 335 395 c 0
 287.4921875 406.61328125 244 416 244 416 c 1
 244 340 l 1
 244 286 265.698242188 277.590820312 293 292 c 0
 329 311 386 342.772460938 386 361 c 0
562 -36 m 1
 562 -36 390 9 308 42 c 1
 327 142 l 1
 327 142 602 226 618 274 c 0
 622 286 623 298 623 308 c 0
 623 320 616.764648438 325.516601562 578 339 c 0
 555 347 517 356 517 356 c 1
 517 322 504.833007812 300.815429688 462 272 c 0
 412.134765625 238.454101562 313 162 241 162 c 0
 202 162 139 184.000976562 139 268 c 2
 139 526 l 1
 -14 526 l 1
 -14 636 l 1
 806 636 l 1
 806 526 l 1
 244 526 l 1
 244 506 l 1
 244 506 411 479 578 445 c 0
 673.89453125 425.4765625 731 402 731 307 c 0
 731 279 726.454101562 258.564453125 721 228 c 0
 706.754882812 148.17578125 506 96 506 96 c 1
 753 15 l 1
 725 -72 l 1
 678 -64 l 1
 678 -250 l 1
 584 -250 l 1
 562 -166 l 1
 562 -166 402.02734375 -250 307 -250 c 0
 264 -250 185.724609375 -239.181640625 131 -156 c 0
 106 -118 54 -12 54 -12 c 1
 123 34 l 1
 188 -61 l 2
 227.440429688 -118.643554688 282 -132 310 -132 c 0
 407 -132 562 -48 562 -48 c 1
 562 -36 l 1
EndSplineSet
EndChar

StartChar: NameMe.65648
Encoding: 300 -1 233
Width: 950
Flags: HW
HStem: 24.8799 75.2969<357.951 466.021> 291 66<417.081 603.173> 575 62<-15 355 418 958>
VStem: 355 63<345 493 551.756 575> 604.099 71.1387<226.334 287.791> 716 35<-16 7.91089> 790.237 68.2441<306.531 395.602>
LayerCount: 2
Back
Fore
SplineSet
834 38 m 1
 834 -184 l 1
 740 -184 l 1
 718 -100 l 1
 718 -100 392.02734375 -184 297 -184 c 0
 254 -184 175.724609375 -173.181640625 121 -90 c 0
 96 -52 44 54 44 54 c 1
 113 100 l 1
 178 5 l 2
 217.440429688 -52.6435546875 272 -66 300 -66 c 0
 397 -66 718 18 718 18 c 1
 718 36 l 1
 718 36 764.562071543 176.652187966 790.518554688 267.977539062 c 0
 804.528320312 317.26953125 786.256835938 346.692382812 737.518554688 360.977539062 c 0
 679.518554688 377.977539062 463 408 463 408 c 1
 463 343 l 5
 463 343 558.6484375 352 601 352 c 0
 669 352 705.237304688 317 705.237304688 260.31640625 c 0
 705.237304688 190.743164062 611.618164062 111.046875 547 53 c 0
 517.8203125 26.697265625 468.412109375 -2.296875 420.502929688 -2.296875 c 0
 373.201171875 -2.296875 295.581320243 23.940604722 216 115 c 0
 112 234 55 416 55 416 c 1
 132 454 l 1
 132 454 231 287 296 199 c 0
 332.514128747 149.565487235 376.06640625 111 413 111 c 0
 430.963867188 111 454.873046875 118.967773438 476.588867188 136.823242188 c 0
 522.266601562 174.380859375 567 215 567 233 c 0
 567 251.233398438 550.264648438 258 523 258 c 0
 494 258 355 258 355 258 c 1
 355 526 l 1
 -15 526 l 1
 -15 637 l 1
 958 637 l 1
 958 526 l 1
 463 526 l 1
 463 499 l 1
 463 499 688.518554688 476.977539062 773.518554688 456.977539062 c 0
 850.142578125 438.948242188 917 413.603515625 917 339 c 0
 917 326.081054688 915.134227382 310.961238657 910.518554688 294.977539062 c 2
 834 38 l 1
EndSplineSet
EndChar

StartChar: NameMe.65649
Encoding: 301 -1 234
Width: 945
VWidth: 0
Flags: HW
HStem: 0 21G<378.5 512> 575 61<-14 447 686 790>
VStem: 447 65<82 198 271 459 532 575> 621 65<39 160 219 575>
LayerCount: 2
Back
Fore
SplineSet
558 0 m 1
 214 232 l 1
 214 379 l 1
 556 507 l 9
 556 526 l 1
 -14 526 l 17
 -14 636 l 1
 674 636 l 9
 674 296 l 1
 773 246 l 25
 773 636 l 1
 767 702 l 1
 844 702 l 1
 866 636 l 1
 962 636 l 1
 962 526 l 1
 882 526 l 25
 882 39 l 1
 773 39 l 1
 773 140 l 1
 674 168 l 17
 674 -214 l 1
 580 -214 l 1
 558 -130 l 1
 558 -130 398.02734375 -214 303 -214 c 0
 260 -214 181.724609375 -203.181640625 127 -120 c 0
 102 -82 50 24 50 24 c 1
 119 70 l 1
 184 -25 l 2
 223.440429688 -82.6435546875 278 -96 306 -96 c 0
 403 -96 558 -12 558 -12 c 1
 558 0 l 1
327 296 m 17
 556 132 l 1
 556 388 l 1
 327 296 l 17
EndSplineSet
EndChar

StartChar: NameMe.65650
Encoding: 302 -1 235
Width: 1035
VWidth: 0
Flags: HW
HStem: -0 72<242.42 416.639> 556 74<399.532 531.126>
VStem: 553 69<152 533.946> 575 47<0 26.7273>
LayerCount: 2
Back
Fore
SplineSet
633 84 m 1
 633 84 480.524414062 0 386 0 c 0
 343 0 270.724609375 5.818359375 216 89 c 0
 191 127 137 260 137 260 c 1
 206 303 l 1
 280 188 l 2
 318.7578125 129.864257812 361 118 389 118 c 0
 479.877929688 118 633 202 633 202 c 1
 633 433 l 1
 633 491 594 516 552 516 c 0
 484.774414062 516 302 400 302 400 c 1xe0
 249 471 l 1
 370 577 471 636 551 636 c 0
 675 636 726 547 726 547 c 1
 726 547 818 569 855 569 c 0
 919 569 993 568 993 455 c 2
 993 417 l 2
 993 384 989 337 948 331 c 1
 989 324 992 277 992 244 c 2
 992 193 l 2
 992 81 912.017578125 81 855 81 c 0
 813 81 740 90 740 90 c 1
 740 -176 l 1
 655 -176 l 1
 633 -92 l 1
 633 -92 406.02734375 -176 311 -176 c 0
 268 -176 189.724609375 -165.181640625 135 -82 c 0
 110 -44 58 62 58 62 c 1
 127 108 l 1
 192 13 l 2
 231.440429688 -44.6435546875 286 -58 314 -58 c 0
 411 -58 633 26 633 26 c 1
 633 84 l 1
740 186 m 17
 740 186 814.905273438 186 855 186 c 0
 881 186 901 196 901 228 c 0
 901 266.677734375 885.59765625 278 848 278 c 2
 795 278 l 17
 795 379 l 9
 838 379 l 2
 877.34375 379 891 381.376953125 891 422 c 0
 891 455 872 464 847 464 c 0xee80
 806.35546875 464 740 464 740 464 c 9xf680
 740 186 l 17
EndSplineSet
EndChar

StartChar: NameMe.65651
Encoding: 303 -1 236
Width: 740
VWidth: 0
Flags: HW
HStem: 0 71<163.774 274.966> 337 66<269 457.897> 337 58<269 405.344> 575 61<-13 80 147 416 486 620> 708 64<132.908 404.718>
VStem: 80 67<86.6083 574> 416 70<636 696.221> 468 72<241.198 324.635>
LayerCount: 2
Back
Fore
SplineSet
552 89 m 1
 552 30 l 1
 552 30 397 -54 300 -54 c 0
 272 -54 217.440429688 -40.6435546875 178 17 c 2
 113 112 l 1
 44 66 l 1
 44 66 96 -40 121 -78 c 0
 175.724609375 -161.181640625 254 -172 297 -172 c 0
 392.02734375 -172 552 -88 552 -88 c 1
 574 -172 l 1
 668 -172 l 1
 668 226 l 1
 668 226 688 264 688 305 c 0xdd
 688 370.557617188 651 441 543 441 c 0
 508 441 399 433 399 433 c 1xbd
 409 337 l 1xdd
 409 337 418 337 463 337 c 0
 512 337 564 332 564 292 c 0
 564 277 557.627929688 253.627929688 533 229 c 0
 471 167 397 131 362 131 c 0
 318 131 322 180.6015625 322 226 c 0
 322 267 322 526 322 526 c 1
 753 526 l 9
 753 636 l 1
 666 636 l 21
 666 714 660 779 508 779 c 4
 354 779 187 765 187 765 c 5
 191 682 l 21
 191 682 395.614257812 682 481 682 c 4
 529 682 545 679 545 636 c 13
 -12 636 l 1
 -12 526 l 1
 209 526 l 17
 209 159 l 2
 209 37 283 0 348 0 c 0
 451 0 552 89 552 89 c 1
EndSplineSet
EndChar

StartChar: NameMe.65652
Encoding: 304 -1 237
Width: 700
Flags: HW
HStem: -0.148438 74.1484<239.079 318.497> 574.179 61.8213<-14 168 240 593>
VStem: 168 72<534.535 574> 455 73<186.759 263.177>
LayerCount: 2
Back
Fore
SplineSet
542 76 m 1
 542 76 433.287109375 -0.1484375 399.408203125 -0.1484375 c 0
 356.78515625 -0.1484375 195 149 195 149 c 1
 195 217 l 1
 195 217 270.805664062 311.971679688 304 352 c 0
 338 393 348 415.7890625 348 438 c 0
 348 468 308 494 288 526 c 1
 -14 526 l 1
 -14 636 l 1
 274 636.328125 l 17
 274 636.328125 275.094726562 659.717773438 300.408203125 687.328125 c 0
 353.961914062 745.740234375 482 838 482 838 c 1
 539.18359375 779.328125 l 1
 539.18359375 779.328125 442.03515625 689.508789062 411.18359375 658.328125 c 0
 400.703125 647.736328125 395 636.328125 395 636.328125 c 9
 714 636 l 1
 714 526 l 1
 412 526 l 1
 412 506 669 316 669 225 c 0
 669 217.123046875 658 196 658 196 c 1
 658 -177 l 1
 564 -177 l 1
 542 -93 l 1
 542 -93 382.02734375 -177 287 -177 c 0
 244 -177 165.724609375 -166.181640625 111 -83 c 0
 86 -45 34 61 34 61 c 1
 103 107 l 1
 168 12 l 2
 207.440429688 -45.6435546875 262 -59 290 -59 c 0
 387 -59 542 25 542 25 c 1
 542 76 l 1
543 236 m 0
 543 263 424.094726562 364.038085938 424.094726562 364.038085938 c 1
 424.094726562 337.907226562 396.750976562 303.98828125 375 275 c 0
 335.4453125 222.283203125 317 198 317 198 c 1
 317 198 381.616210938 124 407 124 c 0
 424.641601562 124 543 203 543 236 c 0
EndSplineSet
EndChar

StartChar: NameMe.65653
Encoding: 305 -1 238
Width: 740
VWidth: 0
Flags: HW
HStem: 0 71<158.774 269.966> 337 66<264 452.897> 337 58<264 400.344> 575 61<-14 75 142 612>
VStem: 75 67<86.6083 575> 463 72<241.198 324.635>
LayerCount: 2
Back
Fore
SplineSet
-12 636.328125 m 17
 -12 526 l 1
 209 526 l 17
 209 159 l 2
 209 37 283 0 348 0 c 0
 451 0 552 89 552 89 c 5
 552 30 l 5
 552 30 397 -54 300 -54 c 4
 272 -54 217.440429688 -40.6435546875 178 17 c 6
 113 112 l 5
 44 66 l 5
 44 66 96 -40 121 -78 c 4
 175.724609375 -161.181640625 254 -172 297 -172 c 4
 392.02734375 -172 552 -88 552 -88 c 5
 574 -172 l 5
 668 -172 l 5
 668 226 l 5
 668 226 688 264 688 305 c 0
 688 370.557617188 651 441 543 441 c 0
 508 441 399 433 399 433 c 1
 409 337 l 1
 409 337 418 337 463 337 c 0
 512 337 564 332 564 292 c 0
 564 277 557.627929688 253.627929688 533 229 c 0
 471 167 397 131 362 131 c 0
 318 131 322 180.6015625 322 226 c 0
 322 267 322 526 322 526 c 1
 753 526 l 9
 753 636 l 9
 -12 636.328125 l 17
EndSplineSet
EndChar

StartChar: NameMe.65654
Encoding: 306 -1 239
Width: 735
VWidth: 0
Flags: HW
HStem: 0 21G<462 531> 538.592 68.2524<170.512 328.632> 575 61<531 632>
VStem: 77.3553 68.3918<406.747 513.054> 462 69<0 474.527 540 575>
LayerCount: 2
Back
Fore
SplineSet
668 526 m 9xb8
 752 526 l 1
 752 636 l 1
 668 636 l 1
 668 702 l 1
 584 702 l 1
 562 636 l 1
 562 540 l 1
 562 540 419.974609375 606.84375 337.79296875 606.84375 c 0xd8
 299.377929688 606.84375 254 603 210 571 c 0
 178.826171875 548.328125 154.35546875 506 154.35546875 456.431640625 c 0
 154.35546875 406 169.176757812 367.008789062 200 335 c 0
 252 281 325 245 325 245 c 1
 387 314 l 1
 387 314 291.459960938 405.810546875 278 426 c 0
 258 456 276.018554688 500.591796875 322.3359375 500.591796875 c 0
 426.426757812 500.591796875 562 425 562 425 c 1
 562 118 l 5
 562 118 407 34 310 34 c 4
 282 34 227.440429688 47.3564453125 188 105 c 6
 123 200 l 5
 54 154 l 5
 54 154 106 48 131 10 c 4
 185.724609375 -73.181640625 264 -84 307 -84 c 4
 402.02734375 -84 556 -2 556 -2 c 5
 578 -84 l 5
 668 -84 l 5
 668 526 l 9xb8
EndSplineSet
EndChar

StartChar: NameMe.65655
Encoding: 307 -1 240
Width: 650
VWidth: 0
Flags: HW
HStem: -0 72<242.42 416.639> 556 74<399.532 531.126>
VStem: 553 69<152 533.946> 575 47<0 26.7273>
LayerCount: 2
Back
Fore
SplineSet
600 315 m 1
 600 -25 l 1
 515 -25 l 1xd0
 493 59 l 1
 493 59 358 -25 277 -25 c 0
 234 -25 161.724609375 -19.181640625 107 64 c 0
 82 102 38 211 38 211 c 1
 107 254 l 1
 171 163 l 2
 210.864257812 106.318359375 252 93 280 93 c 0
 344 93 493 177 493 177 c 1
 493 290 l 1
 493 348 454 373 412 373 c 0
 344.774414062 373 254 306 254 306 c 1xe0
 201 377 l 1
 298 467 380 493 428 493 c 0
 571 493 600 397 600 315 c 1
662 526 m 25
 -14 526 l 1
 -14 636 l 1
 662 636 l 1
 662 526 l 25
EndSplineSet
EndChar

StartChar: NameMe.65656
Encoding: 308 -1 241
Width: 740
VWidth: 0
Flags: HW
HStem: 0 21G<-33.5 105> 533 72.0107<-386.927 -138.391> 575 61<105 187>
VStem: -124 69<415.883 516.928> 40 65<82 575> 40 38<677.684 702>
LayerCount: 2
Back
Fore
SplineSet
552 0 m 1
 135 230 l 1
 135 334 l 1
 135 334 379 407 379 454 c 0
 379 489 376 502 275 502 c 0
 217 502 142 502 142 502 c 1
 127 592 l 1
 127 592 204 605 278 605 c 0
 437.10546875 605 485 555 485 434 c 0
 485 348 286 275 286 275 c 1
 552 127 l 1
 552 636 l 1
 546 702 l 1
 633 702 l 1
 657 637 l 1
 751 637 l 17
 751 526 l 1
 668 526 l 5
 668 -214 l 5
 574 -214 l 1
 552 -130 l 1
 552 -130 392.02734375 -214 297 -214 c 0
 254 -214 175.724609375 -203.181640625 121 -120 c 0
 96 -82 44 24 44 24 c 1
 113 70 l 1
 178 -25 l 2
 217.440429688 -82.6435546875 272 -96 300 -96 c 0
 397 -96 552 -12 552 -12 c 1
 552 0 l 1
EndSplineSet
EndChar

StartChar: NameMe.65657
Encoding: 309 -1 242
Width: 760
Flags: HW
HStem: -32 72<109.42 283.639> 575 61<2 126 193 603>
VStem: 126 67<332 575> 415 74<119 224.778> 442 47<-32 -5.27273>
LayerCount: 2
Back
Fore
SplineSet
554 150 m 1
 554 98 l 1
 554 98 399 14 302 14 c 0
 274 14 219.440429688 27.3564453125 180 85 c 2
 115 180 l 1
 46 134 l 1
 46 134 98 28 123 -10 c 0
 177.724609375 -93.181640625 256 -104 299 -104 c 0
 394.02734375 -104 554 -20 554 -20 c 1
 576 -104 l 1
 670 -104 l 1
 670 180 l 1
 710.900390625 429 l 1
 638.900390625 466.60546875 l 1
 377 359 l 1
 377 526 l 1
 770 526 l 1
 770 636.328125 l 1
 -11 636.328125 l 1
 -11 526 l 1
 268 526 l 17
 268.103515625 294.500976562 l 1
 332 212 l 1
 581 324 l 1
 554 150 l 1
EndSplineSet
EndChar

StartChar: NameMe.65658
Encoding: 310 -1 243
Width: 745
VWidth: 0
Flags: HW
HStem: 0 21G<378.5 512> 575 61<512 587> 606.29 55.7998<160.3 291.959>
VStem: 88.4199 62.707<516.104 597.539> 447 65<77 459 528 575>
LayerCount: 2
Back
Fore
SplineSet
678 0 m 1
 678 -214 l 1
 584 -214 l 1
 562 -130 l 1
 562 -130 402.02734375 -214 307 -214 c 0
 264 -214 185.724609375 -203.181640625 131 -120 c 0
 106 -82 54 24 54 24 c 1
 123 70 l 1
 188 -25 l 2
 227.440429688 -82.6435546875 282 -96 310 -96 c 0
 407 -96 562 -12 562 -12 c 1
 562 0 l 1
 191 242 l 1
 191 330 l 1
 337 389 l 1
 337 389 202 454 202 537 c 0
 202 602 240.419921875 665.536132812 331 665.536132812 c 0
 405.419921875 665.536132812 491 628 491 628 c 1
 468 546 l 1
 468 546 315 591 315 545 c 0
 315 506.692382812 465 438 465 438 c 1
 564 477 l 1
 564 636 l 1
 558 702 l 1
 643 702 l 1
 667 637 l 1
 757 637 l 17
 757 526 l 1
 678 526 l 1
 678 0 l 1
564 134 m 1
 564 368 l 1
 346 276 l 1
 564 134 l 1
EndSplineSet
EndChar

StartChar: NameMe.65659
Encoding: 311 -1 244
Width: 725
VWidth: 0
Flags: HW
HStem: 0 21G<488 555> 362.225 70.1726<181.576 330.97> 575 61<-14 488 555 655>
VStem: 89.3553 68.3918<229.747 337.85> 488 67<0 290 363 574>
LayerCount: 2
Back
Fore
SplineSet
668 526 m 1
 738 526 l 1
 738 636 l 1
 -14 636 l 1
 -14 526 l 1
 562 526 l 1
 562 376 l 1
 562 376 395.987304688 442 319 442 c 0
 270.944335938 442 238.5390625 431.780273438 205.036132812 401.6015625 c 0
 176.39453125 375.803710938 159.390625 338.733398438 159.390625 299.033203125 c 0
 159.390625 237.630859375 189.565429688 186.377929688 220 154 c 0
 267 104 338 54 338 54 c 1
 393 132 l 1
 393 132 293.166992188 223.205078125 277 263 c 0
 264 295 279 328.225585938 330.708007812 328.225585938 c 0
 401.787109375 328.225585938 562 266 562 266 c 1
 562 90 l 1
 562 90 407 6 310 6 c 0
 282 6 227.440429688 19.3564453125 188 77 c 2
 123 172 l 1
 54 126 l 1
 54 126 106 20 131 -18 c 0
 185.724609375 -101.181640625 264 -112 307 -112 c 0
 402.02734375 -112 556 -30 556 -30 c 1
 578 -112 l 1
 668 -112 l 1
 668 526 l 1
EndSplineSet
EndChar

StartChar: NameMe.65660
Encoding: 312 -1 245
Width: 770
VWidth: 0
Flags: HW
HStem: 0 21G<554.004 621.598> 549 70<246.602 386.414> 575 61<621.598 709.598>
VStem: 554.004 67.5938<0 384 455 575>
LayerCount: 2
Back
Fore
SplineSet
700 526 m 17
 700 -86 l 5
 612 -86 l 5
 590 -5 l 5
 590 -5 401.02734375 -86 306 -86 c 4
 263 -86 184.724609375 -75.181640625 130 8 c 4
 105 46 53 152 53 152 c 5
 122 198 l 5
 187 103 l 6
 226.440429688 45.3564453125 281 32 309 32 c 4
 406 32 594 116 594 116 c 5
 594 335 l 1
 539 386 l 1
 337 204 l 1
 257 215 l 1
 158 397 l 1
 99 357 l 1
 49 427 l 1
 49 427 142 518 256 588 c 0
 286.547851562 606.7578125 323 622 352 622 c 0xd0
 388 622 414.337890625 610.57421875 437 595 c 0
 509.928710938 544.881835938 594 460 594 460 c 1
 594 636 l 1
 616 702 l 1
 700 702 l 1
 700 636 l 1
 784 636 l 1
 784 526 l 1
 700 526 l 17
454 449 m 1xd0
 454 449 446 458 430 471 c 0
 400.661248272 494.837735779 372 512 344 512 c 0
 316 512 295.837909443 496.756811177 283 487 c 0
 258 468 247 459 247 459 c 1
 318 329 l 1
 454 449 l 1xd0
EndSplineSet
EndChar

StartChar: NameMe.65661
Encoding: 313 -1 246
Width: 1000
VWidth: 0
Flags: HW
HStem: 0 21G<-45.5 88.035> 575 61<-501 -372 -340 23 89 196>
VStem: -182.952 88.1683<380.118 431.281> 23 65<82 575>
LayerCount: 2
Back
Fore
SplineSet
572 0 m 1
 572 -12 l 1
 572 -12 417 -96 320 -96 c 0
 292 -96 237.440429688 -82.6435546875 198 -25 c 2
 133 70 l 1
 64 24 l 1
 64 24 116 -82 141 -120 c 0
 195.724609375 -203.181640625 274 -214 317 -214 c 0
 412.02734375 -214 572 -130 572 -130 c 1
 594 -214 l 1
 688 -214 l 1
 688 0 l 1
 688 390 l 25
 783 390 l 2
 809 390 840 376 840 340 c 0
 840 327 835.381835938 312.827148438 824 300 c 2
 751 229 l 1
 815 175 l 1
 815 175 884 216 922 272 c 0
 937.571289062 294.946289062 948 329 948 351 c 0
 948 424 889 489 793 489 c 2
 578 489 l 25
 578 125 l 1
 365 237 l 1
 365 237 387.609375 250.965820312 451 289 c 0
 481 307 495 330.91015625 495 363 c 0
 495 405 467 433 421 455 c 0
 352.080078125 487.961914062 277 526 277 526 c 1
 1011 526 l 1
 1011 636 l 1
 -10 636 l 1
 -10 526 l 1
 208 526 l 1
 187 481 l 1
 187 481 304.796875 406.711914062 345 382 c 0
 369.723632812 366.803710938 367 353 351 343 c 0
 210 269 l 1
 210 185 l 1
 572 0 l 1
EndSplineSet
EndChar

StartChar: NameMe.65662
Encoding: 314 -1 247
Width: 760
VWidth: 0
Flags: HW
HStem: 0 21G<378.5 512.035> 575 61<-14 447 513 615>
VStem: 447 65<82 459 532 575>
LayerCount: 2
Back
Fore
SplineSet
577 0 m 1
 233 232 l 1
 233 379 l 1
 575 507 l 9
 575 526 l 1
 -14 526 l 17
 -14 636 l 1
 772 636 l 9
 772 526 l 9
 693 526 l 17
 693 -214 l 1
 599 -214 l 1
 577 -130 l 1
 577 -130 417.02734375 -214 322 -214 c 0
 279 -214 200.724609375 -203.181640625 146 -120 c 0
 121 -82 69 24 69 24 c 1
 138 70 l 1
 203 -25 l 2
 242.440429688 -82.6435546875 297 -96 325 -96 c 0
 422 -96 577 -12 577 -12 c 1
 577 0 l 1
346 296 m 17
 575 138 l 1
 575 388 l 1
 346 296 l 17
EndSplineSet
EndChar

StartChar: NameMe.65663
Encoding: 315 -1 248
Width: 850
VWidth: 0
Flags: HW
HStem: 37 75<363.864 504.38> 286 68<371.552 569.472> 340 85<612.14 671.224> 456 60.0979<371.122 500> 456 50<395.025 500> 575 61<-14 860>
VStem: 305 65<356.449 454.844> 692 79<245.224 318.398>
LayerCount: 2
Back
Fore
SplineSet
682 243 m 4
 682 148 l 5
 682 148 433 64 336 64 c 4
 308 64 253.440429688 77.3564453125 214 135 c 6
 149 230 l 5
 80 184 l 5
 80 184 132 78 157 40 c 4
 211.724609375 -43.181640625 290 -54 333 -54 c 4
 428.02734375 -54 682 30 682 30 c 5
 704 -54 l 5
 798 -54 l 5
 798 253 l 5
 798 300 699 444 657 444 c 0
 639.469726562 444 532.32421875 349 503 349 c 0xd7
 447 349 436 349 411 349 c 0
 395 349 381 354 381 372 c 0
 381 398 387 399 406 399 c 0
 443.09765625 399 500 399 500 399 c 1
 505 475 l 1x8f
 505 475 428.892157357 486.30080159 392.72265625 489.09765625 c 0xd7
 365.925358749 491.169792832 322 496 298 473 c 0
 273.389213559 449.414662994 274 380 274 317 c 0
 274 262 360 254 391 254 c 0
 433 254 521 254 546 254 c 0
 574 254 624.374023438 312 635 312 c 0
 647 312 682 251 682 243 c 4
860 526 m 1
 -14 526 l 1
 -14 636 l 1
 860 636 l 1
 860 526 l 1
EndSplineSet
EndChar

StartChar: NameMe.65664
Encoding: 316 -1 249
Width: 735
VWidth: 0
Flags: HW
HStem: 342 67<332.722 413.263> 421 69<135.765 189.345> 575 61<-10 141 216 409 469 557>
VStem: 54 65<331.99 407.748> 208.834 67.1661<478.314 530.166> 439 67<435.732 545.159>
LayerCount: 2
Back
Fore
SplineSet
562 276 m 1
 562 276 555.0625 263 548 263 c 0
 510.515625 263 279 369 237 369 c 0
 226 369 221.188476562 362.881835938 208 342 c 0
 196 323 195.3828125 317.967773438 214 301 c 0
 236.581054688 280.419921875 254 268 254 268 c 1
 209 190 l 1
 209 190 135.092773438 231.953125 118 245 c 0
 97.013671875 261.018554688 82 285 82 306 c 0
 82 329 87.0693359375 346.958007812 104 375 c 0
 136 428 174 489 213 489 c 0
 230 489 293 465 293 465 c 1
 293 465 312 488.052734375 312 494 c 0
 312 506 288 526 288 526 c 1
 -10 526 l 1
 -10 636 l 1
 746 636 l 1
 746 526 l 1
 650 526 l 1
 650 526 678 487.090820312 678 465 c 1
 678 -105 l 1
 584 -105 l 1
 562 -21 l 1
 562 -21 402.02734375 -105 307 -105 c 0
 264 -105 185.724609375 -94.181640625 131 -11 c 0
 106 27 54 133 54 133 c 1
 123 179 l 1
 188 84 l 2
 227.440429688 26.3564453125 282 13 310 13 c 0
 407 13 562 97 562 97 c 1
 562 276 l 1
395 435 m 1
 395 435 483 392 505 392 c 0
 518 392 560 445 560 467 c 0
 560 487 539 526 539 526 c 1
 402 526 l 1
 402 526 426 505 426 485 c 0
 426 471 395 435 395 435 c 1
EndSplineSet
EndChar

StartChar: NameMe.65665
Encoding: 317 -1 250
Width: 735
VWidth: 0
Flags: HW
HStem: 0 21G<-45.5 88.035> 575 61<-501 -372 -340 23 89 196>
VStem: -182.952 88.1683<380.118 431.281> 23 65<82 575>
LayerCount: 2
Back
Fore
SplineSet
562 0 m 1
 200 185 l 1
 200 269 l 1
 341 343 l 0
 357 353 359.723632812 366.803710938 335 382 c 0
 294.796875 406.711914062 177 481 177 481 c 1
 198 526 l 1
 -10 526 l 1
 -10 636 l 1
 746 636 l 1
 746 526 l 9
 678 526 l 17
 678 -214 l 1
 584 -214 l 1
 562 -130 l 1
 562 -130 402.02734375 -214 307 -214 c 0
 264 -214 185.724609375 -203.181640625 131 -120 c 0
 106 -82 54 24 54 24 c 1
 123 70 l 1
 188 -25 l 2
 227.440429688 -82.6435546875 282 -96 310 -96 c 0
 407 -96 562 -12 562 -12 c 1
 562 0 l 1
485 363 m 0
 485 330.91015625 471 307 441 289 c 0
 377.609375 250.965820312 355 237 355 237 c 1
 568 128 l 1
 568 526 l 1
 267 526 l 1
 267 526 342.080078125 487.961914062 411 455 c 0
 457 433 485 405 485 363 c 0
EndSplineSet
EndChar

StartChar: NameMe.65666
Encoding: 318 -1 251
Width: 780
VWidth: 0
Flags: HW
HStem: -179.752 97.9033<-204.327 -109>
VStem: -204.327 95.3271<-179.752 -81.8486>
LayerCount: 2
Back
Fore
SplineSet
598 0 m 1
 254 232 l 1
 254 379 l 1
 596 507 l 9
 596 526 l 1
 -14 526 l 17
 -14 636 l 1
 790 636 l 9
 790 526 l 9
 714 526 l 25
 714 279.333007812 714 32.6669921875 714 -214 c 1
 620 -214 l 1
 598 -130 l 1
 598 -130 400.02734375 -214 305 -214 c 0
 262 -214 183.724609375 -203.181640625 129 -120 c 0
 104 -82 52 24 52 24 c 1
 121 70 l 1
 186 -25 l 2
 225.440429688 -82.6435546875 280 -96 308 -96 c 0
 405 -96 598 -12 598 -12 c 1
 598 0 l 1
246.052734375 -15 m 2xe0
 246.052734375 75 l 2
 246.052734375 90 254.052734375 100 270.052734375 100 c 2
 358.052734375 100 l 2
 373.052734375 100 381.052734375 89 381.052734375 75 c 2
 381.052734375 -15 l 2
 381.052734375 -30 372.052734375 -38 358.052734375 -38 c 2
 270.052734375 -38 l 2
 256.052734375 -38 246.052734375 -29 246.052734375 -15 c 2xe0
367 296 m 17
 596 140 l 1
 596 388 l 1
 367 296 l 17
EndSplineSet
EndChar

StartChar: NameMe.65667
Encoding: 319 -1 252
Width: 800
VWidth: 0
Flags: HW
HStem: 0 21G<588 655> 384 67<158.219 335.585 445.319 572.813> 575 61<-14 588 655 759>
VStem: 73 65<257.333 364.122> 357 52<206 258.182> 588 67<0 369.076 435 574>
LayerCount: 2
Back
Fore
SplineSet
638 249 m 2
 638 314 628 333 570 333 c 0
 508.6171875 333 500.325195312 315.342773438 490 241 c 1
 484 188 l 1
 387 188 l 1
 384 240 l 2
 379.227539062 322.724609375 369 338 322 338 c 2
 274 338 l 2
 231 338 220 308 220 262 c 0
 220 229 260 92 260 92 c 1
 172 69 l 1
 172 69 102 181 102 314 c 0
 102 401 171.012695312 457.0546875 241 458 c 2
 343 459 l 2
 402 459 429 444 441 403 c 1
 463 446 479 454 540 454 c 2
 576 454 l 2
 613.284179688 454 638 436 638 436 c 1
 638 526 l 1
 -14 526 l 1
 -14 636 l 1
 811 636 l 1
 811 526 l 1
 744 526 l 1
 744 -214 l 1
 650 -214 l 1
 628 -130 l 1
 628 -130 404.02734375 -214 309 -214 c 0
 266 -214 187.724609375 -203.181640625 133 -120 c 0
 108 -82 56 24 56 24 c 1
 125 70 l 1
 190 -25 l 2
 229.440429688 -82.6435546875 284 -96 312 -96 c 0
 409 -96 638 -12 638 -12 c 1
 638 249 l 2
EndSplineSet
EndChar

StartChar: NameMe.65668
Encoding: 320 -1 253
Width: 670
VWidth: 0
Flags: HW
HStem: 0 21G<487 556> 264 66.751<37 184.45 283.794 403.674> 526 69<15.3355 190.982 284.308 476.52> 575 61<556 660>
VStem: 201 71<348.986 511.392> 487 69<0 509.715 572 575 636 661.773> 509 47<691.227 717>
LayerCount: 2
Back
Fore
SplineSet
488 468 m 1
 488 468 414 484 360 484 c 0
 305.770507812 484 293 474 293 421 c 2
 293 403 l 2
 294 374 303.794206464 356.06698853 323 355 c 0
 359 353 402 353 402 353 c 1
 411 260 l 1
 411 260 346 247 307 247 c 0
 263.115234375 247 239 284 239 284 c 1
 239 284 203.973632812 247 154 247 c 0
 115 247 30 252 30 252 c 1
 37 349 l 1
 37 349 104.0859375 349.9609375 136 353 c 0
 155.148758813 354.823468098 181 369 181 399 c 2
 181 424 l 2
 181 468 159 484 133 484 c 0
 98 484 -1 474 -1 474 c 1
 -10 567 l 1
 -10 567 105 595 157 595 c 0
 197 595 223 588 247 558 c 1
 267 588 299 590 342 590 c 0
 378 590 488 571 488 571 c 1
 488 636 l 1
 510 702 l 1
 594 702 l 1
 594 636 l 1
 678 636 l 1
 678 526 l 1
 594 526 l 1
 594 -128 l 5
 500 -128 l 5
 481 -49 l 5
 481 -49 338.02734375 -128 243 -128 c 4
 200 -128 121.724609375 -117.181640625 67 -34 c 4
 42 4 -10 110 -10 110 c 5
 59 156 l 5
 124 61 l 6
 163.440429688 3.3564453125 218 -10 246 -10 c 4
 343 -10 488 74 488 74 c 5
 488 468 l 1
EndSplineSet
EndChar

StartChar: NameMe.65669
Encoding: 321 -1 254
Width: 730
VWidth: 0
Flags: HW
HStem: 0 21G<-45.5 88.035> 575 61<-501 -372 -340 23 89 196>
VStem: -182.952 88.1683<380.118 431.281> 23 65<82 575>
LayerCount: 2
Back
Fore
SplineSet
561 0 m 1
 200 185 l 1
 200 269 l 1
 341 343 l 0
 357 353 359.723632812 366.803710938 335 382 c 0
 294.796875 406.711914062 177 481 177 481 c 1
 198 526 l 1
 -10 526 l 1
 -10 636 l 1
 741 636 l 1
 741 526 l 9
 678 526 l 25
 678 0 l 1
 678 -214 l 1
 584 -214 l 1
 562 -130 l 1
 562 -130 402.02734375 -214 307 -214 c 0
 264 -214 185.724609375 -203.181640625 131 -120 c 0
 106 -82 54 24 54 24 c 1
 123 70 l 1
 188 -25 l 2
 227.440429688 -82.6435546875 282 -96 310 -96 c 0
 407 -96 562 -12 562 -12 c 1
 561 0 l 1
568 397 m 1
 568 526 l 1
 267 526 l 1
 267 526 351 481 411 453 c 0
 478.98828125 421.272460938 524 397 568 397 c 1
568 297 m 1
 516 297 472.993164062 320 472.993164062 320 c 1
 472.993164062 320 456.521484375 298.313476562 441 289 c 0
 377.609375 250.965820312 355 237 355 237 c 1
 568 128 l 1
 568 297 l 1
EndSplineSet
EndChar

StartChar: NameMe.65670
Encoding: 322 -1 255
Width: 775
VWidth: 0
Flags: HW
HStem: 324 75<126.545 208.755 467.67 553.331> 575 61<-10 288 352.787 554 617 718>
VStem: 578 75<425.284 539.057>
LayerCount: 2
Back
Fore
SplineSet
698 416 m 1
 698 -81 l 1
 604 -81 l 1
 582 3 l 1
 582 3 422.02734375 -81 327 -81 c 0
 284 -81 205.724609375 -70.181640625 151 13 c 0
 126 51 74 157 74 157 c 1
 143 203 l 1
 208 108 l 2
 247.440429688 50.3564453125 302 37 330 37 c 0
 427 37 582 121 582 121 c 1
 582 278 l 1
 526 278 335 376 335 376 c 1
 335 376 277 274 230 274 c 0
 185 274 60 342 60 342 c 1
 97 425 l 1
 97 425 179 393 194 393 c 0
 224 393 285 526 285 526 c 1
 -10 526 l 1
 -10 636 l 1
 784 636 l 1
 784 526 l 1
 681 526 l 1
 681 526 714 487 714 463 c 0
 714 445.377929688 698 416 698 416 c 1
384 476 m 1
 384 476 536.126953125 405 552 405 c 0
 570 405 597 450 597 465 c 0
 597 485 568 526 568 526 c 1
 409 526 l 1
 384 476 l 1
EndSplineSet
EndChar

StartChar: NameMe.65671
Encoding: 323 -1 256
Width: 825
VWidth: 0
Flags: HW
HStem: 443 72<94.1278 405.041> 575 61<-14 593>
VStem: 429 65<303.208 423.284>
LayerCount: 2
Back
Fore
SplineSet
535 0 m 1
 535 -12 l 1
 535 -12 380 -96 283 -96 c 0
 255 -96 200.440429688 -82.6435546875 161 -25 c 2
 96 70 l 1
 27 24 l 1
 27 24 79 -82 104 -120 c 0
 158.724609375 -203.181640625 237 -214 280 -214 c 0
 375.02734375 -214 535 -130 535 -130 c 1
 557 -214 l 1
 651 -214 l 1
 651 -44 l 1
 740 -73 l 1
 783 5 l 1
 534 130 l 1
 534 130 786 189 786 329 c 0
 786 436.578125 749 489 581 489 c 0
 486.418945312 489 356 468 356 468 c 1
 367 378 l 1
 367 378 531 378 594 378 c 0xe8
 664 378 674 368 674 334 c 0
 674 266 350 195 350 195 c 1
 338 96 l 1
 384.654296875 66.4658203125 535 0 535 0 c 1
836 636 m 5
 836 526 l 29
 -14 526 l 1
 -14 636 l 1
 836 636 l 5
EndSplineSet
EndChar

StartChar: NameMe.65672
Encoding: 324 -1 257
Width: 785
VWidth: 0
Flags: HW
HStem: -152 98<332 427> -0.356499 76.9109<347.063 449.277> 358 70<390.247 602.702> 575 61<-14 325 390 759>
VStem: 325 65<412 575> 332 95<-152 -54> 613.638 69.363<249.539 347.349>
LayerCount: 2
Back
Fore
SplineSet
594 118 m 1
 594 -135 l 1
 594 -135 439 -219 342 -219 c 0
 314 -219 259.440429688 -205.643554688 220 -148 c 2
 155 -53 l 1
 86 -99 l 1
 86 -99 138 -205 163 -243 c 0
 217.724609375 -326.181640625 296 -337 339 -337 c 0
 434.02734375 -337 594 -253 594 -253 c 1
 616 -337 l 1
 710 -337 l 1
 710 -337 710 268 710 332 c 0
 710 404.993150364 651.998046875 456 569 456 c 0
 533 456 443 447.267578125 443 447.267578125 c 1
 443 526 l 9
 798 526 l 9
 798 636 l 1
 -14 636 l 1
 -14 526 l 1
 338 526 l 17
 338 344 l 1
 338 344 485 354 539 354 c 0
 577.724609375 354 601.638671875 346.4140625 601.638671875 312 c 0
 601.638671875 287 589.638671875 256.267578125 474.638671875 145.267578125 c 0
 453.19921875 124.57421875 431.638671875 116.53515625 409.638671875 116.53515625 c 0
 380.638671875 116.53515625 347.737304688 140.106445312 310 186.267578125 c 0
 244.00013976 267.000114256 136 439.267578125 136 439.267578125 c 1
 66 399 l 1
 66 399 122 236 245 97 c 0
 308.623145382 25.1006731052 364.976553329 -0.627911590181 409.94921875 -0.3564453125 c 0
 469 0 506.325326173 32.6134753154 530 53 c 0
 566 84 594 118 594 118 c 1
312 -147 m 2xe0
 312 -57 l 2
 312 -42 320 -32 336 -32 c 2
 424 -32 l 2
 439 -32 447 -43 447 -57 c 2
 447 -147 l 2
 447 -162 438 -170 424 -170 c 2
 336 -170 l 2
 322 -170 312 -161 312 -147 c 2xe0
EndSplineSet
EndChar

StartChar: NameMe.65673
Encoding: 325 -1 258
Width: 785
VWidth: 0
Flags: HW
HStem: -152 98<332 427> -0.356499 76.9109<347.063 449.277> 358 70<390.247 602.702> 575 61<-14 325 390 759>
VStem: 325 65<412 575> 332 95<-152 -54> 613.638 69.363<249.539 347.349>
LayerCount: 2
Back
Fore
SplineSet
594 118 m 5
 594 25 l 5
 594 25 439 -59 342 -59 c 4
 314 -59 259.440429688 -45.6435546875 220 12 c 6
 155 107 l 5
 86 61 l 5
 86 61 138 -45 163 -83 c 4
 217.724609375 -166.181640625 296 -177 339 -177 c 4
 434.02734375 -177 594 -93 594 -93 c 5
 616 -177 l 5
 710 -177 l 5
 710 -177 710 268 710 332 c 4
 710 404.993150364 651.998046875 456 569 456 c 0
 533 456 443 447.267578125 443 447.267578125 c 1
 443 526 l 9
 798 526 l 9
 798 636 l 1
 -14 636 l 1
 -14 526 l 1
 338 526 l 17
 338 344 l 1
 338 344 485 354 539 354 c 0
 577.724609375 354 601.638671875 346.4140625 601.638671875 312 c 0
 601.638671875 287 589.638671875 256.267578125 474.638671875 145.267578125 c 0
 453.19921875 124.57421875 431.638671875 116.53515625 409.638671875 116.53515625 c 0
 380.638671875 116.53515625 347.737304688 140.106445312 310 186.267578125 c 0
 244.00013976 267.000114256 136 439.267578125 136 439.267578125 c 1
 66 399 l 1
 66 399 122 236 245 97 c 0
 308.623145382 25.1006731052 364.976553329 -0.627911590181 409.94921875 -0.3564453125 c 0
 469 0 506.325326173 32.6134753154 530 53 c 0
 566 84 594 118 594 118 c 5
312 -323 m 2xe0
 312 -233 l 2
 312 -218 320 -208 336 -208 c 2
 424 -208 l 2
 439 -208 447 -219 447 -233 c 2
 447 -323 l 2
 447 -338 438 -346 424 -346 c 2
 336 -346 l 2
 322 -346 312 -337 312 -323 c 2xe0
EndSplineSet
EndChar

StartChar: NameMe.65674
Encoding: 326 -1 259
Width: 750
VWidth: 0
Flags: HW
HStem: 0 71<158.774 269.966> 337 66<264 452.897> 337 58<264 400.344> 575 61<-14 75 142 612>
VStem: 75 67<86.6083 575> 463 72<241.198 324.635>
LayerCount: 2
Back
Fore
SplineSet
-15 636.328125 m 17
 -15 526 l 1
 220 526 l 17
 220 159 l 2
 220 37 294 0 359 0 c 0
 462 0 563 89 563 89 c 1
 563 -134 l 1
 563 -134 408 -218 311 -218 c 0
 283 -218 228.440429688 -204.643554688 189 -147 c 2
 124 -52 l 1
 55 -98 l 1
 55 -98 107 -204 132 -242 c 0
 186.724609375 -325.181640625 265 -336 308 -336 c 0
 403.02734375 -336 563 -252 563 -252 c 1
 585 -336 l 1
 679 -336 l 1
 679 226 l 1
 679 226 699 264 699 305 c 0
 699 370.557617188 662 441 554 441 c 0
 519 441 410 433 410 433 c 1
 420 337 l 1
 420 337 429 337 474 337 c 0
 523 337 575 332 575 292 c 0
 575 277 568.627929688 253.627929688 544 229 c 0
 482 167 408 131 373 131 c 0
 329 131 333 180.6015625 333 226 c 0
 333 267 333 526 333 526 c 1
 767 526 l 9
 767 636 l 9
 -15 636.328125 l 17
299 -145 m 2xe0
 299 -55 l 2
 299 -40 307 -30 323 -30 c 2
 411 -30 l 2
 426 -30 434 -41 434 -55 c 2
 434 -145 l 2
 434 -160 425 -168 411 -168 c 2
 323 -168 l 2
 309 -168 299 -159 299 -145 c 2xe0
EndSplineSet
EndChar

StartChar: NameMe.65675
Encoding: 327 -1 260
Width: 735
VWidth: 0
Flags: HW
HStem: 0 21G<-45.5 88.035> 575 61<-501 -372 -340 23 89 196>
VStem: -182.952 88.1683<380.118 431.281> 23 65<82 575>
LayerCount: 2
Back
Fore
SplineSet
562 0 m 1
 200 185 l 1
 200 269 l 1
 341 343 l 0
 357 353 359.723632812 366.803710938 335 382 c 0
 294.796875 406.711914062 177 481 177 481 c 1
 198 526 l 1
 -10 526 l 1
 -10 636 l 1
 746 636 l 1
 746 526 l 9
 678 526 l 17
 678 -248 l 1
 584 -248 l 1
 562 -164 l 1
 562 -164 402.02734375 -248 307 -248 c 0
 264 -248 185.724609375 -237.181640625 131 -154 c 0
 106 -116 54 -10 54 -10 c 1
 123 36 l 1
 188 -59 l 2
 227.440429688 -116.643554688 282 -130 310 -130 c 0
 407 -130 562 -46 562 -46 c 1
 562 0 l 1
485 363 m 0
 485 330.91015625 471 307 441 289 c 0
 377.609375 250.965820312 355 237 355 237 c 1
 568 128 l 1
 568 526 l 1
 267 526 l 1
 267 526 342.080078125 487.961914062 411 455 c 0
 457 433 485 405 485 363 c 0
255 -59 m 2xe0
 255 31 l 2
 255 46 263 56 279 56 c 2
 367 56 l 2
 382 56 390 45 390 31 c 2
 390 -59 l 2
 390 -74 381 -82 367 -82 c 2
 279 -82 l 2
 265 -82 255 -73 255 -59 c 2xe0
EndSplineSet
EndChar

StartChar: NameMe.65676
Encoding: 328 -1 261
Width: 995
VWidth: 0
Flags: HW
HStem: 0 21G<604 669.053> 256 73<273.014 348.74> 377 61<505.149 604 670 825.115> 456 70<151.041 225.772> 575 61<-14 239 302 449 501 604 670 990>
VStem: 75 67<380.571 452.385> 182 72<163.093 238.238> 264 66<497.257 564.886> 354.586 72.4984<319.73 382.849> 442.701 58.2991<439.431 575> 604 66<0 164.01 221 377 438 575> 843 70<267.916 359.661>
LayerCount: 2
Back
Fore
SplineSet
604 124 m 1
 604 124 331 216 313 216 c 0
 305 216 293 195 302 187 c 0
 311 179 385 117 385 117 c 1
 335 42 l 1
 335 42 263.869140625 74.103515625 217 119 c 0
 198.099609375 137.104492188 182 162 182 184 c 0
 182 207 184 215 207 254 c 0
 239 308 263 322 290 322 c 0
 300 322 309 321 309 321 c 1
 309 321 239 368 207 384 c 0
 203.311523438 385.84375 199 386 197 386 c 0
 189 386 183 381 171 364 c 0
 162.485351562 351.9375 161 349 161 341 c 0
 161 335 167.841796875 328.8359375 173 324 c 0
 189 309 197 301 197 301 c 1
 152 236 l 1
 152 236 84.939453125 275.193359375 73.0849609375 286.0234375 c 0
 59.4716796875 298.459960938 46.0849609375 310.0234375 46.0849609375 329.0234375 c 0
 46.0849609375 346.0234375 56.9912109375 365.493164062 73.0849609375 394.0234375 c 0
 95.0849609375 433.0234375 144 499 173 499 c 0
 187 499 260 463.349609375 260 463.349609375 c 1
 260 463.349609375 267.66796875 479 264 489 c 24
 259.66796875 500 239 526 239 526 c 1
 -14 526 l 1
 -14 636 l 1
 1010 636 l 1
 1010 526 l 25
 715 526 l 1
 715 428 l 25
 848 428 l 2
 900 428 962 388 962 315 c 0
 962 293 956.401367188 261.803710938 944 237 c 0
 922 193 857 123 857 123 c 1
 783 172 l 1
 783 172 838.186523438 275.42578125 845 291 c 0
 859 323 828 328 796 328 c 2
 714 328 l 17
 714 -175 l 1
 620 -175 l 1
 598 -91 l 1
 598 -91 438.02734375 -175 343 -175 c 0
 300 -175 221.724609375 -164.181640625 167 -81 c 0
 142 -43 90 63 90 63 c 1
 159 109 l 1
 224 14 l 2
 263.440429688 -43.6435546875 318 -57 346 -57 c 0
 443 -57 604 27 604 27 c 1
 604 124 l 1
347 409 m 1
 347 409 381.939453125 382.8671875 402.915039062 364.9765625 c 0
 411.5546875 357.607421875 423 347 423 332 c 0
 423 323 410 293 410 293 c 1
 604 217 l 25
 604 328 l 1
 545 328 471 338 446 384 c 0
 438.921875 397.412109375 438.701171875 460.926757812 438.701171875 486.411132812 c 0
 438.701171875 509 439 526 439 526 c 1
 338 526 l 17
 338 526 368 494 368 480 c 0
 368 461 347 409 347 409 c 1
604 428 m 25
 604 526 l 25
 534 526 l 17
 534 526 534 484 534 456 c 0
 534 433.977284454 549 428 562 428 c 1
 604 428 l 25
EndSplineSet
EndChar

StartChar: NameMe.65677
Encoding: 329 -1 262
Width: 1035
VWidth: 0
Flags: HW
HStem: 24.8799 75.2969<357.951 466.021> 103 66<616.5 829.81> 275 60<751 829.639> 291 66<404.073 570.805> 438 78<742.416 830.064> 575 62<-15 385 448 987>
VStem: 604.099 71.1387<225.991 287.673> 834 71<175.018 269.459 340.875 434.708>
LayerCount: 2
Back
Fore
SplineSet
794 74 m 1
 794 -171 l 1
 700 -171 l 1
 678 -87 l 1
 678 -87 473.02734375 -171 378 -171 c 4
 335 -171 256.724609375 -160.181640625 202 -77 c 4
 177 -39 125 67 125 67 c 5
 194 113 l 5
 259 18 l 6
 298.440429688 -39.6435546875 353 -53 381 -53 c 4
 478 -53 678 31 678 31 c 1
 678 81 l 1
 623 88 l 1
 623 88 596.76171875 60.90625 579 45 c 0
 549.735351562 18.7919921875 510 0 456 0 c 0
 396 0 326 34 233 146 c 0
 169.742717853 222.180812908 67.0859375 419.120117188 67.0859375 419.120117188 c 1
 144 456 l 1
 144 456 248.9140625 316.879882812 303.9140625 241.879882812 c 0
 340.2578125 192.3203125 422.477539062 110.176757812 459.411132812 110.176757812 c 0
 477.375 110.176757812 497.103127154 119.192814438 518 138 c 0
 568 183 581.673828125 196.208984375 601 226 c 0
 607.315429688 235.735351562 610.098632812 243.740234375 610.098632812 250.250976562 c 0
 610.098632812 268.484375 588.264648438 275 561 275 c 0
 532 275 362 275 362 275 c 1
 404 526 l 1
 -15 526 l 1
 -15 637 l 1
 1047 637 l 1
 1047 526 l 25
 507 526 l 25
 503 506 l 1
 656 402 l 1xdf
 656 402 838 502 891 502 c 0
 957.732421875 502 976 480.778320312 976 394 c 0
 976 286 948 279 948 279 c 1
 948 279 975 276 975 196 c 0
 975 87 893.708007812 74 839 74 c 0
 834.813858118 74 794 74 794 74 c 1
727 336 m 1
 727 336 737 319 737 285 c 0
 737 271.23828125 733.495818625 251.492101847 720 226 c 0
 702 192 682 169 682 169 c 9
 812 169 l 2
 853 169 859 174 859 194 c 0
 859 231 847.220703125 232 781 232 c 1
 781 317 l 1
 849 317 863 317 863 353 c 0
 863 384.76953125 856 389 845 389 c 0
 831.165039062 389 727 336 727 336 c 1
567 361 m 1xdf
 485 418 l 1
 472 351 l 1
 472 351 536 361 567 361 c 1xdf
EndSplineSet
EndChar

StartChar: NameMe.65678
Encoding: 330 -1 263
Width: 291
VWidth: 0
Flags: HW
HStem: 575 61<-14 99 165 246>
VStem: 41.1172 67.3458<380.6 504.114> 124.255 69.4916<121.057 257.367>
LayerCount: 2
Back
Fore
SplineSet
199 526 m 17
 184 499 170.462890625 466.325195312 170.462890625 444.599609375 c 0
 170.462890625 352.002929688 255.747070312 269.2421875 255.747070312 183.02734375 c 0
 255.747070312 142.577148438 234.780273438 91.7802734375 192 49 c 0
 174 31 95 -35 95 -35 c 1
 25 22 l 1
 82 92 l 2
 101.794914524 116.50798941 124.255398034 149.01268578 124.255398034 179.46366811 c 0
 124.255398034 247.069750803 47.1171875 368.387695312 47.1171875 439.998046875 c 0
 47.1171875 475 85 526 85 526 c 9
 -14 526 l 1
 -14 636 l 1
 306 636 l 5
 306 526 l 5
 199 526 l 17
EndSplineSet
EndChar

StartChar: NameMe.65679
Encoding: 331 -1 264
Width: 685
VWidth: 0
Flags: HW
VStem: -177 67.5938<-206 1>
LayerCount: 2
Back
Fore
SplineSet
202 199 m 25
 49 325 l 1
 49 423 l 1
 306 511 l 1
 306 526 l 1
 -12 526 l 1
 -12 636 l 1
 697 636 l 1
 697 526 l 1
 415 526 l 25
 416 510 l 1
 539 473 l 2
 592.653320312 457.219726562 638.705078125 412.88671875 638.705078125 347.375976562 c 0
 638.705078125 326.4765625 635.153320312 301.643554688 620 276 c 0
 594 232 563 205 563 205 c 1
 491 241 l 1
 511.854492188 280.197265625 l 2
 523.877929688 303.080078125 533 323.34765625 533 335 c 0
 533 368.176757812 509.669921875 379.899414062 466 393 c 2
 415 408 l 1
 414.9921875 -148.99609375 l 1
 308.3984375 -149 l 1
 59.3984375 25 l 1
 59.3984375 140 l 1
 202 199 l 25
308 -23 m 1
 308 131 l 1
 173 73 l 1
 308 -23 l 1
307 250 m 1
 307 405 l 1
 182 357 l 1
 307 250 l 1
EndSplineSet
EndChar

StartChar: NameMe.65681
Encoding: 333 -1 266
Width: 590
VWidth: 0
Flags: HW
VStem: -149 67.5938<-206 1>
LayerCount: 2
Back
Fore
SplineSet
409.3984375 -75 m 1
 409.3984375 79 l 1
 274.3984375 21 l 1
 409.3984375 -75 l 1
515.9921875 -199.99609375 m 1
 409.3984375 -200 l 1
 160.3984375 -26 l 1
 160.3984375 89 l 1
 399 188 l 17
 399 460 l 1
 276 493 l 0
 253.241210938 499.090820312 219 510 199 510 c 0
 179.521484375 510 167 478 167 465 c 0
 167 450 224.896484375 431.750976562 255.959960938 421.31640625 c 0
 297.313476562 407.42578125 299 397 313 347 c 0
 316.575195312 334.231445312 329 287.665039062 329 256 c 0
 329 213.31640625 147 120 147 120 c 1
 97 198 l 1
 97 198 210 267.459960938 210 290 c 0
 210 317.006835938 200.856445312 320.4765625 178 330 c 0
 116.75 354.682617188 27.8505859375 383.694335938 27.8505859375 420.177734375 c 0
 27.8505859375 476.376953125 83.9794921875 584.979492188 102 603 c 0
 122 623 146.889648438 625.778320312 172.793945312 625.778320312 c 0xae
 193.184570312 625.778320312 233.1875 614.169921875 247 610 c 0
 353 578 399.837890625 564 399.837890625 564 c 1
 400 617 l 1
 390 702 l 1
 477 702 l 1
 503 636 l 9
 603 636 l 17
 603 526 l 1
 516 526 l 17
 515.9921875 -199.99609375 l 1
EndSplineSet
EndChar

StartChar: NameMe.271
Encoding: 334 -1 267
Width: 976
VWidth: 0
Flags: HW
VStem: -157 67.5938<-206 1>
LayerCount: 2
Back
Fore
SplineSet
743 -180 m 1
 743 -26 l 1
 608 -84 l 1
 743 -180 l 1
735 86 m 17
 735 86 764.5625 176.65234375 790.518554688 267.977539062 c 0
 804.528320312 317.26953125 786.256835938 346.692382812 737.518554688 360.977539062 c 0
 679.518554688 377.977539062 463 408 463 408 c 1
 463 343 l 1
 463 343 558.6484375 352 601 352 c 0
 669 352 705.237304688 317 705.237304688 260.31640625 c 0
 705.237304688 190.743164062 611.618164062 111.046875 547 53 c 0
 517.8203125 26.697265625 468.412109375 -2.296875 420.502929688 -2.296875 c 0
 373.201171875 -2.296875 295.581054688 23.9404296875 216 115 c 0
 112 234 55 416 55 416 c 1
 132 454 l 1
 132 454 231 287 296 199 c 0
 332.513671875 149.565429688 376.06640625 111 413 111 c 0
 430.963867188 111 454.873046875 118.967773438 476.588867188 136.823242188 c 0
 522.266601562 174.380859375 567 215 567 233 c 0
 567 251.233398438 550.264648438 258 523 258 c 0
 494 258 355 258 355 258 c 1
 355 526 l 1
 -15 526 l 1
 -15 637 l 1
 995 637 l 1
 995 526 l 1
 463 526 l 1
 463 499 l 1
 463 499 688.518554688 476.977539062 773.518554688 456.977539062 c 0
 850.142578125 438.948242188 917 413.603515625 917 339 c 0
 917 326.081054688 915.2578125 310.922851562 910.518554688 294.977539062 c 2
 849.59375 90 l 9
 849.59375 -301.99609375 l 1
 743 -302 l 1
 494 -128 l 1
 494 -13 l 1
 735 86 l 17
EndSplineSet
EndChar

StartChar: NameMe.278
Encoding: 335 -1 268
Width: 0
VWidth: 0
Flags: HW
VStem: -177 67.5938<-206 1>
LayerCount: 2
Back
Fore
SplineSet
561.3984375 3 m 5
 561.3984375 157 l 5
 426.3984375 99 l 5
 561.3984375 3 l 5
667.9921875 -118.99609375 m 5
 561.3984375 -119 l 5
 312.3984375 55 l 5
 312.3984375 170 l 5
 562 273 l 21
 562 425 l 1
 562 425 426.426757812 500.591796875 322.3359375 500.591796875 c 0
 276.018554688 500.591796875 258 456 278 426 c 0
 291.459960938 405.810546875 387 314 387 314 c 1
 325 245 l 1
 325 245 252 281 200 335 c 0
 169.176757812 367.008789062 154.35546875 406 154.35546875 456.431640625 c 0
 154.35546875 506 178.826171875 548.328125 210 571 c 0
 254 603 299.377929688 606.84375 337.79296875 606.84375 c 0xd8
 419.974609375 606.84375 562 540 562 540 c 1
 562 636 l 1
 584 702 l 1
 668 702 l 1
 668 636 l 1
 752 636 l 1
 752 526 l 1
 668 526 l 21xb8
 667.9921875 -118.99609375 l 5
EndSplineSet
EndChar

StartChar: NameMe.279
Encoding: 336 -1 269
Width: 700
VWidth: 0
Flags: HW
VStem: -177 67.5938<-206 1>
LayerCount: 2
Back
Fore
SplineSet
497 -74 m 5
 497 80 l 5
 362 22 l 5
 497 -74 l 5
714 526 m 17
 -14 526 l 1
 -14 636 l 1
 714 636.328125 l 9
 714 526 l 17
265 101 m 5
 265 101 215.083984375 138.3984375 187 168 c 4
 113 246 48 359 48 359 c 5
 110 407 l 5
 233 273 l 6
 321.41015625 176.682617188 360 163 405 163 c 4
 468 163 543 276 543 325 c 4
 543 387 471 379 441 379 c 4
 377 379 266 379 266 379 c 5
 255 469 l 5
 255 469 378 488 458 488 c 4
 591.126953125 488 647 411.158203125 647 329 c 4
 647 286.298828125 603.59375 196 603.59375 196 c 13
 603.59375 -195.99609375 l 5
 497 -196 l 5
 248 -22 l 5
 248 93 l 5
 265 101 l 5
EndSplineSet
EndChar

StartChar: NameMe.280
Encoding: 337 -1 270
Width: 0
VWidth: 0
Flags: HW
VStem: -177 67.5938<-206 1>
LayerCount: 2
Back
Fore
SplineSet
561.40234375 -26 m 5
 561.40234375 128 l 5
 426.40234375 70 l 5
 561.40234375 -26 l 5
667.99609375 -151.99609375 m 1
 561.40234375 -152 l 1
 312.40234375 22 l 1
 312.40234375 137 l 1
 371 161 l 25
 177 265 l 1
 177 369 l 1
 177 369 379 407 379 454 c 0
 379 489 376 502 275 502 c 0
 217 502 168 502 168 502 c 1
 153 592 l 1
 153 592 204 605 278 605 c 0
 437.10546875 605 485 555 485 434 c 0
 485 349 325 309 325 309 c 1
 503 216.75390625 l 25
 552 236 l 1
 552 636 l 1
 546 702 l 1
 633 702 l 1
 657 637 l 1
 751 637 l 17
 751 526 l 1
 668 526 l 1
 667.99609375 -151.99609375 l 1
EndSplineSet
EndChar

StartChar: NameMe.281
Encoding: 338 -1 271
Width: 572
VWidth: 0
Flags: HW
VStem: -165 67.5938<-206 1>
LayerCount: 2
Back
Fore
SplineSet
382 -25 m 1
 382 129 l 1
 247 71 l 1
 382 -25 l 1
373 241 m 17
 384 324 l 1
 134 212 l 1
 70.103515625 294.500976562 l 1
 70 526 l 9
 -10 526 l 1
 -10 636.328125 l 1
 582 636.328125 l 1
 582 526 l 1
 179 526 l 1
 179 359 l 1
 440.900390625 466.60546875 l 1
 512.900390625 429 l 1
 488.59375 245 l 9
 488.59375 -146.99609375 l 1
 382 -147 l 1
 133 27 l 1
 133 142 l 1
 373 241 l 17
EndSplineSet
EndChar

StartChar: NameMe.282
Encoding: 339 -1 272
Width: 965
VWidth: 0
Flags: HW
HStem: 0 21G<378.5 512.035> 575 61<-14 447 513 615>
VStem: 447 65<82 459 532 575>
LayerCount: 2
Back
Fore
SplineSet
549 296 m 17
 778 132 l 1
 778 388 l 1
 549 296 l 17
548 526 m 1
 548 421 l 25
 778 507 l 1
 778 526 l 1
 548 526 l 1
548 156 m 25
 548 0 l 1
 434 0 l 1
 61 242 l 1
 61 330 l 1
 207 389 l 1
 207 389 72 454 72 537 c 0
 72 602 110.419921875 665.536132812 201 665.536132812 c 0
 275.419921875 665.536132812 361 628 361 628 c 1
 338 546 l 1
 338 546 185 591 185 545 c 0
 185 506.692382812 335 438 335 438 c 1
 434 477 l 1
 434 636 l 1
 428 702 l 1
 513 702 l 1
 537 637 l 1
 978 637 l 25
 978 526 l 9
 896 526 l 25
 896 0 l 1
 778 0 l 1
 548 156 l 25
434 134 m 1
 434 368 l 1
 216 276 l 1
 434 134 l 1
EndSplineSet
EndChar

StartChar: NameMe.283
Encoding: 340 -1 273
Width: 600
VWidth: 0
Flags: HW
HStem: 0 21G<488 555> 362.225 70.1726<181.576 330.97> 575 61<-14 488 555 655>
VStem: 89.3553 68.3918<229.747 337.85> 488 67<0 290 363 574>
LayerCount: 2
Back
Fore
SplineSet
452 104 m 21
 452 266 l 1
 452 266 291.787109375 328.225585938 220.708007812 328.225585938 c 0
 169 328.225585938 154 295 167 263 c 0
 183.166992188 223.205078125 283 132 283 132 c 1
 228 54 l 1
 228 54 157 104 110 154 c 0
 79.5654296875 186.377929688 49.390625 237.630859375 49.390625 299.033203125 c 0
 49.390625 338.733398438 66.39453125 375.803710938 95.0361328125 401.6015625 c 0
 128.5390625 431.780273438 160.944335938 442 209 442 c 0
 285.987304688 442 452 376 452 376 c 1
 452 526 l 1
 -14 526 l 1
 -14 636 l 1
 614 636.328125 l 1
 614 526.328125 l 1
 558 526 l 1
 558 67.494140625 l 5
 557.9921875 -288.99609375 l 5
 451.3984375 -289 l 5
 202.3984375 -115 l 5
 202.3984375 0 l 5
 452 104 l 21
451.3984375 -167 m 5
 451.3984375 -13 l 5
 316.3984375 -71 l 5
 451.3984375 -167 l 5
EndSplineSet
EndChar

StartChar: NameMe.286
Encoding: 341 -1 274
Width: 936
VWidth: 0
Flags: HW
HStem: 0 21G<378.5 512.035> 575 61<-14 447 513 615>
VStem: 447 65<82 459 532 575>
LayerCount: 2
Back
Fore
SplineSet
525 296 m 17
 754 132 l 1
 754 388 l 1
 525 296 l 17
-14 636 m 1
 952 636 l 9
 952 526 l 9
 872 526 l 25
 872 0 l 1
 754 0 l 1
 524 156 l 25
 524 0 l 1
 406 0 l 1
 64 232 l 1
 64 379 l 1
 406 507 l 9
 406 526 l 1
 -14 526 l 17
 -14 636 l 1
524 526 m 1
 524 421 l 25
 754 507 l 1
 754 526 l 1
 524 526 l 1
177 296 m 17
 406 132 l 1
 406 388 l 1
 177 296 l 17
EndSplineSet
EndChar

StartChar: NameMe.288
Encoding: 342 -1 275
Width: 700
VWidth: 0
Flags: HW
HStem: 342 67<332.722 413.263> 421 69<135.765 189.345> 575 61<-10 141 216 409 469 557>
VStem: 54 65<331.99 407.748> 208.834 67.1661<478.314 530.166> 439 67<435.732 545.159>
LayerCount: 2
Back
Fore
SplineSet
414 260 m 21
 414 260 226.278862967 369 197 369 c 0
 186 369 181.188476562 362.881835938 168 342 c 0
 156 323 155.3828125 317.967773438 174 301 c 0
 196.581054688 280.419921875 214 268 214 268 c 1
 169 190 l 1
 169 190 95.0927734375 231.953125 78 245 c 0
 57.013671875 261.018554688 42 285 42 306 c 0
 42 329 47.0693359375 346.958007812 64 375 c 0
 96 428 134 489 173 489 c 0
 190 489 253 465 253 465 c 1
 253 465 272 488.052734375 272 494 c 0
 272 506 248 526 248 526 c 1
 -10 526 l 1
 -10 636 l 1
 712 636 l 1
 712 526 l 1
 640 526 l 1
 640 526 668 487.090820312 668 465 c 0
 668 400 521.6015625 243 521.6015625 243 c 5
 521.59375 -131.99609375 l 5
 415 -132 l 5
 166 42 l 5
 166 157 l 5
 414 260 l 21
355 435 m 1
 355 435 453 372 475 372 c 0
 488 372 550 445 550 467 c 0
 550 487 529 526 529 526 c 1
 362 526 l 1
 362 526 386 505 386 485 c 0
 386 471 355 435 355 435 c 1
415 -10 m 5
 415 144 l 5
 280 86 l 5
 415 -10 l 5
EndSplineSet
EndChar

StartChar: NameMe.290
Encoding: 343 -1 276
Width: 940
VWidth: 0
Flags: HW
HStem: 0 21G<378.5 512.035> 575 61<-14 447 513 615>
VStem: 447 65<82 459 532 575>
LayerCount: 2
Back
Fore
SplineSet
525 296 m 17
 754 132 l 1
 754 388 l 1
 525 296 l 17
-14 636 m 1
 952 636 l 9
 952 526 l 9
 872 526 l 25
 872 0 l 1
 754 0 l 1
 524 156 l 25
 524 0 l 1
 406 0 l 1
 64 232 l 1
 64 379 l 1
 406 507 l 9
 406 526 l 1
 -14 526 l 17
 -14 636 l 1
524 526 m 1
 524 421 l 25
 754 507 l 1
 754 526 l 1
 524 526 l 1
177 296 m 17
 406 132 l 1
 406 388 l 1
 177 296 l 17
66.052734375 -15 m 2xe0
 66.052734375 75 l 2
 66.052734375 90 74.052734375 100 90.052734375 100 c 2
 178.052734375 100 l 2
 193.052734375 100 201.052734375 89 201.052734375 75 c 2
 201.052734375 -15 l 2
 201.052734375 -30 192.052734375 -38 178.052734375 -38 c 2
 90.052734375 -38 l 2
 76.052734375 -38 66.052734375 -29 66.052734375 -15 c 2xe0
EndSplineSet
EndChar

StartChar: NameMe.291
Encoding: 344 -1 277
Width: 725
VWidth: 0
Flags: HW
HStem: 0 21G<588 655> 384 67<158.219 335.585 445.319 572.813> 575 61<-14 588 655 759>
VStem: 73 65<257.333 364.122> 357 52<206 258.182> 588 67<0 369.076 435 574>
LayerCount: 2
Back
Fore
SplineSet
574.3984375 -67 m 1
 574.3984375 87 l 1
 439.3984375 29 l 1
 574.3984375 -67 l 1
575 204 m 17
 575 249 l 2
 575 314 565 333 507 333 c 0
 445.6171875 333 437.325195312 315.342773438 427 241 c 1
 421 188 l 1
 324 188 l 1
 321 240 l 2
 316.227539062 322.724609375 306 338 259 338 c 2
 211 338 l 2
 168 338 157 308 157 262 c 0
 157 229 197 92 197 92 c 1
 109 69 l 1
 109 69 39 181 39 314 c 0
 39 401 108.012695312 457.0546875 178 458 c 2
 280 459 l 2
 339 459 366 444 378 403 c 1
 400 446 416 454 477 454 c 2
 513 454 l 2
 550.284179688 454 575 436 575 436 c 1
 575 526 l 1
 -14 526 l 1
 -14 636 l 1
 741 636 l 1
 741 526 l 1
 681 526 l 1
 681 167 l 1
 680.9921875 -188.99609375 l 1
 574.3984375 -189 l 1
 325.3984375 -15 l 1
 325.3984375 100 l 1
 575 204 l 17
EndSplineSet
EndChar

StartChar: NameMe.292
Encoding: 345 -1 278
Width: 645
VWidth: 0
Flags: HW
HStem: 0 21G<487 556> 264 66.751<37 184.45 283.794 403.674> 526 69<15.3355 190.982 284.308 476.52> 575 61<556 660>
VStem: 201 71<348.986 511.392> 487 69<0 509.715 572 575 636 661.773> 509 47<691.227 717>
LayerCount: 2
Back
Fore
SplineSet
487.3984375 -60.494140625 m 1
 487.3984375 93.505859375 l 1
 352.3984375 35.505859375 l 1
 487.3984375 -60.494140625 l 1
488 211 m 17
 488 468 l 1
 488 468 414 484 360 484 c 0
 305.770507812 484 293 474 293 421 c 2
 293 403 l 2
 294 374 303.794206464 356.06698853 323 355 c 0
 359 353 402 353 402 353 c 1
 411 260 l 1
 411 260 346 247 307 247 c 0
 263.115234375 247 239 284 239 284 c 1
 239 284 203.973632812 247 154 247 c 0
 115 247 30 252 30 252 c 1
 37 349 l 1
 37 349 104.0859375 349.9609375 136 353 c 0
 155.148758813 354.823468098 181 369 181 399 c 2
 181 424 l 2
 181 468 159 484 133 484 c 0
 98 484 -1 474 -1 474 c 1
 -10 567 l 1
 -10 567 105 595 157 595 c 0
 197 595 223 588 247 558 c 1
 267 588 299 590 342 590 c 0
 378 590 488 571 488 571 c 1
 488 636 l 1
 510 702 l 1
 594 702 l 1
 594 636 l 1
 658 636 l 1
 658 526 l 1
 594 526 l 1
 594 175 l 1
 593.9921875 -182.490234375 l 1
 487.3984375 -182.494140625 l 1
 238.3984375 -8.494140625 l 1
 238.3984375 106.505859375 l 1
 488 211 l 17
EndSplineSet
EndChar

StartChar: NameMe.294
Encoding: 347 -1 280
Width: 735
VWidth: 0
Flags: HW
HStem: 324 75<126.545 208.755 467.67 553.331> 575 61<-10 288 352.787 554 617 718>
VStem: 578 75<425.284 539.057>
LayerCount: 2
Back
Fore
SplineSet
511.3984375 18 m 1
 511.3984375 172 l 1
 376.3984375 114 l 1
 511.3984375 18 l 1
618 298.494140625 m 1
 617.9921875 -103.99609375 l 1
 511.3984375 -104 l 1
 262.3984375 70 l 1
 262.3984375 185 l 1
 512 289 l 17
 496 289 315 376 315 376 c 1
 315 376 257 274 210 274 c 0
 165 274 40 342 40 342 c 1
 77 425 l 1
 77 425 159 393 174 393 c 0
 204 393 265 526 265 526 c 1
 -10 526 l 1
 -10 636 l 1
 746 636 l 1
 746 526 l 1
 661 526 l 1
 661 526 694 487 694 463 c 0
 694 406 618 299 618 298.494140625 c 1
364 476 m 1
 364 476 516.126953125 405 532 405 c 0
 550 405 577 450 577 465 c 0
 577 485 548 526 548 526 c 1
 389 526 l 1
 364 476 l 1
EndSplineSet
EndChar

StartChar: NameMe.295
Encoding: 348 -1 281
Width: 999
VWidth: 0
Flags: HW
HStem: 0 21G<378.5 512.035> 575 61<-14 447 513 615>
VStem: 447 65<82 459 532 575>
LayerCount: 2
Back
Fore
SplineSet
582 296 m 17
 811 132 l 1
 811 388 l 1
 582 296 l 17
469 232 m 1
 469 232 409 177 264 130 c 1
 513 5 l 1
 470 -73 l 1
 470 -73 216.965820312 1.6982421875 68 96 c 9
 80 195 l 1
 80 195 404 266 404 334 c 0
 404 368 394 378 324 378 c 0xe8
 261 378 97 378 97 378 c 1
 86 468 l 1
 86 468 216.418780146 489 311 489 c 0
 470 489 507 393.22265625 507 393.22265625 c 1
 811 507 l 1
 811 526 l 1
 -14 526 l 1
 -14 636 l 1
 1011 636 l 9
 1011 526 l 9
 929 526 l 25
 929 0 l 1
 811 0 l 1
 469 232 l 1
EndSplineSet
EndChar

StartChar: NameMe.296
Encoding: 363 -1 296
Width: 685
VWidth: 0
Flags: HW
HStem: 575 61<-12 312 377 647>
VStem: 312 65<212 467 542 574> 554.146 71.5596<332.102 420.17>
LayerCount: 2
Back
Fore
SplineSet
307 46 m 5
 307 182 l 5
 197 140 l 5
 307 46 l 5
275 278 m 29
 307 289 l 5
 307 405 l 5
 182 357 l 5
 275 278 l 29
586 228 m 5
 586 228 637.705078125 185 637.705078125 124.375976562 c 4
 637.705078125 103.4765625 634.153320312 78.6435546875 619 53 c 4
 593 9 562 -18 562 -18 c 5
 490 18 l 5
 510.854492188 57.197265625 l 6
 522.877929688 80.080078125 532 100.34765625 532 112 c 4
 532 145.176757812 508.669921875 156.899414062 465 170 c 6
 415 185 l 5
 414 -96 l 5
 306 -96 l 5
 66 108 l 5
 66 206 l 5
 156 237 l 5
 49 325 l 5
 49 423 l 5
 306 511 l 5
 306 526 l 5
 -12 526 l 5
 -12 636 l 5
 697 636 l 5
 697 526 l 5
 415 526 l 29
 416 510 l 5
 539 473 l 6
 592.653320312 457.219726562 638.705078125 412.88671875 638.705078125 347.375976562 c 4
 638.705078125 326.4765625 635.10217994 301.673705899 620 276 c 4
 600 242 586 228 586 228 c 5
502 261 m 21
 511.854492188 280.197265625 l 6
 522.939369594 301.791410906 533 323.34765625 533 335 c 4
 533 368.176757812 509.669921875 379.899414062 466 393 c 6
 415 408 l 5
 415 287 l 5
 502 261 l 21
EndSplineSet
EndChar

StartChar: NameMe.297
Encoding: 364 -1 297
Width: 685
VWidth: 0
Flags: HW
HStem: 575 61<-12 312 377 647>
VStem: 312 65<212 467 542 574> 554.146 71.5596<332.102 420.17>
LayerCount: 2
Back
Fore
SplineSet
155 -142 m 5
 155 -142 122 -120 90 -92 c 4
 60.4624412488 -66.1546360927 24 -30 24 26 c 4
 24 52 28.341555842 84.9975788601 51 110 c 4
 80 142 107.443359375 154 149 154 c 4
 211.018600273 154 309 93 309 93 c 5
 309 112 l 1
 49 325 l 1
 49 423 l 1
 306 511 l 1
 306 526 l 1
 -12 526 l 1
 -12 636 l 1
 697 636 l 1
 697 526 l 1
 415 526 l 25
 416 510 l 1
 539 473 l 2
 592.653320312 457.219726562 638.705078125 412.88671875 638.705078125 347.375976562 c 0
 638.705078125 326.4765625 635.153320312 301.643554688 620 276 c 0
 594 232 563 205 563 205 c 1
 491 241 l 1
 511.854492188 280.197265625 l 2
 523.877929688 303.080078125 533 323.34765625 533 335 c 0
 533 368.176757812 509.669921875 379.899414062 466 393 c 2
 415 408 l 1
 415 114 l 5
 415 -142 l 5
 309 -142 l 5
 309 -16 l 5
 309 -16 178 56 147 45 c 4
 86.3457589135 23.4775273564 205 -68 205 -68 c 5
 155 -142 l 5
307 250 m 1
 307 405 l 1
 182 357 l 1
 307 250 l 1
EndSplineSet
EndChar

StartChar: NameMe.303
Encoding: 370 -1 303
Width: 760
VWidth: 0
Flags: HW
HStem: 25 73<335.238 470.405> 346 63<368 510.427> 563 72<253.094 514.101>
VStem: 521 69<414.879 554.233> 572 71<185.206 305.439>
LayerCount: 2
Back
Fore
SplineSet
547 242 m 1
 547 242 574 213 574 170 c 0
 574 120 516 58 421 -7 c 0
 394.384765625 -25.2109375 360 -32 336 -32 c 0
 279 -32 226.498046875 -5.6298828125 152 94 c 0
 69 205 38 300 38 300 c 1
 105 340 l 1
 237 157 l 2
 270.948242188 107.963867188 304 72 336 72 c 0
 360 72 395.373046875 97.5537109375 411 111 c 0
 454 148 467 163 467 175 c 0xe8
 467 195 445 242 417 242 c 1
 318 242 l 1
 318 339 l 1
 318 339 369.060546875 339 403 339 c 0
 442 339 448 344 448 362 c 0
 448 395.654296875 446 397 362 397 c 0xf0
 304.293945312 397 221 397 221 397 c 1
 213 487 l 1
 213 487 273 503 370 503 c 0
 484.00390625 503 549 477 549 417 c 0xf0
 549 401 549 396 549 371 c 0
 549 356.71875 548.65625 340 548.65625 340 c 1
 548.65625 340 563.815429688 340.124023438 595.754882812 340.124023438 c 0
 674.298828125 340.124023438 728.016601562 292.634765625 728.016601562 234.004882812 c 0
 728.016601562 209.674804688 723.298828125 188.634765625 717.415039062 169.219726562 c 0
 706.963867188 134.734375 679 67 679 67 c 1
 601.533203125 89.7666015625 l 1
 601.533203125 89.7666015625 629 180.151367188 629 210 c 0
 629 238.6640625 616.583007812 242.6640625 572.1953125 242.6640625 c 0
 559.234375 242.6640625 547 242 547 242 c 1
770 526 m 25x98
 -14 526.00390625 l 1
 -14 636 l 1
 770 636.328125 l 1
 770 526 l 25x98
EndSplineSet
EndChar

StartChar: NameMe.306
Encoding: 373 -1 306
Width: 839
VWidth: 0
Flags: HW
LayerCount: 2
Back
Fore
SplineSet
676 526 m 13
 415 526 l 9
 416 510 l 1
 539 473 l 2
 592.653320312 457.219726562 638.705078125 412.88671875 638.705078125 347.375976562 c 0
 638.705078125 326.4765625 635.153320312 301.643554688 620 276 c 0
 594 232 563 205 563 205 c 1
 491 241 l 1
 511.854492188 280.197265625 l 2
 523.877929688 303.080078125 533 323.34765625 533 335 c 0
 533 368.176757812 509.669921875 379.899414062 466 393 c 2
 415 408 l 1
 415 82 l 5
 415 81 602 -5 624 -5 c 4
 637 -5 676 48 676 70 c 4
 676 90 676 526 676 526 c 13
794 526 m 29
 794 526 794 90.0908203125 794 68 c 4
 794 24 684 -134 664 -134 c 4
 626.515625 -134 296 15 254 15 c 4
 243 15 238.188476562 8.8818359375 225 -12 c 4
 213 -31 212.3828125 -36.0322265625 231 -53 c 4
 253.581054688 -73.580078125 271 -86 271 -86 c 5
 226 -164 l 5
 226 -164 152.092773438 -122.046875 135 -109 c 4
 114.013671875 -92.9814453125 99 -69 99 -48 c 4
 99 -25 104.069335938 -7.0419921875 121 21 c 4
 153 74 191 135 230 135 c 4
 247 135 310 111 310 111 c 5
 49 325 l 1
 49 423 l 1
 306 511 l 1
 306 526 l 1
 -12 526 l 1
 -12 636 l 1
 854 636 l 1
 854 526 l 1
 794 526 l 29
307 250 m 1
 307 405 l 1
 182 357 l 1
 307 250 l 1
EndSplineSet
EndChar

StartChar: NameMe.307
Encoding: 374 -1 307
Width: 795
VWidth: 0
Flags: HW
LayerCount: 2
Back
Fore
SplineSet
515 -123 m 9
 410 -123 l 1
 410 -2 l 25
 405 -2 l 2
 361 -2 349.709960938 -34.70703125 340 -68 c 2
 336 -96 l 1
 262 -96 l 1
 261 -68 l 2
 259.1171875 -19.05859375 251 -2 218 -2 c 0
 206 -2 172.716796875 -0.87890625 166 -17 c 0xe8
 161 -29 162.813476562 -41.2529296875 167 -58 c 0
 173 -82 183 -118 183 -118 c 1
 102 -139 l 1xd8
 102 -139 82 -95 69 -50 c 0
 63.119140625 -29.642578125 55 6 55 32 c 0
 55 89 112.080078125 101 182 101 c 2
 215 101 l 2
 265 101 296 79 304 60 c 1
 314 85 354 95 394 95 c 0
 404.666992188 95 410 95 410 95 c 9
 410 95 410 111 410 111 c 1
 149 325 l 1
 149 423 l 1
 406 511 l 1
 406 526 l 1
 -12 526 l 1
 -12 636 l 1
 806 636 l 1
 806 526 l 9
 516 526 l 25
 516 510 l 1
 639 473 l 2
 692.653320312 457.219726562 738.705078125 412.88671875 738.705078125 347.375976562 c 0
 738.705078125 326.4765625 735.153320312 301.643554688 720 276 c 0
 694 232 663 205 663 205 c 1
 591 241 l 1
 611.854492188 280.197265625 l 2
 623.877929688 303.080078125 633 323.34765625 633 335 c 0
 633 368.176757812 609.669921875 379.899414062 566 393 c 2
 515 408 l 1
 515 -123 l 9
407 250 m 1
 407 405 l 1
 282 357 l 1
 407 250 l 1
EndSplineSet
EndChar

